<?xml version="1.0" standalone="no"?>
<!DOCTYPE svg PUBLIC "-//W3C//DTD SVG 1.1//EN" "http://www.w3.org/Graphics/SVG/1.1/DTD/svg11.dtd" >
<svg xmlns="http://www.w3.org/2000/svg" xmlns:xlink="http://www.w3.org/1999/xlink" version="1.1">
<metadata>
Created by FontForge 20170924 at Sat Apr 18 04:49:06 2020
 By www-data
Copyright (c) 2015-2019 Belleve Invis.
</metadata>
<defs>
<font id="Iosevka-Term-Bold" horiz-adv-x="500" >
  <font-face 
    font-family="Iosevka Term"
    font-weight="700"
    font-stretch="normal"
    units-per-em="1000"
    panose-1="2 0 8 9 0 0 0 0 0 0"
    ascent="800"
    descent="-200"
    x-height="530"
    cap-height="735"
    bbox="-1000 -512 1142 1197"
    underline-thickness="50"
    underline-position="-75"
    unicode-range="U+000D-1FBF9"
  />
<missing-glyph 
d="M50 0v735h400v-735h-400zM89 327l295 369h-93l-202 -252v-117zM89 483l170 213h-93l-77 -96v-117zM89 639l45 57h-45v-57zM89 171l322 402v117l-322 -402v-117zM89 39h20l302 378v117l-322 -402v-93zM140 39h94l177 222v117zM265 39h94l52 65v118zM390 39h21v26z" />
    <glyph glyph-name=".notdef" 
d="M50 0v735h400v-735h-400zM89 327l295 369h-93l-202 -252v-117zM89 483l170 213h-93l-77 -96v-117zM89 639l45 57h-45v-57zM89 171l322 402v117l-322 -402v-117zM89 39h20l302 378v117l-322 -402v-93zM140 39h94l177 222v117zM265 39h94l52 65v118zM390 39h21v26z" />
    <glyph glyph-name="uni000D" unicode="&#xd;" horiz-adv-x="0" 
 />
    <glyph glyph-name="space" unicode=" " 
 />
    <glyph glyph-name="exclam" unicode="!" 
d="M191 278v457h118v-457h-118zM250 -8q-23 0 -45 10t-31.5 31.5t-9.5 45t9.5 45t31.5 31.5t45 10t45 -10t32 -31.5t10 -45t-10 -45t-32 -31.5t-45 -10z" />
    <glyph glyph-name="quotedbl" unicode="&#x22;" 
d="M94 451q-9 160 -9 321h130q0 -161 -9 -321h-112zM294 451q-9 160 -9 321h130q0 -161 -9 -321h-112z" />
    <glyph glyph-name="numbersign" unicode="#" 
d="M93 -71v194h-88v106h88v222h-88v106h88v194h99v-194h116v194h99v-194h88v-106h-88v-222h88v-106h-88v-194h-99v194h-116v-194h-99zM192 229h116v222h-116v-222z" />
    <glyph glyph-name="dollar" unicode="$" 
d="M200 -103v135q-42 7 -78.5 31t-55 63.5t-18.5 82.5v2l99 -1q0 -19 7 -36.5t21 -30.5t32 -19v209q-43 12 -79.5 37.5t-57 66t-20.5 84.5q0 43 18 83.5t54 65.5t78 32v136h100v-135q42 -7 78.5 -31t55 -63.5t18.5 -82.5v-2l-99 1q0 19 -7 36.5t-21 30.5t-32 19v-209
q43 -12 79.5 -37.5t57 -66t20.5 -84.5q0 -43 -18 -83.5t-54 -65.5t-78 -32v-136h-100zM207 430v180q-18 -6 -31.5 -19t-20.5 -30.5t-7 -35.5q0 -29 16.5 -54.5t42.5 -40.5zM293 125q18 6 31.5 19t20.5 30.5t7 35.5q0 29 -16.5 54.5t-42.5 40.5v-180z" />
    <glyph glyph-name="percent" unicode="%" 
d="M138 360q-24 0 -46.5 5.5t-40.5 21t-26 38t-8 46.5v161q0 23 8 45.5t26 38t40.5 21.5t46.5 6q23 0 45.5 -6t40.5 -21.5t26 -38t8 -45.5v-161q0 -24 -8 -46.5t-26 -38t-40.5 -21t-45.5 -5.5zM288 430l75 305h112l-97 -305h-90zM363 -8q-24 0 -46.5 6t-40.5 21.5t-26 38
t-8 45.5v162q0 23 8 45.5t26 38t40.5 21.5t46.5 6q23 0 45.5 -6t40.5 -21.5t26 -38t8 -45.5v-162q0 -23 -8 -45.5t-26 -38t-40.5 -21.5t-45.5 -6zM25 0l97 305h90l-75 -305h-112zM138 438q33 0 33 33v161q0 33 -33 33q-34 0 -34 -33v-161q0 -33 34 -33zM363 70q33 0 33 33
v162q0 33 -33 33q-34 0 -34 -33v-162q0 -33 34 -33z" />
    <glyph glyph-name="ampersand" unicode="&#x26;" 
d="M250 -8q-41 0 -81 12t-69.5 41.5t-43.5 69t-14 81.5q0 99 92 183q-64 99 -64 193q0 33 10 66t33 58.5t55.5 36t66.5 10.5q33 0 65.5 -10.5t55.5 -35.5t33.5 -57.5t10.5 -65.5q0 -41 -16 -80t-44 -69t-60 -56q26 -36 62 -80v79h116v-162q0 -38 -6 -65q38 -71 38 -141h-116
q0 12 -1 24q-48 -32 -123 -32zM223 455q62 59 62 119q0 15 -4.5 30.5t-17.5 25t-28 9.5q-16 0 -28.5 -10.5t-17 -26t-4.5 -31.5q0 -48 38 -116zM250 96q54 0 78 43l1 2l-2 3q-27 42 -62 78t-67 73q-41 -48 -41 -100q0 -26 10.5 -50t33.5 -36.5t49 -12.5z" />
    <glyph glyph-name="quotesingle" unicode="'" 
d="M194 451q-9 160 -9 321h130q0 -161 -9 -321h-112z" />
    <glyph glyph-name="parenleft" unicode="(" 
d="M410 -161q-68 34 -123 87.5t-91 121t-51 142t-15 150.5t15 150.5t51 142t91 121t123 87.5l53 -95q-71 -38 -122 -103t-72 -143.5t-21 -159.5t21 -159.5t72 -143.5t122 -103z" />
    <glyph glyph-name="parenright" unicode=")" 
d="M90 -161l-53 95q71 38 122 103t72 143.5t21 159.5t-21 159.5t-72 143.5t-122 103l53 95q68 -34 123 -87.5t91 -121t51 -142t15 -150.5t-15 -150.5t-51 -142t-91 -121t-123 -87.5z" />
    <glyph glyph-name="asterisk" unicode="*" 
d="M174 359l-95 63l94 115l-141 38l36 101l131 -50l-8 145h118l-8 -145l131 50l36 -101l-141 -38l94 -115l-95 -63l-76 118z" />
    <glyph glyph-name="plus" unicode="+" 
d="M195 132v158h-145v100h145v158h110v-158h145v-100h-145v-158h-110z" />
    <glyph glyph-name="comma" unicode="," 
d="M223 -205l-76 58q59 70 84 140q-23 3 -42.5 16.5t-28 35.5t-8.5 45q0 20 6 39t20 33t33 20t39 6t39 -6t33 -20t20 -33t6 -39v-5q-2 -145 -125 -290z" />
    <glyph glyph-name="hyphen" unicode="-" 
d="M50 287v106h400v-106h-400z" />
    <glyph glyph-name="period" unicode="." 
d="M250 -8q-20 0 -39 6t-33 20t-20 33t-6 39t6 39t20 33t33 20t39 6t39 -6t33 -20t20 -33t6 -39t-6 -39t-20 -33t-33 -20t-39 -6z" />
    <glyph glyph-name="slash" unicode="/" 
d="M43 -143l294 966h120l-294 -966h-120z" />
    <glyph glyph-name="zero" unicode="0" 
d="M250 -8q-42 0 -82.5 12t-71 42.5t-42.5 71t-12 82.5v335q0 42 12 82.5t42.5 71t71 42.5t82.5 12t82.5 -12t71 -42.5t42.5 -71t12 -82.5v-335q0 -42 -12 -82.5t-42.5 -71t-71 -42.5t-82.5 -12zM250 98q19 0 37.5 7t31 22.5t17 34.5t4.5 38v184l-180 -144v-40
q0 -19 4.5 -38t17 -34.5t31 -22.5t37.5 -7zM160 351l180 144v40q0 19 -4.5 38t-17 34.5t-31 22.5t-37.5 7t-37.5 -7t-31 -22.5t-17 -34.5t-4.5 -38v-184z" />
    <glyph glyph-name="one" unicode="1" 
d="M221 0v618l-108 -83l-60 71l168 129h118v-735h-118z" />
    <glyph glyph-name="two" unicode="2" 
d="M50 0v1q0 45 4 90t20.5 87.5t43.5 78.5t61 66t71 56t61.5 65.5t24.5 84.5q0 19 -4 38.5t-15 36t-29 25t-38 8.5q-22 0 -43 -10t-31 -30.5t-10 -43.5h-118q0 39 14.5 76.5t43.5 64.5t67 38t77 11q42 0 82.5 -13.5t69.5 -45t40.5 -72.5t11.5 -83q0 -53 -22 -101.5
t-62.5 -83t-82 -66.5t-71 -76.5t-40.5 -95.5h274v-106h-400z" />
    <glyph glyph-name="three" unicode="3" 
d="M252 -8q-40 0 -79.5 10.5t-70 37t-46.5 64.5t-16 78h118q0 -23 12.5 -44.5t35 -30.5t46.5 -9q26 0 50 12t35.5 37t11.5 51q0 29 -14.5 56t-39.5 43.5t-54.5 20.5t-58.5 4v106q27 0 54 4t49.5 20t35 41t12.5 52q0 23 -8.5 45t-29 34.5t-43.5 12.5q-21 0 -40.5 -10
t-28.5 -30.5t-9 -41.5h-118q0 38 13.5 75t41.5 64t65.5 38t75.5 11q40 0 78 -12t66 -41t41 -67t13 -77q0 -35 -12 -68t-35.5 -59t-54.5 -42q35 -16 62.5 -43t41.5 -63t14 -74q0 -42 -15 -82t-45.5 -69.5t-71 -41.5t-82.5 -12z" />
    <glyph glyph-name="four" unicode="4" 
d="M262 0v188h-220v106l195 441h143v-441h70v-106h-70v-188h-118zM149 294h113v254z" />
    <glyph glyph-name="five" unicode="5" 
d="M251 -8q-40 0 -79 13t-67.5 43t-42 69t-14.5 79h118q0 -18 5 -36t16 -33t28.5 -22t35.5 -7q23 0 43 13t29.5 34.5t13 44t3.5 45.5t-3 45.5t-12.5 43.5t-28.5 34.5t-41 13.5t-41.5 -11t-28 -31.5t-9.5 -42.5h-118v448h372v-106h-254v-163q33 12 79 12q36 0 70.5 -10.5
t61.5 -35t43 -57t22 -68.5t6 -72t-6 -72t-22.5 -68.5t-44 -57t-63 -35t-71.5 -10.5z" />
    <glyph glyph-name="six" unicode="6" 
d="M250 -8q-38 0 -74.5 12t-63.5 39t-42.5 62t-21.5 72.5t-6 74.5q0 80 14 158.5t54 148t106.5 116t144.5 60.5l20 -104q-53 -11 -99 -41t-76 -75t-44 -97q35 31 92 31q44 0 85 -16t69.5 -50t39 -76.5t10.5 -86.5q0 -35 -6.5 -69.5t-24 -65.5t-45.5 -53t-62.5 -31t-69.5 -9z
M250 98q22 0 41.5 10t30 29t14.5 40.5t4 43t-3.5 42.5t-14.5 40t-30 29.5t-41 10.5q-21 0 -41 -10t-31 -29t-15 -40.5t-4 -42.5t3.5 -42t14 -39.5t28.5 -29.5t39 -12h5z" />
    <glyph glyph-name="seven" unicode="7" 
d="M99 0l225 629h-274v106h400v-106l-225 -629h-126z" />
    <glyph glyph-name="eight" unicode="8" 
d="M250 -8q-40 0 -79.5 11t-69.5 39t-44.5 66.5t-14.5 78.5q0 110 115 191q-99 75 -99 177q0 38 13 74.5t40 64t64 38.5t75 11t75 -11t64 -38.5t40 -64t13 -74.5q0 -102 -99 -177q115 -81 115 -191q0 -40 -14.5 -78.5t-44.5 -66.5t-69.5 -39t-79.5 -11zM250 98q24 0 46.5 10
t33.5 32.5t11 46.5q0 71 -91 129l-2 -1q-89 -58 -89 -128q0 -24 11 -46.5t33.5 -32.5t46.5 -10zM250 438q74 51 74 118q0 20 -8 40t-26.5 30.5t-39.5 10.5t-39.5 -10.5t-26.5 -30.5t-8 -40q0 -67 74 -118z" />
    <glyph glyph-name="nine" unicode="9" 
d="M252 -8q-39 0 -77 10.5t-67.5 36.5t-44.5 63t-15 76h118q0 -22 11 -42t32 -29t43 -9q19 0 37.5 7t30 22.5t16 34.5t4.5 38v84q-35 -33 -94 -33q-42 0 -81.5 13t-69 43.5t-41.5 70.5t-12 81v76q0 42 12 82.5t42 70.5t70.5 42.5t81.5 12.5q37 0 73 -10t63.5 -35t44.5 -58
t23 -69.5t6 -73.5v-297q0 -33 -7 -66t-25.5 -61t-46.5 -47t-60.5 -26.5t-66.5 -7.5zM249 357q19 0 37.5 7t31.5 22.5t17.5 34.5t4.5 38v38q0 24 -3.5 47t-13.5 45t-30.5 35t-44.5 13q-25 0 -48 -13.5t-31.5 -38t-8.5 -50.5v-76q0 -19 4.5 -38t16.5 -34.5t30 -22.5t38 -7z
" />
    <glyph glyph-name="colon" unicode=":" 
d="M250 -8q-20 0 -39 6t-33 20t-20 33t-6 39t6 39t20 33t33 20t39 6t39 -6t33 -20t20 -33t6 -39t-6 -39t-20 -33t-33 -20t-39 -6zM250 342q-20 0 -39 6t-33 20t-20 33t-6 39t6 39t20 33t33 20t39 6t39 -6t33 -20t20 -33t6 -39t-6 -39t-20 -33t-33 -20t-39 -6z" />
    <glyph glyph-name="semicolon" unicode=";" 
d="M223 -205l-76 58q59 70 84 140q-23 3 -42.5 16.5t-28 35.5t-8.5 45q0 20 6 39t20 33t33 20t39 6t39 -6t33 -20t20 -33t6 -39v-5q-2 -145 -125 -290zM250 342q-20 0 -39 6t-33 20t-20 33t-6 39t6 39t20 33t33 20t39 6t39 -6t33 -20t20 -33t6 -39t-6 -39t-20 -33t-33 -20
t-39 -6z" />
    <glyph glyph-name="less" unicode="&#x3c;" 
d="M426 98l-376 186v112l376 186l48 -90l-310 -152l310 -152z" />
    <glyph glyph-name="equal" unicode="=" 
d="M50 386v100h400v-100h-400zM50 194v100h400v-100h-400z" />
    <glyph glyph-name="greater" unicode="&#x3e;" 
d="M74 98l-48 90l310 152l-310 152l48 90l376 -186v-112z" />
    <glyph glyph-name="question" unicode="?" 
d="M309 236h-118q0 30 4 60.5t18.5 57.5t34 50.5t38.5 47t33 51.5t14 59q0 21 -11 40.5t-31.5 27t-41.5 7.5t-41 -8t-31 -27t-11 -40v-1h-118v3q0 38 15 74t44 61t66.5 34.5t75.5 9.5t75.5 -10t67 -35.5t44 -62t14.5 -74.5q0 -31 -9.5 -60t-25.5 -54.5t-35 -49t-37.5 -48
t-26 -54t-7.5 -59.5zM250 -8q-23 0 -45 10t-31.5 31.5t-9.5 45t9.5 45t31.5 31.5t45 10t45 -10t32 -31.5t10 -45t-10 -45t-32 -31.5t-45 -10z" />
    <glyph glyph-name="at" unicode="@" 
d="M250 -86q-33 0 -66 8.5t-60 28.5t-44 49t-23.5 62t-6.5 66v424q0 41 11 82t39 73t68 45.5t82 13.5q41 0 80.5 -13t68 -44t40 -71t11.5 -81v-325q0 -28 -5.5 -55t-21.5 -50t-41.5 -34.5t-52.5 -11.5q-29 0 -55.5 10.5t-44 33.5t-24 50.5t-6.5 56.5v175q0 28 6.5 55.5
t24 50.5t44.5 33.5t55 10.5h22q0 27 -12 52.5t-37 38t-52 12.5q-21 0 -41 -7t-34.5 -23t-20 -36.5t-5.5 -41.5v-424q0 -21 5.5 -41.5t20 -36.5t34.5 -23t41 -7h147v-106h-147zM328 170q23 0 23 62v236h-22q-31 0 -31 -61v-175q0 -13 1.5 -25.5t9 -24.5t19.5 -12z" />
    <glyph glyph-name="A" unicode="A" 
d="M42 0l140 735h136l140 -735h-118l-30 159h-120l-30 -159h-118zM210 265h80l-16 83q-17 91 -24 146q-7 -55 -24 -146z" />
    <glyph glyph-name="B" unicode="B" 
d="M50 0v735h192q41 0 79.5 -12t67.5 -41.5t40.5 -68.5t11.5 -79q0 -103 -75 -149l2 -1q98 -48 98 -168q0 -45 -14 -87.5t-47 -73.5t-75.5 -43t-87.5 -12h-192zM168 435h74q18 0 35 7t27.5 22t14.5 33t4 35.5t-4 35.5t-14.5 32.5t-27.5 21.5t-35 7h-74v-194zM168 106h74
q22 0 43 7t36 23.5t21 37.5t6 43t-5.5 43.5t-20.5 38t-36.5 23.5t-43.5 7h-74v-223z" />
    <glyph glyph-name="C" unicode="C" 
d="M248 -8q-34 0 -67 8t-61 28t-46 49t-25 62t-7 67v323q0 34 7 67t25 62t46 49t61 28t67 8q39 0 77.5 -10.5t68 -37.5t44 -64.5t14.5 -76.5h-118q0 22 -10.5 43t-32 30.5t-43.5 9.5q-20 0 -38.5 -8t-30 -24.5t-15.5 -36t-4 -39.5v-323q0 -20 4 -39.5t15.5 -36t30 -24.5
t38.5 -8q22 0 43.5 9.5t32 30.5t10.5 43h118q0 -37 -13 -72.5t-39.5 -62.5t-62 -39.5t-72.5 -14.5h-17z" />
    <glyph glyph-name="D" unicode="D" 
d="M50 0v735h173q42 0 82 -12t71 -40t49.5 -65.5t25.5 -78.5t7 -82v-179q0 -41 -7 -82t-25.5 -78.5t-49.5 -65.5t-71 -40t-82 -12h-173zM168 106h55q24 0 45.5 9.5t36 29t22.5 41.5t10.5 45.5t2.5 46.5v179q0 23 -2.5 46.5t-10.5 45.5t-22.5 41.5t-36 29t-45.5 9.5h-55v-523
z" />
    <glyph glyph-name="E" unicode="E" 
d="M75 0v735h375v-106h-257v-179h197v-106h-197v-238h257v-106h-375z" />
    <glyph glyph-name="F" unicode="F" 
d="M75 0v735h375v-106h-257v-179h197v-106h-197v-344h-118z" />
    <glyph glyph-name="G" unicode="G" 
d="M202 -8q-30 0 -59 10.5t-49.5 33.5t-32 51.5t-15.5 58.5t-4 60v323q0 34 7 67t25 62t46 49t61 28t67 8q39 0 77.5 -10.5t68 -37.5t44 -64.5t14.5 -76.5h-118q0 22 -10.5 43t-32 30.5t-43.5 9.5q-20 0 -38.5 -8t-30 -24.5t-15.5 -36t-4 -39.5v-323q0 -20 4 -39.5t16 -36
t31 -24.5t39 -8q19 0 36.5 8.5t28 25.5t14 36t3.5 38v97h-82v106h200v-409h-107v112q-25 -91 -95 -114q-20 -6 -46 -6z" />
    <glyph glyph-name="H" unicode="H" 
d="M50 0v735h118v-307h164v307h118v-735h-118v322h-164v-322h-118z" />
    <glyph glyph-name="I" unicode="I" 
d="M75 0v106h116v523h-116v106h350v-106h-116v-523h116v-106h-350z" />
    <glyph glyph-name="J" unicode="J" 
d="M225 -8q-38 0 -74.5 12t-63 40t-39 64.5t-12.5 74.5h117q0 -21 7.5 -41t25.5 -32t39 -12q19 0 35 10t24.5 26.5t11.5 35t3 36.5v423h-116v106h234v-529q0 -33 -6 -65t-22 -61t-41.5 -50t-57.5 -29.5t-65 -8.5z" />
    <glyph glyph-name="K" unicode="K" 
d="M66 0v735h117v-299l155 299h130l-187 -335l187 -400h-128l-128 275l-29 -51v-224h-117z" />
    <glyph glyph-name="L" unicode="L" 
d="M75 0v735h118v-629h265v-106h-383z" />
    <glyph glyph-name="M" unicode="M" 
d="M31 0v735h101l118 -398l118 398h101v-735h-118v147q0 48 2 96.5t8 96.5t13 96l2 10q14 92 19 145l-110 -370h-70l-110 370q5 -53 19 -145l2 -10q7 -48 13 -96t8 -96.5t2 -96.5v-147h-118z" />
    <glyph glyph-name="N" unicode="N" 
d="M50 0v735h126l177 -553q-6 43 -11.5 86t-7.5 86.5t-2 86.5v294h118v-735h-126l-177 553q6 -43 11.5 -86t7.5 -86.5t2 -86.5v-294h-118z" />
    <glyph glyph-name="O" unicode="O" 
d="M250 -8q-42 0 -83.5 13t-71 44.5t-41.5 73t-12 83.5v323q0 42 12 83.5t41.5 73t71 44.5t83.5 13t83.5 -13t71 -44.5t41.5 -73t12 -83.5v-323q0 -42 -12 -83.5t-41.5 -73t-71 -44.5t-83.5 -13zM250 98q20 0 39 8t31 24.5t16 36t4 39.5v323q0 20 -4 39.5t-16 36t-31 24.5
t-39 8t-39 -8t-31 -24.5t-16 -36t-4 -39.5v-323q0 -20 4 -39.5t16 -36t31 -24.5t39 -8z" />
    <glyph glyph-name="P" unicode="P" 
d="M63 0v735h177q37 0 73 -8.5t67 -30t51 -53.5t27.5 -68.5t7.5 -73.5t-7.5 -73.5t-27.5 -68t-51 -53t-67 -30t-73 -8.5h-60v-268h-117zM180 374h60q24 0 46.5 9t37 28.5t19.5 43t5 47t-5 47t-19.5 43t-37 28.5t-46.5 9h-60v-255z" />
    <glyph glyph-name="Q" unicode="Q" 
d="M367 -155q-31 0 -62.5 8t-56 29t-36 51.5t-11.5 62.5q-36 6 -68 24t-53.5 48.5t-29.5 66t-8 71.5v323q0 42 12 83.5t41.5 73t71 44.5t83.5 13t83.5 -13t71 -44.5t41.5 -73t12 -83.5v-323q0 -45 -13.5 -89t-48 -75t-78.5 -42q0 -13 6 -25.5t18 -18t25 -5.5h53v-106h-53z
M250 98q20 0 39 8t31 24.5t16 36t4 39.5v323q0 20 -4 39.5t-16 36t-31 24.5t-39 8t-39 -8t-31 -24.5t-16 -36t-4 -39.5v-323q0 -20 4 -39.5t16 -36t31 -24.5t39 -8z" />
    <glyph glyph-name="R" unicode="R" 
d="M50 0v735h190q36 0 71.5 -9t65 -31t48.5 -53.5t26 -67.5t7 -73q0 -44 -11.5 -88t-42 -78.5t-71.5 -51.5l145 -283h-126l-138 268h-46v-268h-118zM168 374h72q23 0 44 10t34 29.5t17.5 42t4.5 45.5t-4.5 46t-17.5 42.5t-34 29.5t-44 10h-72v-255z" />
    <glyph glyph-name="S" unicode="S" 
d="M248 -8q-39 0 -77 11.5t-66.5 39t-42.5 65t-14 76.5h118q0 -22 9.5 -43t30 -32t42.5 -11q18 0 35 7t28.5 21.5t16.5 32t5 35.5q0 39 -28 70t-63.5 48t-70 37t-62.5 48t-44 65t-16 77t14 79t42 69.5t67 43t80 12.5q39 0 77 -11.5t66.5 -39t42.5 -65t14 -76.5h-118
q0 22 -9.5 43t-30 32t-42.5 11q-18 0 -35 -7t-28.5 -21.5t-16.5 -32t-5 -35.5q0 -39 28 -70t63.5 -48t70 -37t62.5 -48t44 -65t16 -77t-14 -79t-42 -69.5t-67 -43t-80 -12.5z" />
    <glyph glyph-name="T" unicode="T" 
d="M191 0v629h-153v106h424v-106h-153v-629h-118z" />
    <glyph glyph-name="U" unicode="U" 
d="M250 -8q-42 0 -82 13.5t-68 45.5t-39 72.5t-11 82.5v529h118v-529q0 -19 3.5 -38t14 -36t28 -25.5t36.5 -8.5t36.5 8.5t28 25.5t14 36t3.5 38v529h118v-529q0 -42 -11 -82.5t-39 -72.5t-68 -45.5t-82 -13.5z" />
    <glyph glyph-name="V" unicode="V" 
d="M182 0l-140 735h118l66 -348q17 -91 24 -146q7 55 24 146l66 348h118l-140 -735h-136z" />
    <glyph glyph-name="W" unicode="W" 
d="M103 0l-88 735h118l24 -540l43 467h100l43 -467l24 540h118l-88 -735h-99l-48 517l-48 -517h-99z" />
    <glyph glyph-name="X" unicode="X" 
d="M33 0l164 368l-164 367h119l98 -239l98 239h119l-164 -367l164 -368h-119l-98 239l-98 -239h-119z" />
    <glyph glyph-name="Y" unicode="Y" 
d="M191 0v311l-161 424h119l101 -291l101 291h119l-161 -424v-311h-118z" />
    <glyph glyph-name="Z" unicode="Z" 
d="M50 0v106l265 523h-265v106h400v-106l-265 -523h265v-106h-400z" />
    <glyph glyph-name="bracketleft" unicode="[" 
d="M90 -143v966h340v-106h-222v-754h222v-106h-340z" />
    <glyph glyph-name="backslash" unicode="\" 
d="M337 -143l-294 966h120l294 -966h-120z" />
    <glyph glyph-name="bracketright" unicode="]" 
d="M70 -143v106h222v754h-222v106h340v-966h-340z" />
    <glyph glyph-name="asciicircum" unicode="^" 
d="M112 521l-97 70l173 199h124l173 -199l-97 -70l-138 186z" />
    <glyph glyph-name="underscore" unicode="_" 
d="M50 0v106h400v-106h-400z" />
    <glyph glyph-name="grave" unicode="`" 
d="M290 517l-219 205l92 83l202 -221z" />
    <glyph glyph-name="a" unicode="a" 
d="M189 -8q-31 0 -61 11t-50 35.5t-28 55.5t-8 62q0 33 10.5 64.5t34.5 54.5t54.5 36t63 18t65.5 5h62v26q0 21 -11 39.5t-31 25.5t-41 7q-19 0 -38 -5.5t-31.5 -21.5t-12.5 -36h-118q0 37 15.5 71.5t45.5 57.5t66 31.5t73 8.5q30 0 60.5 -5.5t57.5 -20t47 -38.5t28 -54
t8 -60v-360h-118v74q-42 -82 -143 -82zM237 98q17 0 34.5 4t32.5 15t21.5 28t6.5 35v48h-62q-18 0 -36.5 -2.5t-35.5 -10.5t-27.5 -23.5t-10.5 -34t11 -34t29 -20.5t37 -5z" />
    <glyph glyph-name="b" unicode="b" 
d="M299 -8q-93 0 -131 86v-78h-118v735h118v-283q38 86 131 86q29 0 57.5 -10t49 -32t32 -49.5t16 -57t4.5 -59.5v-130q0 -30 -4.5 -59.5t-16 -57t-32 -49.5t-49 -32t-57.5 -10zM251 98q19 0 37.5 7t30.5 22.5t16.5 34.5t4.5 38v130q0 19 -4.5 38t-16.5 34.5t-30.5 22.5
t-37.5 7t-36.5 -7.5t-28 -23.5t-14.5 -34t-4 -37v-130q0 -19 4 -37t14.5 -34t28 -23.5t36.5 -7.5z" />
    <glyph glyph-name="c" unicode="c" 
d="M248 -8q-34 0 -66.5 7.5t-60.5 26.5t-46.5 47t-25.5 61t-7 66v130q0 33 7 66t25.5 61t46.5 47t60.5 26.5t66.5 7.5q39 0 77 -10.5t67.5 -36.5t44.5 -63t15 -76h-118q0 22 -11 42t-32 29t-43 9q-19 0 -37.5 -7t-30 -22.5t-16 -34.5t-4.5 -38v-130q0 -19 4.5 -38t16 -34.5
t30 -22.5t37.5 -7q22 0 43 9t32 29t11 42h118q0 -49 -24 -94t-69 -67.5t-94 -24.5h-17z" />
    <glyph glyph-name="d" unicode="d" 
d="M201 -8q-29 0 -57.5 10t-49 32t-32 49.5t-16 57t-4.5 59.5v130q0 30 4.5 59.5t16 57t32 49.5t49 32t57.5 10q93 0 131 -86v283h118v-735h-118v78q-38 -86 -131 -86zM249 98q19 0 36.5 7.5t28 23.5t14.5 34t4 37v130q0 19 -4 37t-14.5 34t-28 23.5t-36.5 7.5t-37.5 -7
t-30.5 -22.5t-16.5 -34.5t-4.5 -38v-130q0 -19 4.5 -38t16.5 -34.5t30.5 -22.5t37.5 -7z" />
    <glyph glyph-name="e" unicode="e" 
d="M252 -8q-33 0 -66.5 7t-62 26t-47.5 47t-26.5 61t-7.5 67v130q0 42 12 82.5t42.5 71t71 42.5t82.5 12t82.5 -12t71 -42.5t42.5 -71t12 -82.5v-118h-298v-12q0 -20 4.5 -39t17.5 -34.5t32 -22t38 -6.5t37.5 4.5t33 19t15.5 32.5h118q-2 -36 -19 -69t-47 -55t-65.5 -30
t-72.5 -8zM160 318h180v12q0 19 -4.5 38t-17 34.5t-31 22.5t-37.5 7t-37.5 -7t-31 -22.5t-17 -34.5t-4.5 -38v-12z" />
    <glyph glyph-name="f" unicode="f" 
d="M161 0v403h-111v106h111v77q0 34 8 66.5t30 58.5t54 37t66 11q30 0 60 -8.5t52.5 -30t33 -51t10.5 -60.5v-8h-118v3q0 11 -3.5 22.5t-13 19t-21.5 7.5q-41 0 -41 -67v-77h152v-106h-152v-403h-117z" />
    <glyph glyph-name="g" unicode="g" 
d="M246 -213q-36 0 -71.5 8.5t-64 31t-44.5 56t-18 69.5h118q1 -19 13.5 -33.5t30.5 -20t36 -5.5q19 0 37 7.5t29.5 23t15.5 34t4 37.5v83q-38 -86 -131 -86q-29 0 -57.5 10t-49 32t-32 49.5t-16 57t-4.5 59.5v130q0 30 4.5 59.5t16 57t32 49.5t49 32t57.5 10q93 0 131 -86
v78h118v-535q0 -33 -7 -65.5t-25 -61t-46 -47.5t-60.5 -26.5t-65.5 -7.5zM249 98q19 0 36.5 7.5t28 23.5t14.5 34t4 37v130q0 19 -4 37t-14.5 34t-28 23.5t-36.5 7.5t-37.5 -7t-30.5 -22.5t-16.5 -34.5t-4.5 -38v-130q0 -19 4.5 -38t16.5 -34.5t30.5 -22.5t37.5 -7z" />
    <glyph glyph-name="h" unicode="h" 
d="M50 0v735h118v-283q38 86 130 86q29 0 56.5 -10.5t47 -33t30 -50t14.5 -56.5t4 -58v-330h-118v330q0 19 -3.5 37t-14.5 34t-28 23.5t-36 7.5t-36 -7.5t-28 -23.5t-14.5 -34t-3.5 -37v-330h-118z" />
    <glyph glyph-name="i" unicode="i" 
d="M75 0v106h123v318h-109v106h227v-424h109v-106h-350zM250 607q-21 0 -41 8.5t-29 28.5t-9 41t9 41t29 29t41 9t41 -9t28.5 -29t8.5 -41t-8.5 -41t-28.5 -28.5t-41 -8.5z" />
    <glyph glyph-name="j" unicode="j" 
d="M293 607q-21 0 -41 8.5t-29 28.5t-9 41t9 41t29 29t41 9t41 -9t28.5 -29t8.5 -41t-8.5 -41t-28.5 -28.5t-41 -8.5zM184 -213q-36 0 -71.5 11.5t-61 38.5t-38 62t-13.5 71h118q0 -19 7 -37.5t23.5 -29t35.5 -10.5q18 0 33.5 10.5t23.5 27t10.5 34.5t2.5 36v423h-116v106
h234v-529q0 -32 -5.5 -64t-21 -61t-40.5 -50t-56.5 -30t-64.5 -9z" />
    <glyph glyph-name="k" unicode="k" 
d="M66 0v735h117v-428l149 223h137l-175 -243l175 -287h-134l-114 186l-38 -53v-133h-117z" />
    <glyph glyph-name="l" unicode="l" 
d="M75 0v106h123v523h-109v106h227v-629h109v-106h-350z" />
    <glyph glyph-name="m" unicode="m" 
d="M31 0v530h104v-43q24 51 74 51q63 0 84 -75q22 75 83 75q24 0 45 -14.5t31 -37.5t13.5 -47.5t3.5 -48.5v-390h-104v390q0 54 -32 54q-31 0 -31 -54v-390h-104v390q0 54 -31 54q-32 0 -32 -54v-390h-104z" />
    <glyph glyph-name="n" unicode="n" 
d="M50 0v530h118v-78q38 86 130 86q29 0 56.5 -10.5t47 -33t30 -50t14.5 -56.5t4 -58v-330h-118v330q0 19 -3.5 37t-14.5 34t-28 23.5t-36 7.5t-36 -7.5t-28 -23.5t-14.5 -34t-3.5 -37v-330h-118z" />
    <glyph glyph-name="o" unicode="o" 
d="M250 -8q-42 0 -82.5 12t-71 42.5t-42.5 71t-12 82.5v130q0 42 12 82.5t42.5 71t71 42.5t82.5 12t82.5 -12t71 -42.5t42.5 -71t12 -82.5v-130q0 -42 -12 -82.5t-42.5 -71t-71 -42.5t-82.5 -12zM250 98q19 0 37.5 7t31 22.5t17 34.5t4.5 38v130q0 19 -4.5 38t-17 34.5
t-31 22.5t-37.5 7t-37.5 -7t-31 -22.5t-17 -34.5t-4.5 -38v-130q0 -19 4.5 -38t17 -34.5t31 -22.5t37.5 -7z" />
    <glyph glyph-name="p" unicode="p" 
d="M50 -205v735h118v-78q38 86 131 86q29 0 57.5 -10t49 -32t32 -49.5t16 -57t4.5 -59.5v-130q0 -30 -4.5 -59.5t-16 -57t-32 -49.5t-49 -32t-57.5 -10q-93 0 -131 86v-283h-118zM251 98q19 0 37.5 7t30.5 22.5t16.5 34.5t4.5 38v130q0 19 -4.5 38t-16.5 34.5t-30.5 22.5
t-37.5 7t-36.5 -7.5t-28 -23.5t-14.5 -34t-4 -37v-130q0 -19 4 -37t14.5 -34t28 -23.5t36.5 -7.5z" />
    <glyph glyph-name="q" unicode="q" 
d="M332 -205v283q-38 -86 -131 -86q-29 0 -57.5 10t-49 32t-32 49.5t-16 57t-4.5 59.5v130q0 30 4.5 59.5t16 57t32 49.5t49 32t57.5 10q93 0 131 -86v78h118v-735h-118zM249 98q19 0 36.5 7.5t28 23.5t14.5 34t4 37v130q0 19 -4 37t-14.5 34t-28 23.5t-36.5 7.5t-37.5 -7
t-30.5 -22.5t-16.5 -34.5t-4.5 -38v-130q0 -19 4.5 -38t16.5 -34.5t30.5 -22.5t37.5 -7z" />
    <glyph glyph-name="r" unicode="r" 
d="M102 0v530h118v-113q35 121 130 121q28 0 54.5 -11.5t42.5 -36t21 -52.5t5 -56h-118q0 50 -51 50q-68 0 -82 -105q-2 -19 -2 -46v-281h-118z" />
    <glyph glyph-name="s" unicode="s" 
d="M249 -8q-36 0 -71 8t-64.5 29.5t-46 54.5t-17.5 69h118q0 -18 13.5 -32t31.5 -18.5t36 -4.5q19 0 37 3.5t33.5 16.5t15.5 32q0 33 -36 47t-68 18.5t-64 14.5t-59.5 29.5t-43 50t-15.5 63.5q0 37 16.5 71t46.5 56t66 30t73 8q36 0 71 -8t64.5 -29.5t46 -54.5t17.5 -69
h-118q0 18 -13.5 32t-31.5 18.5t-36 4.5q-19 0 -37 -3.5t-33.5 -16.5t-15.5 -32q0 -33 36 -47t68 -18.5t64 -14.5t59.5 -29.5t43 -50t15.5 -63.5q0 -37 -16.5 -71t-46.5 -56t-66 -30t-73 -8z" />
    <glyph glyph-name="t" unicode="t" 
d="M318 -8q-32 0 -63 9.5t-54 32t-36.5 52t-18.5 61t-5 63.5v214h-92v106h92v205h118v-205h140v-106h-140v-214q0 -24 3.5 -47t17.5 -44t38 -21q19 0 33.5 14t19 33t4.5 38v5h118v-11q0 -36 -11 -71t-35 -62.5t-58.5 -39.5t-70.5 -12z" />
    <glyph glyph-name="u" unicode="u" 
d="M202 -8q-29 0 -56.5 10.5t-47 33t-30 50t-14.5 56.5t-4 58v330h118v-330q0 -19 3.5 -37t14.5 -34t28 -23.5t36 -7.5t36 7.5t28 23.5t14.5 34t3.5 37v330h118v-530h-118v78q-38 -86 -130 -86z" />
    <glyph glyph-name="v" unicode="v" 
d="M182 0l-143 530h118l65 -238q20 -74 28 -118q8 44 28 118l65 238h118l-143 -530h-136z" />
    <glyph glyph-name="w" unicode="w" 
d="M103 0l-88 530h118l24 -390l43 337h100l43 -337l24 390h118l-88 -530h-99l-48 373l-48 -373h-99z" />
    <glyph glyph-name="x" unicode="x" 
d="M38 0l156 265l-156 265h119l93 -166l93 166h119l-156 -265l156 -265h-119l-93 166l-93 -166h-119z" />
    <glyph glyph-name="y" unicode="y" 
d="M121 -205q25 64 55 163l14 47l-163 525h126l99 -369l95 369h126l-185 -603l-24 -80l-16 -52h-127z" />
    <glyph glyph-name="z" unicode="z" 
d="M50 0v106l259 318h-259v106h400v-106l-259 -318h259v-106h-400z" />
    <glyph glyph-name="braceleft" unicode="{" 
d="M430 -153q-37 0 -73.5 4.5t-72 16t-66 32.5t-47 55t-16.5 71q0 25 6 49t16 46.5t21 45.5t11 47q0 59 -97 71q-17 2 -42 2v106q29 0 57.5 4t55 22t26.5 47q0 24 -11 47t-21 45.5t-16 46.5t-6 49q0 37 16.5 71t47 55t66 32.5t72 16t73.5 4.5v-106q-32 0 -63 -4t-62.5 -20.5
t-31.5 -48.5q0 -25 11 -47.5t21 -45t16 -47t6 -48.5q0 -80 -59 -126l2 -2q57 -46 57 -124q0 -24 -6 -48.5t-16 -47t-21 -45t-11 -47.5q0 -32 31.5 -48.5t62.5 -20.5t63 -4v-106z" />
    <glyph glyph-name="bar" unicode="|" 
d="M191 -143v966h118v-966h-118z" />
    <glyph glyph-name="braceright" unicode="}" 
d="M70 -153v106q32 0 63 4t62.5 20.5t31.5 48.5q0 25 -11 47.5t-21 45t-16 47t-6 48.5q0 80 59 126l-2 2q-57 46 -57 124q0 24 6 48.5t16 47t21 45t11 47.5q0 32 -31.5 48.5t-62.5 20.5t-63 4v106q37 0 73.5 -4.5t72 -16t66 -32.5t47 -55t16.5 -71q0 -25 -6 -49t-16 -46.5
t-21 -45.5t-11 -47q0 -29 26.5 -47t55 -22t57.5 -4v-106q-29 0 -57.5 -4t-55 -22t-26.5 -47q0 -24 11 -47t21 -45.5t16 -46.5t6 -49q0 -37 -16.5 -71t-47 -55t-66 -32.5t-72 -16t-73.5 -4.5z" />
    <glyph glyph-name="asciitilde" unicode="~" 
d="M327 207q-27 0 -50.5 13.5t-40.5 34t-31.5 43.5t-31.5 42q-31 -30 -72 -126l-102 39q19 45 40 83.5t55 73.5t79 35q27 0 50.5 -14t40.5 -34t31.5 -43t31.5 -42q31 30 72 126l102 -39q-19 -45 -40 -83.5t-55 -73.5t-79 -35z" />
    <glyph glyph-name="uni00A0" unicode="&#xa0;" 
 />
    <glyph glyph-name="exclamdown" unicode="&#xa1;" 
d="M250 365q-23 0 -45 10t-31.5 31.5t-9.5 45t9.5 45t31.5 31.5t45 10t45 -10t32 -31.5t10 -45t-10 -45t-32 -31.5t-45 -10zM191 -205v457h118v-457h-118z" />
    <glyph glyph-name="cent" unicode="&#xa2;" 
d="M191 -103v100q-34 7 -64 25t-50 47t-27.5 62.5t-7.5 68.5v130q0 35 7.5 68.5t27.5 62.5t50 47t64 25v100h118v-101q41 -9 75 -34.5t51 -64.5t17 -81h-118q0 46 -36 68q-2 1 -5 3v-316q41 21 41 71h118q0 -42 -17 -81t-51 -64.5t-75 -34.5v-101h-118zM207 106v318
q-47 -23 -47 -94v-130q0 -68 44 -92z" />
    <glyph glyph-name="sterling" unicode="&#xa3;" 
d="M50 0v106q30 19 50 50t25 67t5 72v53h-60v83h60v150q0 31 8 62t29.5 55.5t52 34.5t61.5 10q30 0 59.5 -9t51 -31t31 -51t9.5 -59v-8h-118v3q0 11 -2.5 22t-11 19t-19.5 8q-33 0 -33 -56v-150h82v-83h-82v-53q0 -33 -2 -65.5t-10.5 -64t-25.5 -59.5h240v-106h-400z" />
    <glyph glyph-name="currency" unicode="&#xa4;" 
d="M85 108l-70 64l68 68q-21 40 -21 100t21 100l-68 68l70 64l65 -65q40 21 100 21t100 -21l65 65l70 -64l-68 -68q21 -40 21 -100t-21 -100l68 -68l-70 -64l-65 65q-40 -21 -100 -21t-100 21zM250 241q19 0 37 6.5t30.5 21.5t17 33.5t4.5 37.5t-4.5 37.5t-17 33.5
t-30.5 21.5t-37 6.5t-37 -6.5t-30.5 -21.5t-17 -33.5t-4.5 -37.5t4.5 -37.5t17 -33.5t30.5 -21.5t37 -6.5z" />
    <glyph glyph-name="yen" unicode="&#xa5;" 
d="M191 0v142h-141v83h141v64h-141v83h118l-138 363h119l101 -291l101 291h119l-138 -363h118v-83h-141v-64h141v-83h-141v-142h-118z" />
    <glyph glyph-name="brokenbar" unicode="&#xa6;" 
d="M191 393v430h118v-430h-118zM191 -143v430h118v-430h-118z" />
    <glyph glyph-name="section" unicode="&#xa7;" 
d="M248 -143q-38 0 -75 10t-66.5 36t-44 62t-14.5 74h118q0 -21 10.5 -40t30.5 -27.5t41 -8.5q23 0 43.5 10t31 31t10.5 43q0 37 -27.5 64.5t-62.5 39t-69.5 24.5t-63 36.5t-44.5 57.5t-16 71q0 79 60 138l3 3q-63 54 -63 146q0 40 13.5 78t42.5 66.5t67.5 40t78.5 11.5
q39 0 77.5 -11t67.5 -38t43 -64.5t14 -76.5v-4h-118v2q0 22 -9.5 43.5t-30.5 32t-44 10.5q-22 0 -43 -10t-31.5 -31t-10.5 -43q0 -37 27.5 -64.5t62.5 -39t69.5 -24.5t63 -36.5t44.5 -57.5t16 -71q0 -39 -17 -76.5t-46 -64.5q63 -54 63 -146q0 -40 -13.5 -78t-42.5 -66.5
t-67.5 -40t-78.5 -11.5zM264 251q28 10 48 35t20 54q0 24 -14.5 44t-36.5 29.5t-45 15.5q-28 -10 -48 -35t-20 -54q0 -24 14.5 -44t36.5 -29.5t45 -15.5z" />
    <glyph glyph-name="dieresis" unicode="&#xa8;" 
d="M350 610q-20 0 -39 8.5t-27.5 27.5t-8.5 39t8.5 39t27.5 27.5t39 8.5t39 -8.5t27.5 -27.5t8.5 -39t-8.5 -39t-27.5 -27.5t-39 -8.5zM150 610q-20 0 -39 8.5t-27.5 27.5t-8.5 39t8.5 39t27.5 27.5t39 8.5t39 -8.5t27.5 -27.5t8.5 -39t-8.5 -39t-27.5 -27.5t-39 -8.5z" />
    <glyph glyph-name="copyright" unicode="&#xa9;" 
d="M249 133q-23 0 -45.5 7t-39 24.5t-22.5 40t-6 45.5v178q0 23 6 45.5t22.5 40t39 25t45.5 7.5q29 0 56 -12t41.5 -38.5t14.5 -55.5h-73q0 10 -4.5 20t-14.5 15t-20 5q-40 0 -40 -52v-178q0 -51 40 -51q10 0 20 4.5t14.5 14.5t4.5 21h73q0 -28 -12.5 -53.5t-37.5 -38.5
t-53 -14h-9zM250 1q-35 0 -70.5 6.5t-66.5 24t-53.5 45.5t-32 62.5t-9.5 69.5v262q0 35 9.5 69.5t32 62.5t53.5 45.5t66.5 24t70.5 6.5t70.5 -6.5t66.5 -24t53.5 -45.5t32 -62.5t9.5 -69.5v-262q0 -35 -9.5 -69.5t-32 -62.5t-53.5 -45.5t-66.5 -24t-70.5 -6.5zM250 67
q30 0 60 7.5t54 27t34.5 48.5t10.5 59v262q0 30 -10.5 59t-34.5 48.5t-54 27t-60 7.5t-60 -7.5t-54 -27t-34.5 -48.5t-10.5 -59v-262q0 -30 10.5 -59t34.5 -48.5t54 -27t60 -7.5z" />
    <glyph glyph-name="ordfeminine" unicode="&#xaa;" 
d="M209 358q-24 0 -47.5 6.5t-41.5 23t-25.5 39.5t-7.5 47.5t9.5 48t29 39t43 24t48 11.5t49.5 3h55v16q0 16 -12 28t-28 15.5t-32 3.5t-31.5 -4t-27 -15.5t-12.5 -27.5h-86q0 38 23 70t60 43.5t74 11.5q29 0 57 -6t52.5 -21.5t37 -42t12.5 -55.5v-252h-87l-1 50
q-33 -56 -111 -56zM243 436q18 0 35.5 4.5t30 18t12.5 31.5v32h-55q-19 0 -38 -3t-36.5 -14t-17.5 -30q0 -39 69 -39zM110 221v74h280v-74h-280z" />
    <glyph glyph-name="guillemotleft" unicode="&#xab;" 
d="M394 80q-65 156 -175 215v90q110 59 175 215l90 -37q-33 -65 -79 -123t-106 -100q60 -42 106 -100t79 -123zM195 80q-65 156 -175 215v90q110 59 175 215l90 -37q-33 -65 -79 -123t-106 -100q60 -42 106 -100t79 -123z" />
    <glyph glyph-name="logicalnot" unicode="&#xac;" 
d="M339 120v170h-289v100h400v-270h-111z" />
    <glyph glyph-name="uni00AD" unicode="&#xad;" 
d="M50 287v106h400v-106h-400z" />
    <glyph glyph-name="registered" unicode="&#xae;" 
d="M140 137v404h101q26 0 50.5 -8.5t42 -28t24 -44.5t6.5 -51q0 -91 -64 -121l75 -151h-77l-70 140h-15v-140h-73zM213 343h28q16 0 29 9.5t17 25t4 31.5t-4 31.5t-17 25t-29 9.5h-28v-132zM250 1q-35 0 -70.5 6.5t-66.5 24t-53.5 45.5t-32 62.5t-9.5 69.5v262
q0 35 9.5 69.5t32 62.5t53.5 45.5t66.5 24t70.5 6.5t70.5 -6.5t66.5 -24t53.5 -45.5t32 -62.5t9.5 -69.5v-262q0 -35 -9.5 -69.5t-32 -62.5t-53.5 -45.5t-66.5 -24t-70.5 -6.5zM250 67q30 0 60 7.5t54 27t34.5 48.5t10.5 59v262q0 30 -10.5 59t-34.5 48.5t-54 27t-60 7.5
t-60 -7.5t-54 -27t-34.5 -48.5t-10.5 -59v-262q0 -30 10.5 -59t34.5 -48.5t54 -27t60 -7.5z" />
    <glyph glyph-name="macron" unicode="&#xaf;" 
d="M100 639v92h300v-92h-300z" />
    <glyph glyph-name="degree" unicode="&#xb0;" 
d="M250 497q-29 0 -58 8.5t-50 30t-29.5 50t-8.5 58t8.5 58t29.5 49.5t50 30t58 9t58 -9t50 -30t29.5 -49.5t8.5 -58t-8.5 -58t-29.5 -50t-50 -30t-58 -8.5zM250 594q50 0 50 49.5t-50 49.5t-50 -49.5t50 -49.5z" />
    <glyph glyph-name="plusminus" unicode="&#xb1;" 
d="M195 132v158h-145v100h145v158h110v-158h145v-100h-145v-158h-110zM50 0v100h400v-100h-400z" />
    <glyph glyph-name="uni00B2" unicode="&#xb2;" 
d="M390 298l-280 1q0 31 3 62t14 60.5t29.5 55t41.5 46.5t48.5 39.5t42.5 45.5t17 59q0 17 -4.5 34t-19 28t-32.5 11q-15 0 -28.5 -7t-20 -21t-6.5 -28h-86q0 27 10 53.5t30 45.5t47 27t54 8q30 0 58.5 -9.5t48.5 -32t28 -51.5t8 -58q0 -36 -15 -69.5t-42 -57.5t-55.5 -46.5
t-49 -52.5t-28.5 -65h187v-78z" />
    <glyph glyph-name="uni00B3" unicode="&#xb3;" 
d="M251 292q-28 0 -55.5 7.5t-49 26.5t-32.5 45.5t-11 55.5h87q0 -16 8 -30t23 -20.5t30 -6.5q18 0 33.5 8.5t23 24.5t7.5 34q0 27 -17.5 49.5t-44 28.5t-53.5 6v78q25 0 49 6.5t39.5 28t15.5 45.5q0 15 -5.5 29.5t-18.5 23t-28 8.5q-14 0 -27 -7t-18.5 -20t-5.5 -27h-87
q0 26 9.5 52t29 45t46 27t53.5 8t54 -8.5t46.5 -28.5t28.5 -46.5t9 -54.5q0 -24 -8 -47t-24.5 -41.5t-38.5 -29.5q24 -11 43.5 -30t29 -44.5t9.5 -51.5q0 -29 -10.5 -57t-31.5 -49t-49.5 -29.5t-58.5 -8.5z" />
    <glyph glyph-name="acute" unicode="&#xb4;" 
d="M210 517l-75 67l202 221l92 -83z" />
    <glyph glyph-name="mu" unicode="&#xb5;" 
d="M50 -205v735h118v-330q0 -19 3.5 -37t14.5 -34t28 -23.5t36 -7.5t36 7.5t28 23.5t14.5 34t3.5 37v330h118v-530h-118v78q-38 -86 -130 -86q-20 0 -37 4l-3 1v-5q6 -39 6 -95v-102h-118z" />
    <glyph glyph-name="paragraph" unicode="&#xb6;" 
d="M359 0v735h96v-735h-96zM224 0v324q-39 0 -75.5 15t-61 45.5t-33.5 68.5t-9 76.5t9 76.5t33.5 68.5t61 45.5t75.5 15h96v-735h-96zM224 411v237q-27 0 -48 -19t-28 -45.5t-7 -53.5q0 -26 6 -51t24.5 -44.5t43.5 -23.5h9z" />
    <glyph glyph-name="periodcentered" unicode="&#xb7;" 
d="M250 242q-20 0 -39 6t-33 20t-20 33t-6 39t6 39t20 33t33 20t39 6t39 -6t33 -20t20 -33t6 -39t-6 -39t-20 -33t-33 -20t-39 -6z" />
    <glyph glyph-name="cedilla" unicode="&#xb8;" 
d="M150 -214v80h100q19 0 19 17t-19 17h-44v100h88v-26q64 -20 64 -91q0 -21 -7 -40.5t-23.5 -33t-36.5 -18.5t-41 -5h-100z" />
    <glyph glyph-name="uni00B9" unicode="&#xb9;" 
d="M228 298v431l-73 -57l-44 49l117 92h86v-515h-86z" />
    <glyph glyph-name="ordmasculine" unicode="&#xba;" 
d="M250 358q-31 0 -61.5 7.5t-55 28t-35.5 50t-11 60.5v91q0 31 11 60.5t35.5 50t55 28t61.5 7.5t61.5 -7.5t55 -28t35.5 -50t11 -60.5v-91q0 -31 -11 -60.5t-35.5 -50t-55 -28t-61.5 -7.5zM110 221v74h280v-74h-280zM250 436q19 0 38 7t28.5 24.5t9.5 36.5v91
q0 19 -9.5 36.5t-28.5 24.5t-38 7t-38 -7t-28.5 -24.5t-9.5 -36.5v-91q0 -19 9.5 -36.5t28.5 -24.5t38 -7z" />
    <glyph glyph-name="guillemotright" unicode="&#xbb;" 
d="M106 80l-90 37q33 65 79 123t106 100q-60 42 -106 100t-79 123l90 37q65 -156 175 -215v-90q-71 -38 -125 -119q-29 -46 -50 -96zM305 80l-90 37q33 65 79 123t106 100q-60 42 -106 100t-79 123l90 37q65 -156 175 -215v-90q-71 -38 -125 -119q-29 -46 -50 -96z" />
    <glyph glyph-name="onequarter" unicode="&#xbc;" 
d="M251 -170v90h-129v71l113 243h95v-243h44v-71h-44v-90h-79zM192 -9h59v126zM227 446v325l-46 -38l-41 44l87 73h79v-404h-79zM50 301v78h400v-78h-400z" />
    <glyph glyph-name="onehalf" unicode="&#xbd;" 
d="M374 -170h-248q0 25 2.5 50.5t12 49t25 43t35 35.5t41.5 29t38.5 33.5t16.5 45.5q0 51 -47 51q-11 0 -22 -4t-17 -13.5t-6 -20.5h-80q1 31 17.5 58.5t46.5 39t61 11.5q25 0 49.5 -7t43 -24.5t26 -41.5t7.5 -49q0 -28 -12 -54t-33.5 -44t-45.5 -33t-43 -36t-28 -48h160
v-71zM227 446v325l-46 -38l-41 44l87 73h79v-404h-79zM50 301v78h400v-78h-400z" />
    <glyph glyph-name="threequarters" unicode="&#xbe;" 
d="M251 -170v90h-129v71l113 243h95v-243h44v-71h-44v-90h-79zM192 -9h59v126zM251 442q-32 0 -63 11t-49 39.5t-18 60.5h79q0 -12 8 -22.5t19.5 -14t23.5 -3.5q13 0 25 4t19.5 15t7.5 24q0 19 -13.5 35t-32.5 20.5t-39 4.5v72q18 0 35.5 4.5t29 19.5t11.5 33
q0 11 -5.5 20.5t-16 13.5t-21.5 4q-10 0 -20 -3.5t-16 -13t-6 -19.5h-79q0 30 16 57.5t45.5 39t59.5 11.5q31 0 60.5 -11.5t46 -39t16.5 -58.5q0 -28 -15 -53.5t-39 -39.5h1q27 -14 44.5 -41t17.5 -57q0 -33 -18.5 -61.5t-49.5 -40t-64 -11.5zM50 301v78h400v-78h-400z" />
    <glyph glyph-name="questiondown" unicode="&#xbf;" 
d="M250 365q-23 0 -45 10t-31.5 31.5t-9.5 45t9.5 45t31.5 31.5t45 10t45 -10t32 -31.5t10 -45t-10 -45t-32 -31.5t-45 -10zM251 -213q-38 0 -75.5 10t-67 35.5t-44 62t-14.5 74.5q0 31 9.5 60t25.5 54.5t35 49t37.5 48t26 54t7.5 60.5l118 -1q0 -30 -4 -60.5t-18.5 -57.5
t-34 -50.5t-38.5 -47t-33 -51.5t-14 -59q0 -21 11 -40.5t31.5 -27t41.5 -7.5t41 8t31 27t11 40v1h118v-3q0 -38 -15 -74t-44 -61t-66.5 -34.5t-75.5 -9.5z" />
    <glyph glyph-name="Agrave" unicode="&#xc0;" 
d="M42 0l140 735h136l140 -735h-118l-30 159h-120l-30 -159h-118zM210 265h80l-16 83q-17 91 -24 146q-7 -55 -24 -146zM267 761l-158 153l82 70l143 -166z" />
    <glyph glyph-name="Aacute" unicode="&#xc1;" 
d="M42 0l140 735h136l140 -735h-118l-30 159h-120l-30 -159h-118zM210 265h80l-16 83q-17 91 -24 146q-7 -55 -24 -146zM233 761l-67 57l143 166l82 -70z" />
    <glyph glyph-name="Acircumflex" unicode="&#xc2;" 
d="M142 766l-86 65l138 147h112l138 -147l-86 -65l-108 139zM42 0l140 735h136l140 -735h-118l-30 159h-120l-30 -159h-118zM210 265h80l-16 83q-17 91 -24 146q-7 -55 -24 -146z" />
    <glyph glyph-name="Atilde" unicode="&#xc3;" 
d="M42 0l140 735h136l140 -735h-118l-30 159h-120l-30 -159h-118zM210 265h80l-16 83q-17 91 -24 146q-7 -55 -24 -146zM307 786q-25 0 -47 13.5t-37 34.5t-30 39q-20 -25 -46 -82l-94 38q16 34 33 64t44.5 55t62.5 25q25 0 47 -13.5t37 -34.5t30 -39q20 25 46 82l94 -38
q-16 -34 -33 -64t-44.5 -55t-62.5 -25z" />
    <glyph glyph-name="Adieresis" unicode="&#xc4;" 
d="M350 815q-20 0 -39 8.5t-27.5 27.5t-8.5 39t8.5 39t27.5 27.5t39 8.5t39 -8.5t27.5 -27.5t8.5 -39t-8.5 -39t-27.5 -27.5t-39 -8.5zM150 815q-20 0 -39 8.5t-27.5 27.5t-8.5 39t8.5 39t27.5 27.5t39 8.5t39 -8.5t27.5 -27.5t8.5 -39t-8.5 -39t-27.5 -27.5t-39 -8.5zM42 0
l140 735h136l140 -735h-118l-30 159h-120l-30 -159h-118zM210 265h80l-16 83q-17 91 -24 146q-7 -55 -24 -146z" />
    <glyph glyph-name="Aring" unicode="&#xc5;" 
d="M250 749q-22 0 -43.5 6.5t-37.5 22.5t-22.5 37.5t-6.5 43.5t6.5 43.5t22.5 37.5t37.5 22t43.5 6t43.5 -6t37.5 -22t22.5 -37.5t6.5 -43.5t-6.5 -43.5t-22.5 -37.5t-37.5 -22.5t-43.5 -6.5zM250 822q37 0 37 37t-37 37t-37 -37t37 -37zM42 0l140 735h136l140 -735h-118
l-30 159h-120l-30 -159h-118zM210 265h80l-16 83q-17 91 -24 146q-7 -55 -24 -146z" />
    <glyph glyph-name="AE" unicode="&#xc6;" 
d="M31 0v74q0 200 143 661h295v-106h-138v-179h114v-106h-114v-238h138v-106h-242v171h-86q-6 -56 -6 -97v-74h-104zM154 265h73v345q-51 -205 -73 -345z" />
    <glyph glyph-name="Ccedilla" unicode="&#xc7;" 
d="M150 -214v80h100q19 0 19 17t-19 17h-44v100h88v-26q64 -20 64 -91q0 -21 -7 -40.5t-23.5 -33t-36.5 -18.5t-41 -5h-100zM248 -8q-34 0 -67 8t-61 28t-46 49t-25 62t-7 67v323q0 34 7 67t25 62t46 49t61 28t67 8q39 0 77.5 -10.5t68 -37.5t44 -64.5t14.5 -76.5h-118
q0 22 -10.5 43t-32 30.5t-43.5 9.5q-20 0 -38.5 -8t-30 -24.5t-15.5 -36t-4 -39.5v-323q0 -20 4 -39.5t15.5 -36t30 -24.5t38.5 -8q22 0 43.5 9.5t32 30.5t10.5 43h118q0 -37 -13 -72.5t-39.5 -62.5t-62 -39.5t-72.5 -14.5h-17z" />
    <glyph glyph-name="Egrave" unicode="&#xc8;" 
d="M75 0v735h375v-106h-257v-179h197v-106h-197v-238h257v-106h-375zM267 761l-158 153l82 70l143 -166z" />
    <glyph glyph-name="Eacute" unicode="&#xc9;" 
d="M75 0v735h375v-106h-257v-179h197v-106h-197v-238h257v-106h-375zM233 761l-67 57l143 166l82 -70z" />
    <glyph glyph-name="Ecircumflex" unicode="&#xca;" 
d="M142 766l-86 65l138 147h112l138 -147l-86 -65l-108 139zM75 0v735h375v-106h-257v-179h197v-106h-197v-238h257v-106h-375z" />
    <glyph glyph-name="Edieresis" unicode="&#xcb;" 
d="M350 815q-20 0 -39 8.5t-27.5 27.5t-8.5 39t8.5 39t27.5 27.5t39 8.5t39 -8.5t27.5 -27.5t8.5 -39t-8.5 -39t-27.5 -27.5t-39 -8.5zM150 815q-20 0 -39 8.5t-27.5 27.5t-8.5 39t8.5 39t27.5 27.5t39 8.5t39 -8.5t27.5 -27.5t8.5 -39t-8.5 -39t-27.5 -27.5t-39 -8.5zM75 0
v735h375v-106h-257v-179h197v-106h-197v-238h257v-106h-375z" />
    <glyph glyph-name="Igrave" unicode="&#xcc;" 
d="M267 761l-158 153l82 70l143 -166zM75 0v106h116v523h-116v106h350v-106h-116v-523h116v-106h-350z" />
    <glyph glyph-name="Iacute" unicode="&#xcd;" 
d="M233 761l-67 57l143 166l82 -70zM75 0v106h116v523h-116v106h350v-106h-116v-523h116v-106h-350z" />
    <glyph glyph-name="Icircumflex" unicode="&#xce;" 
d="M142 766l-86 65l138 147h112l138 -147l-86 -65l-108 139zM75 0v106h116v523h-116v106h350v-106h-116v-523h116v-106h-350z" />
    <glyph glyph-name="Idieresis" unicode="&#xcf;" 
d="M350 815q-20 0 -39 8.5t-27.5 27.5t-8.5 39t8.5 39t27.5 27.5t39 8.5t39 -8.5t27.5 -27.5t8.5 -39t-8.5 -39t-27.5 -27.5t-39 -8.5zM150 815q-20 0 -39 8.5t-27.5 27.5t-8.5 39t8.5 39t27.5 27.5t39 8.5t39 -8.5t27.5 -27.5t8.5 -39t-8.5 -39t-27.5 -27.5t-39 -8.5zM75 0
v106h116v523h-116v106h350v-106h-116v-523h116v-106h-350z" />
    <glyph glyph-name="Eth" unicode="&#xd0;" 
d="M50 0v341h-35v83h35v311h173q42 0 82 -12t71 -40t49.5 -65.5t25.5 -78.5t7 -82v-179q0 -41 -7 -82t-25.5 -78.5t-49.5 -65.5t-71 -40t-82 -12h-173zM168 106h55q24 0 45.5 9.5t36 29t22.5 41.5t10.5 45.5t2.5 46.5v179q0 23 -2.5 46.5t-10.5 45.5t-22.5 41.5t-36 29
t-45.5 9.5h-55v-205h91v-83h-91v-235z" />
    <glyph glyph-name="Ntilde" unicode="&#xd1;" 
d="M307 786q-25 0 -47 13.5t-37 34.5t-30 39q-20 -25 -46 -82l-94 38q16 34 33 64t44.5 55t62.5 25q25 0 47 -13.5t37 -34.5t30 -39q20 25 46 82l94 -38q-16 -34 -33 -64t-44.5 -55t-62.5 -25zM50 0v735h126l177 -553q-6 43 -11.5 86t-7.5 86.5t-2 86.5v294h118v-735h-126
l-177 553q6 -43 11.5 -86t7.5 -86.5t2 -86.5v-294h-118z" />
    <glyph glyph-name="Ograve" unicode="&#xd2;" 
d="M267 761l-158 153l82 70l143 -166zM250 -8q-42 0 -83.5 13t-71 44.5t-41.5 73t-12 83.5v323q0 42 12 83.5t41.5 73t71 44.5t83.5 13t83.5 -13t71 -44.5t41.5 -73t12 -83.5v-323q0 -42 -12 -83.5t-41.5 -73t-71 -44.5t-83.5 -13zM250 98q20 0 39 8t31 24.5t16 36t4 39.5
v323q0 20 -4 39.5t-16 36t-31 24.5t-39 8t-39 -8t-31 -24.5t-16 -36t-4 -39.5v-323q0 -20 4 -39.5t16 -36t31 -24.5t39 -8z" />
    <glyph glyph-name="Oacute" unicode="&#xd3;" 
d="M233 761l-67 57l143 166l82 -70zM250 -8q-42 0 -83.5 13t-71 44.5t-41.5 73t-12 83.5v323q0 42 12 83.5t41.5 73t71 44.5t83.5 13t83.5 -13t71 -44.5t41.5 -73t12 -83.5v-323q0 -42 -12 -83.5t-41.5 -73t-71 -44.5t-83.5 -13zM250 98q20 0 39 8t31 24.5t16 36t4 39.5v323
q0 20 -4 39.5t-16 36t-31 24.5t-39 8t-39 -8t-31 -24.5t-16 -36t-4 -39.5v-323q0 -20 4 -39.5t16 -36t31 -24.5t39 -8z" />
    <glyph glyph-name="Ocircumflex" unicode="&#xd4;" 
d="M142 766l-86 65l138 147h112l138 -147l-86 -65l-108 139zM250 -8q-42 0 -83.5 13t-71 44.5t-41.5 73t-12 83.5v323q0 42 12 83.5t41.5 73t71 44.5t83.5 13t83.5 -13t71 -44.5t41.5 -73t12 -83.5v-323q0 -42 -12 -83.5t-41.5 -73t-71 -44.5t-83.5 -13zM250 98q20 0 39 8
t31 24.5t16 36t4 39.5v323q0 20 -4 39.5t-16 36t-31 24.5t-39 8t-39 -8t-31 -24.5t-16 -36t-4 -39.5v-323q0 -20 4 -39.5t16 -36t31 -24.5t39 -8z" />
    <glyph glyph-name="Otilde" unicode="&#xd5;" 
d="M307 786q-25 0 -47 13.5t-37 34.5t-30 39q-20 -25 -46 -82l-94 38q16 34 33 64t44.5 55t62.5 25q25 0 47 -13.5t37 -34.5t30 -39q20 25 46 82l94 -38q-16 -34 -33 -64t-44.5 -55t-62.5 -25zM250 -8q-42 0 -83.5 13t-71 44.5t-41.5 73t-12 83.5v323q0 42 12 83.5t41.5 73
t71 44.5t83.5 13t83.5 -13t71 -44.5t41.5 -73t12 -83.5v-323q0 -42 -12 -83.5t-41.5 -73t-71 -44.5t-83.5 -13zM250 98q20 0 39 8t31 24.5t16 36t4 39.5v323q0 20 -4 39.5t-16 36t-31 24.5t-39 8t-39 -8t-31 -24.5t-16 -36t-4 -39.5v-323q0 -20 4 -39.5t16 -36t31 -24.5
t39 -8z" />
    <glyph glyph-name="Odieresis" unicode="&#xd6;" 
d="M350 815q-20 0 -39 8.5t-27.5 27.5t-8.5 39t8.5 39t27.5 27.5t39 8.5t39 -8.5t27.5 -27.5t8.5 -39t-8.5 -39t-27.5 -27.5t-39 -8.5zM150 815q-20 0 -39 8.5t-27.5 27.5t-8.5 39t8.5 39t27.5 27.5t39 8.5t39 -8.5t27.5 -27.5t8.5 -39t-8.5 -39t-27.5 -27.5t-39 -8.5z
M250 -8q-42 0 -83.5 13t-71 44.5t-41.5 73t-12 83.5v323q0 42 12 83.5t41.5 73t71 44.5t83.5 13t83.5 -13t71 -44.5t41.5 -73t12 -83.5v-323q0 -42 -12 -83.5t-41.5 -73t-71 -44.5t-83.5 -13zM250 98q20 0 39 8t31 24.5t16 36t4 39.5v323q0 20 -4 39.5t-16 36t-31 24.5
t-39 8t-39 -8t-31 -24.5t-16 -36t-4 -39.5v-323q0 -20 4 -39.5t16 -36t31 -24.5t39 -8z" />
    <glyph glyph-name="multiply" unicode="&#xd7;" 
d="M411 105l-400 400l78 70l400 -400zM89 105l-78 70l400 400l78 -70z" />
    <glyph glyph-name="Oslash" unicode="&#xd8;" 
d="M126 -53l-85 32l37 91q-36 53 -36 136v323q0 42 12 83.5t41.5 73t71 44.5t83.5 13q57 0 98 -18l26 63l85 -32l-37 -91q36 -53 36 -136v-323q0 -42 -12 -83.5t-41.5 -73t-71 -44.5t-83.5 -13q-57 0 -98 18zM250 98q20 0 39 8t31 24.5t16 36t4 39.5v261l-145 -352
q22 -17 55 -17zM160 268l145 352q-22 17 -55 17q-20 0 -39 -8t-31 -24.5t-16 -36t-4 -39.5v-261z" />
    <glyph glyph-name="Ugrave" unicode="&#xd9;" 
d="M267 761l-158 153l82 70l143 -166zM250 -8q-42 0 -82 13.5t-68 45.5t-39 72.5t-11 82.5v529h118v-529q0 -19 3.5 -38t14 -36t28 -25.5t36.5 -8.5t36.5 8.5t28 25.5t14 36t3.5 38v529h118v-529q0 -42 -11 -82.5t-39 -72.5t-68 -45.5t-82 -13.5z" />
    <glyph glyph-name="Uacute" unicode="&#xda;" 
d="M233 761l-67 57l143 166l82 -70zM250 -8q-42 0 -82 13.5t-68 45.5t-39 72.5t-11 82.5v529h118v-529q0 -19 3.5 -38t14 -36t28 -25.5t36.5 -8.5t36.5 8.5t28 25.5t14 36t3.5 38v529h118v-529q0 -42 -11 -82.5t-39 -72.5t-68 -45.5t-82 -13.5z" />
    <glyph glyph-name="Ucircumflex" unicode="&#xdb;" 
d="M142 766l-86 65l138 147h112l138 -147l-86 -65l-108 139zM250 -8q-42 0 -82 13.5t-68 45.5t-39 72.5t-11 82.5v529h118v-529q0 -19 3.5 -38t14 -36t28 -25.5t36.5 -8.5t36.5 8.5t28 25.5t14 36t3.5 38v529h118v-529q0 -42 -11 -82.5t-39 -72.5t-68 -45.5t-82 -13.5z" />
    <glyph glyph-name="Udieresis" unicode="&#xdc;" 
d="M350 815q-20 0 -39 8.5t-27.5 27.5t-8.5 39t8.5 39t27.5 27.5t39 8.5t39 -8.5t27.5 -27.5t8.5 -39t-8.5 -39t-27.5 -27.5t-39 -8.5zM150 815q-20 0 -39 8.5t-27.5 27.5t-8.5 39t8.5 39t27.5 27.5t39 8.5t39 -8.5t27.5 -27.5t8.5 -39t-8.5 -39t-27.5 -27.5t-39 -8.5z
M250 -8q-42 0 -82 13.5t-68 45.5t-39 72.5t-11 82.5v529h118v-529q0 -19 3.5 -38t14 -36t28 -25.5t36.5 -8.5t36.5 8.5t28 25.5t14 36t3.5 38v529h118v-529q0 -42 -11 -82.5t-39 -72.5t-68 -45.5t-82 -13.5z" />
    <glyph glyph-name="Yacute" unicode="&#xdd;" 
d="M233 761l-67 57l143 166l82 -70zM191 0v311l-161 424h119l101 -291l101 291h119l-161 -424v-311h-118z" />
    <glyph glyph-name="Thorn" unicode="&#xde;" 
d="M63 0v735h117v-140h42q37 0 74 -7.5t69 -27.5t54 -51t30.5 -67.5t8.5 -74t-8.5 -74t-30.5 -67.5t-54 -51t-69 -27.5t-74 -7.5h-42v-140h-117zM180 246h42q24 0 47.5 7t40.5 25t23.5 41.5t6.5 48t-6.5 48t-23.5 41.5t-40.5 25t-47.5 7h-42v-243z" />
    <glyph glyph-name="germandbls" unicode="&#xdf;" 
d="M50 0v530q0 33 6 65t22 61t42 49.5t58 29t64 8.5q39 0 76.5 -12.5t64.5 -41.5t39 -66.5t12 -76.5q0 -95 -62 -162l-1 -2q87 -55 87 -172q0 -36 -10.5 -72t-35 -64t-57.5 -44.5t-69 -23t-73 -6.5h-1v106h1q24 0 46.5 5t42 18.5t29 35.5t9.5 45.5t-9.5 45t-29 35.5t-42 19
t-46.5 5v106q30 0 55 18.5t36.5 47t11.5 58.5q0 22 -7 43.5t-25.5 35t-41.5 13.5q-18 0 -34.5 -9.5t-25 -26t-11.5 -35t-3 -36.5v-530h-118z" />
    <glyph glyph-name="agrave" unicode="&#xe0;" 
d="M267 556l-158 153l82 70l143 -166zM189 -8q-31 0 -61 11t-50 35.5t-28 55.5t-8 62q0 33 10.5 64.5t34.5 54.5t54.5 36t63 18t65.5 5h62v26q0 21 -11 39.5t-31 25.5t-41 7q-19 0 -38 -5.5t-31.5 -21.5t-12.5 -36h-118q0 37 15.5 71.5t45.5 57.5t66 31.5t73 8.5
q30 0 60.5 -5.5t57.5 -20t47 -38.5t28 -54t8 -60v-360h-118v74q-42 -82 -143 -82zM237 98q17 0 34.5 4t32.5 15t21.5 28t6.5 35v48h-62q-18 0 -36.5 -2.5t-35.5 -10.5t-27.5 -23.5t-10.5 -34t11 -34t29 -20.5t37 -5z" />
    <glyph glyph-name="aacute" unicode="&#xe1;" 
d="M233 556l-67 57l143 166l82 -70zM189 -8q-31 0 -61 11t-50 35.5t-28 55.5t-8 62q0 33 10.5 64.5t34.5 54.5t54.5 36t63 18t65.5 5h62v26q0 21 -11 39.5t-31 25.5t-41 7q-19 0 -38 -5.5t-31.5 -21.5t-12.5 -36h-118q0 37 15.5 71.5t45.5 57.5t66 31.5t73 8.5
q30 0 60.5 -5.5t57.5 -20t47 -38.5t28 -54t8 -60v-360h-118v74q-42 -82 -143 -82zM237 98q17 0 34.5 4t32.5 15t21.5 28t6.5 35v48h-62q-18 0 -36.5 -2.5t-35.5 -10.5t-27.5 -23.5t-10.5 -34t11 -34t29 -20.5t37 -5z" />
    <glyph glyph-name="acircumflex" unicode="&#xe2;" 
d="M142 561l-86 65l138 147h112l138 -147l-86 -65l-108 139zM189 -8q-31 0 -61 11t-50 35.5t-28 55.5t-8 62q0 33 10.5 64.5t34.5 54.5t54.5 36t63 18t65.5 5h62v26q0 21 -11 39.5t-31 25.5t-41 7q-19 0 -38 -5.5t-31.5 -21.5t-12.5 -36h-118q0 37 15.5 71.5t45.5 57.5
t66 31.5t73 8.5q30 0 60.5 -5.5t57.5 -20t47 -38.5t28 -54t8 -60v-360h-118v74q-42 -82 -143 -82zM237 98q17 0 34.5 4t32.5 15t21.5 28t6.5 35v48h-62q-18 0 -36.5 -2.5t-35.5 -10.5t-27.5 -23.5t-10.5 -34t11 -34t29 -20.5t37 -5z" />
    <glyph glyph-name="atilde" unicode="&#xe3;" 
d="M307 581q-25 0 -47 13.5t-37 34.5t-30 39q-20 -25 -46 -82l-94 38q16 34 33 64t44.5 55t62.5 25q25 0 47 -13.5t37 -34.5t30 -39q20 25 46 82l94 -38q-16 -34 -33 -64t-44.5 -55t-62.5 -25zM189 -8q-31 0 -61 11t-50 35.5t-28 55.5t-8 62q0 33 10.5 64.5t34.5 54.5
t54.5 36t63 18t65.5 5h62v26q0 21 -11 39.5t-31 25.5t-41 7q-19 0 -38 -5.5t-31.5 -21.5t-12.5 -36h-118q0 37 15.5 71.5t45.5 57.5t66 31.5t73 8.5q30 0 60.5 -5.5t57.5 -20t47 -38.5t28 -54t8 -60v-360h-118v74q-42 -82 -143 -82zM237 98q17 0 34.5 4t32.5 15t21.5 28
t6.5 35v48h-62q-18 0 -36.5 -2.5t-35.5 -10.5t-27.5 -23.5t-10.5 -34t11 -34t29 -20.5t37 -5z" />
    <glyph glyph-name="adieresis" unicode="&#xe4;" 
d="M350 610q-20 0 -39 8.5t-27.5 27.5t-8.5 39t8.5 39t27.5 27.5t39 8.5t39 -8.5t27.5 -27.5t8.5 -39t-8.5 -39t-27.5 -27.5t-39 -8.5zM150 610q-20 0 -39 8.5t-27.5 27.5t-8.5 39t8.5 39t27.5 27.5t39 8.5t39 -8.5t27.5 -27.5t8.5 -39t-8.5 -39t-27.5 -27.5t-39 -8.5z
M189 -8q-31 0 -61 11t-50 35.5t-28 55.5t-8 62q0 33 10.5 64.5t34.5 54.5t54.5 36t63 18t65.5 5h62v26q0 21 -11 39.5t-31 25.5t-41 7q-19 0 -38 -5.5t-31.5 -21.5t-12.5 -36h-118q0 37 15.5 71.5t45.5 57.5t66 31.5t73 8.5q30 0 60.5 -5.5t57.5 -20t47 -38.5t28 -54t8 -60
v-360h-118v74q-42 -82 -143 -82zM237 98q17 0 34.5 4t32.5 15t21.5 28t6.5 35v48h-62q-18 0 -36.5 -2.5t-35.5 -10.5t-27.5 -23.5t-10.5 -34t11 -34t29 -20.5t37 -5z" />
    <glyph glyph-name="aring" unicode="&#xe5;" 
d="M250 544q-22 0 -43.5 6.5t-37.5 22.5t-22.5 37.5t-6.5 43.5t6.5 43.5t22.5 37.5t37.5 22t43.5 6t43.5 -6t37.5 -22t22.5 -37.5t6.5 -43.5t-6.5 -43.5t-22.5 -37.5t-37.5 -22.5t-43.5 -6.5zM250 617q37 0 37 37t-37 37t-37 -37t37 -37zM189 -8q-31 0 -61 11t-50 35.5
t-28 55.5t-8 62q0 33 10.5 64.5t34.5 54.5t54.5 36t63 18t65.5 5h62v26q0 21 -11 39.5t-31 25.5t-41 7q-19 0 -38 -5.5t-31.5 -21.5t-12.5 -36h-118q0 37 15.5 71.5t45.5 57.5t66 31.5t73 8.5q30 0 60.5 -5.5t57.5 -20t47 -38.5t28 -54t8 -60v-360h-118v74q-42 -82 -143 -82
zM237 98q17 0 34.5 4t32.5 15t21.5 28t6.5 35v48h-62q-18 0 -36.5 -2.5t-35.5 -10.5t-27.5 -23.5t-10.5 -34t11 -34t29 -20.5t37 -5z" />
    <glyph glyph-name="ae" unicode="&#xe6;" 
d="M163 -8q-31 0 -60.5 10t-50 33.5t-29 53t-8.5 60.5q0 36 11 70t37 59.5t60 38t69 15.5v78q0 24 -27 24q-28 0 -28 -47v-3h-116v9q0 28 9 56t29.5 49.5t48.5 30.5t57 9q52 0 86 -19q34 19 87 19q28 0 55 -6.5t49.5 -24t32.5 -43.5t10 -54v-197h-177v-93q0 -24 31 -24
q11 0 19 8t10.5 18.5t2.5 20.5v3h116v-8q0 -29 -9.5 -57.5t-30.5 -50t-49.5 -30t-58.5 -8.5q-54 0 -89 20q-35 -20 -87 -20zM308 317h61v93q0 24 -31 24q-30 0 -30 -24v-93zM163 96q29 0 29 24v106q-61 -15 -61 -78q0 -52 32 -52z" />
    <glyph glyph-name="ccedilla" unicode="&#xe7;" 
d="M150 -214v80h100q19 0 19 17t-19 17h-44v100h88v-26q64 -20 64 -91q0 -21 -7 -40.5t-23.5 -33t-36.5 -18.5t-41 -5h-100zM248 -8q-34 0 -66.5 7.5t-60.5 26.5t-46.5 47t-25.5 61t-7 66v130q0 33 7 66t25.5 61t46.5 47t60.5 26.5t66.5 7.5q39 0 77 -10.5t67.5 -36.5
t44.5 -63t15 -76h-118q0 22 -11 42t-32 29t-43 9q-19 0 -37.5 -7t-30 -22.5t-16 -34.5t-4.5 -38v-130q0 -19 4.5 -38t16 -34.5t30 -22.5t37.5 -7q22 0 43 9t32 29t11 42h118q0 -49 -24 -94t-69 -67.5t-94 -24.5h-17z" />
    <glyph glyph-name="egrave" unicode="&#xe8;" 
d="M267 556l-158 153l82 70l143 -166zM252 -8q-33 0 -66.5 7t-62 26t-47.5 47t-26.5 61t-7.5 67v130q0 42 12 82.5t42.5 71t71 42.5t82.5 12t82.5 -12t71 -42.5t42.5 -71t12 -82.5v-118h-298v-12q0 -20 4.5 -39t17.5 -34.5t32 -22t38 -6.5t37.5 4.5t33 19t15.5 32.5h118
q-2 -36 -19 -69t-47 -55t-65.5 -30t-72.5 -8zM160 318h180v12q0 19 -4.5 38t-17 34.5t-31 22.5t-37.5 7t-37.5 -7t-31 -22.5t-17 -34.5t-4.5 -38v-12z" />
    <glyph glyph-name="eacute" unicode="&#xe9;" 
d="M233 556l-67 57l143 166l82 -70zM252 -8q-33 0 -66.5 7t-62 26t-47.5 47t-26.5 61t-7.5 67v130q0 42 12 82.5t42.5 71t71 42.5t82.5 12t82.5 -12t71 -42.5t42.5 -71t12 -82.5v-118h-298v-12q0 -20 4.5 -39t17.5 -34.5t32 -22t38 -6.5t37.5 4.5t33 19t15.5 32.5h118
q-2 -36 -19 -69t-47 -55t-65.5 -30t-72.5 -8zM160 318h180v12q0 19 -4.5 38t-17 34.5t-31 22.5t-37.5 7t-37.5 -7t-31 -22.5t-17 -34.5t-4.5 -38v-12z" />
    <glyph glyph-name="ecircumflex" unicode="&#xea;" 
d="M142 561l-86 65l138 147h112l138 -147l-86 -65l-108 139zM252 -8q-33 0 -66.5 7t-62 26t-47.5 47t-26.5 61t-7.5 67v130q0 42 12 82.5t42.5 71t71 42.5t82.5 12t82.5 -12t71 -42.5t42.5 -71t12 -82.5v-118h-298v-12q0 -20 4.5 -39t17.5 -34.5t32 -22t38 -6.5t37.5 4.5
t33 19t15.5 32.5h118q-2 -36 -19 -69t-47 -55t-65.5 -30t-72.5 -8zM160 318h180v12q0 19 -4.5 38t-17 34.5t-31 22.5t-37.5 7t-37.5 -7t-31 -22.5t-17 -34.5t-4.5 -38v-12z" />
    <glyph glyph-name="edieresis" unicode="&#xeb;" 
d="M350 610q-20 0 -39 8.5t-27.5 27.5t-8.5 39t8.5 39t27.5 27.5t39 8.5t39 -8.5t27.5 -27.5t8.5 -39t-8.5 -39t-27.5 -27.5t-39 -8.5zM150 610q-20 0 -39 8.5t-27.5 27.5t-8.5 39t8.5 39t27.5 27.5t39 8.5t39 -8.5t27.5 -27.5t8.5 -39t-8.5 -39t-27.5 -27.5t-39 -8.5z
M252 -8q-33 0 -66.5 7t-62 26t-47.5 47t-26.5 61t-7.5 67v130q0 42 12 82.5t42.5 71t71 42.5t82.5 12t82.5 -12t71 -42.5t42.5 -71t12 -82.5v-118h-298v-12q0 -20 4.5 -39t17.5 -34.5t32 -22t38 -6.5t37.5 4.5t33 19t15.5 32.5h118q-2 -36 -19 -69t-47 -55t-65.5 -30
t-72.5 -8zM160 318h180v12q0 19 -4.5 38t-17 34.5t-31 22.5t-37.5 7t-37.5 -7t-31 -22.5t-17 -34.5t-4.5 -38v-12z" />
    <glyph glyph-name="igrave" unicode="&#xec;" 
d="M75 0v106h123v318h-109v106h227v-424h109v-106h-350zM267 556l-158 153l82 70l143 -166z" />
    <glyph glyph-name="iacute" unicode="&#xed;" 
d="M75 0v106h123v318h-109v106h227v-424h109v-106h-350zM233 556l-67 57l143 166l82 -70z" />
    <glyph glyph-name="icircumflex" unicode="&#xee;" 
d="M142 561l-86 65l138 147h112l138 -147l-86 -65l-108 139zM75 0v106h123v318h-109v106h227v-424h109v-106h-350z" />
    <glyph glyph-name="idieresis" unicode="&#xef;" 
d="M350 610q-20 0 -39 8.5t-27.5 27.5t-8.5 39t8.5 39t27.5 27.5t39 8.5t39 -8.5t27.5 -27.5t8.5 -39t-8.5 -39t-27.5 -27.5t-39 -8.5zM150 610q-20 0 -39 8.5t-27.5 27.5t-8.5 39t8.5 39t27.5 27.5t39 8.5t39 -8.5t27.5 -27.5t8.5 -39t-8.5 -39t-27.5 -27.5t-39 -8.5zM75 0
v106h123v318h-109v106h227v-424h109v-106h-350z" />
    <glyph glyph-name="eth" unicode="&#xf0;" 
d="M250 -8q-42 0 -82.5 12t-71 42.5t-42.5 71t-12 82.5v41q0 42 12 82.5t42.5 71t71 42.5t82.5 12q30 0 54 -4l3 -1q-12 35 -29 64l-2 3l-175 -42l-22 81l137 33q-38 33 -86 51l37 101q106 -34 177 -121l75 18l22 -81l-48 -11q56 -108 64 -265q1 -13 1 -34v-41
q0 -42 -12 -82.5t-42.5 -71t-71 -42.5t-82.5 -12zM250 98q19 0 37.5 7t31 22.5t17 34.5t4.5 38v21q0 20 -1 39q-2 22 -13 42.5t-32 30.5t-44 10q-19 0 -37.5 -7t-31 -22.5t-17 -34.5t-4.5 -38v-41q0 -19 4.5 -38t17 -34.5t31 -22.5t37.5 -7z" />
    <glyph glyph-name="ntilde" unicode="&#xf1;" 
d="M307 581q-25 0 -47 13.5t-37 34.5t-30 39q-20 -25 -46 -82l-94 38q16 34 33 64t44.5 55t62.5 25q25 0 47 -13.5t37 -34.5t30 -39q20 25 46 82l94 -38q-16 -34 -33 -64t-44.5 -55t-62.5 -25zM50 0v530h118v-78q38 86 130 86q29 0 56.5 -10.5t47 -33t30 -50t14.5 -56.5
t4 -58v-330h-118v330q0 19 -3.5 37t-14.5 34t-28 23.5t-36 7.5t-36 -7.5t-28 -23.5t-14.5 -34t-3.5 -37v-330h-118z" />
    <glyph glyph-name="ograve" unicode="&#xf2;" 
d="M267 556l-158 153l82 70l143 -166zM250 -8q-42 0 -82.5 12t-71 42.5t-42.5 71t-12 82.5v130q0 42 12 82.5t42.5 71t71 42.5t82.5 12t82.5 -12t71 -42.5t42.5 -71t12 -82.5v-130q0 -42 -12 -82.5t-42.5 -71t-71 -42.5t-82.5 -12zM250 98q19 0 37.5 7t31 22.5t17 34.5
t4.5 38v130q0 19 -4.5 38t-17 34.5t-31 22.5t-37.5 7t-37.5 -7t-31 -22.5t-17 -34.5t-4.5 -38v-130q0 -19 4.5 -38t17 -34.5t31 -22.5t37.5 -7z" />
    <glyph glyph-name="oacute" unicode="&#xf3;" 
d="M233 556l-67 57l143 166l82 -70zM250 -8q-42 0 -82.5 12t-71 42.5t-42.5 71t-12 82.5v130q0 42 12 82.5t42.5 71t71 42.5t82.5 12t82.5 -12t71 -42.5t42.5 -71t12 -82.5v-130q0 -42 -12 -82.5t-42.5 -71t-71 -42.5t-82.5 -12zM250 98q19 0 37.5 7t31 22.5t17 34.5t4.5 38
v130q0 19 -4.5 38t-17 34.5t-31 22.5t-37.5 7t-37.5 -7t-31 -22.5t-17 -34.5t-4.5 -38v-130q0 -19 4.5 -38t17 -34.5t31 -22.5t37.5 -7z" />
    <glyph glyph-name="ocircumflex" unicode="&#xf4;" 
d="M142 561l-86 65l138 147h112l138 -147l-86 -65l-108 139zM250 -8q-42 0 -82.5 12t-71 42.5t-42.5 71t-12 82.5v130q0 42 12 82.5t42.5 71t71 42.5t82.5 12t82.5 -12t71 -42.5t42.5 -71t12 -82.5v-130q0 -42 -12 -82.5t-42.5 -71t-71 -42.5t-82.5 -12zM250 98q19 0 37.5 7
t31 22.5t17 34.5t4.5 38v130q0 19 -4.5 38t-17 34.5t-31 22.5t-37.5 7t-37.5 -7t-31 -22.5t-17 -34.5t-4.5 -38v-130q0 -19 4.5 -38t17 -34.5t31 -22.5t37.5 -7z" />
    <glyph glyph-name="otilde" unicode="&#xf5;" 
d="M307 581q-25 0 -47 13.5t-37 34.5t-30 39q-20 -25 -46 -82l-94 38q16 34 33 64t44.5 55t62.5 25q25 0 47 -13.5t37 -34.5t30 -39q20 25 46 82l94 -38q-16 -34 -33 -64t-44.5 -55t-62.5 -25zM250 -8q-42 0 -82.5 12t-71 42.5t-42.5 71t-12 82.5v130q0 42 12 82.5t42.5 71
t71 42.5t82.5 12t82.5 -12t71 -42.5t42.5 -71t12 -82.5v-130q0 -42 -12 -82.5t-42.5 -71t-71 -42.5t-82.5 -12zM250 98q19 0 37.5 7t31 22.5t17 34.5t4.5 38v130q0 19 -4.5 38t-17 34.5t-31 22.5t-37.5 7t-37.5 -7t-31 -22.5t-17 -34.5t-4.5 -38v-130q0 -19 4.5 -38
t17 -34.5t31 -22.5t37.5 -7z" />
    <glyph glyph-name="odieresis" unicode="&#xf6;" 
d="M350 610q-20 0 -39 8.5t-27.5 27.5t-8.5 39t8.5 39t27.5 27.5t39 8.5t39 -8.5t27.5 -27.5t8.5 -39t-8.5 -39t-27.5 -27.5t-39 -8.5zM150 610q-20 0 -39 8.5t-27.5 27.5t-8.5 39t8.5 39t27.5 27.5t39 8.5t39 -8.5t27.5 -27.5t8.5 -39t-8.5 -39t-27.5 -27.5t-39 -8.5z
M250 -8q-42 0 -82.5 12t-71 42.5t-42.5 71t-12 82.5v130q0 42 12 82.5t42.5 71t71 42.5t82.5 12t82.5 -12t71 -42.5t42.5 -71t12 -82.5v-130q0 -42 -12 -82.5t-42.5 -71t-71 -42.5t-82.5 -12zM250 98q19 0 37.5 7t31 22.5t17 34.5t4.5 38v130q0 19 -4.5 38t-17 34.5
t-31 22.5t-37.5 7t-37.5 -7t-31 -22.5t-17 -34.5t-4.5 -38v-130q0 -19 4.5 -38t17 -34.5t31 -22.5t37.5 -7z" />
    <glyph glyph-name="divide" unicode="&#xf7;" 
d="M250 462q-22 0 -43.5 8t-32 28t-10.5 42t10.5 42t32 28.5t43.5 8.5t43.5 -8.5t32.5 -28.5t11 -42t-11 -42t-32.5 -28t-43.5 -8zM50 290v100h400v-100h-400zM250 62q-22 0 -43.5 8t-32 28t-10.5 42t10.5 42t32 28.5t43.5 8.5t43.5 -8.5t32.5 -28.5t11 -42t-11 -42
t-32.5 -28t-43.5 -8z" />
    <glyph glyph-name="oslash" unicode="&#xf8;" 
d="M124 -47l-81 41l40 69q-41 52 -41 137v130q0 42 12 82.5t42.5 71t71 42.5t82.5 12q55 0 95 -16l31 55l81 -41l-40 -69q41 -52 41 -137v-130q0 -42 -12 -82.5t-42.5 -71t-71 -42.5t-82.5 -12q-55 0 -95 16zM250 98q19 0 37.5 7t31 22.5t17 34.5t4.5 38v132l-129 -227
q16 -7 39 -7zM160 198l129 227q-16 7 -39 7q-19 0 -37.5 -7t-31 -22.5t-17 -34.5t-4.5 -38v-132z" />
    <glyph glyph-name="ugrave" unicode="&#xf9;" 
d="M267 556l-158 153l82 70l143 -166zM202 -8q-29 0 -56.5 10.5t-47 33t-30 50t-14.5 56.5t-4 58v330h118v-330q0 -19 3.5 -37t14.5 -34t28 -23.5t36 -7.5t36 7.5t28 23.5t14.5 34t3.5 37v330h118v-530h-118v78q-38 -86 -130 -86z" />
    <glyph glyph-name="uacute" unicode="&#xfa;" 
d="M233 556l-67 57l143 166l82 -70zM202 -8q-29 0 -56.5 10.5t-47 33t-30 50t-14.5 56.5t-4 58v330h118v-330q0 -19 3.5 -37t14.5 -34t28 -23.5t36 -7.5t36 7.5t28 23.5t14.5 34t3.5 37v330h118v-530h-118v78q-38 -86 -130 -86z" />
    <glyph glyph-name="ucircumflex" unicode="&#xfb;" 
d="M142 561l-86 65l138 147h112l138 -147l-86 -65l-108 139zM202 -8q-29 0 -56.5 10.5t-47 33t-30 50t-14.5 56.5t-4 58v330h118v-330q0 -19 3.5 -37t14.5 -34t28 -23.5t36 -7.5t36 7.5t28 23.5t14.5 34t3.5 37v330h118v-530h-118v78q-38 -86 -130 -86z" />
    <glyph glyph-name="udieresis" unicode="&#xfc;" 
d="M350 610q-20 0 -39 8.5t-27.5 27.5t-8.5 39t8.5 39t27.5 27.5t39 8.5t39 -8.5t27.5 -27.5t8.5 -39t-8.5 -39t-27.5 -27.5t-39 -8.5zM150 610q-20 0 -39 8.5t-27.5 27.5t-8.5 39t8.5 39t27.5 27.5t39 8.5t39 -8.5t27.5 -27.5t8.5 -39t-8.5 -39t-27.5 -27.5t-39 -8.5z
M202 -8q-29 0 -56.5 10.5t-47 33t-30 50t-14.5 56.5t-4 58v330h118v-330q0 -19 3.5 -37t14.5 -34t28 -23.5t36 -7.5t36 7.5t28 23.5t14.5 34t3.5 37v330h118v-530h-118v78q-38 -86 -130 -86z" />
    <glyph glyph-name="yacute" unicode="&#xfd;" 
d="M233 556l-67 57l143 166l82 -70zM121 -205q25 64 55 163l14 47l-163 525h126l99 -369l95 369h126l-185 -603l-24 -80l-16 -52h-127z" />
    <glyph glyph-name="thorn" unicode="&#xfe;" 
d="M299 -8q-93 0 -131 86v-78h-118v735h118v-283q38 86 131 86q29 0 57.5 -10t49 -32t32 -49.5t16 -57t4.5 -59.5v-130q0 -30 -4.5 -59.5t-16 -57t-32 -49.5t-49 -32t-57.5 -10zM251 98q19 0 37.5 7t30.5 22.5t16.5 34.5t4.5 38v130q0 19 -4.5 38t-16.5 34.5t-30.5 22.5
t-37.5 7t-36.5 -7.5t-28 -23.5t-14.5 -34t-4 -37v-130q0 -19 4 -37t14.5 -34t28 -23.5t36.5 -7.5zM50 -205v735h118v-735h-118z" />
    <glyph glyph-name="ydieresis" unicode="&#xff;" 
d="M350 610q-20 0 -39 8.5t-27.5 27.5t-8.5 39t8.5 39t27.5 27.5t39 8.5t39 -8.5t27.5 -27.5t8.5 -39t-8.5 -39t-27.5 -27.5t-39 -8.5zM150 610q-20 0 -39 8.5t-27.5 27.5t-8.5 39t8.5 39t27.5 27.5t39 8.5t39 -8.5t27.5 -27.5t8.5 -39t-8.5 -39t-27.5 -27.5t-39 -8.5z
M121 -205q25 64 55 163l14 47l-163 525h126l99 -369l95 369h126l-185 -603l-24 -80l-16 -52h-127z" />
    <glyph glyph-name="Amacron" unicode="&#x100;" 
d="M42 0l140 735h136l140 -735h-118l-30 159h-120l-30 -159h-118zM210 265h80l-16 83q-17 91 -24 146q-7 -55 -24 -146zM100 844v92h300v-92h-300z" />
    <glyph glyph-name="amacron" unicode="&#x101;" 
d="M100 639v92h300v-92h-300zM189 -8q-31 0 -61 11t-50 35.5t-28 55.5t-8 62q0 33 10.5 64.5t34.5 54.5t54.5 36t63 18t65.5 5h62v26q0 21 -11 39.5t-31 25.5t-41 7q-19 0 -38 -5.5t-31.5 -21.5t-12.5 -36h-118q0 37 15.5 71.5t45.5 57.5t66 31.5t73 8.5q30 0 60.5 -5.5
t57.5 -20t47 -38.5t28 -54t8 -60v-360h-118v74q-42 -82 -143 -82zM237 98q17 0 34.5 4t32.5 15t21.5 28t6.5 35v48h-62q-18 0 -36.5 -2.5t-35.5 -10.5t-27.5 -23.5t-10.5 -34t11 -34t29 -20.5t37 -5z" />
    <glyph glyph-name="Abreve" unicode="&#x102;" 
d="M42 0l140 735h136l140 -735h-118l-30 159h-120l-30 -159h-118zM210 265h80l-16 83q-17 91 -24 146q-7 -55 -24 -146zM250 789q-33 0 -65.5 9t-58.5 31.5t-36.5 54.5t-10.5 65h102q0 -18 8 -35t25.5 -24.5t35.5 -7.5t35.5 7.5t25.5 24.5t8 35h102q0 -36 -12.5 -70t-42 -56
t-64.5 -29q-23 -5 -52 -5z" />
    <glyph glyph-name="abreve" unicode="&#x103;" 
d="M250 584q-33 0 -65.5 9t-58.5 31.5t-36.5 54.5t-10.5 65h102q0 -18 8 -35t25.5 -24.5t35.5 -7.5t35.5 7.5t25.5 24.5t8 35h102q0 -36 -12.5 -70t-42 -56t-64.5 -29q-23 -5 -52 -5zM189 -8q-31 0 -61 11t-50 35.5t-28 55.5t-8 62q0 33 10.5 64.5t34.5 54.5t54.5 36t63 18
t65.5 5h62v26q0 21 -11 39.5t-31 25.5t-41 7q-19 0 -38 -5.5t-31.5 -21.5t-12.5 -36h-118q0 37 15.5 71.5t45.5 57.5t66 31.5t73 8.5q30 0 60.5 -5.5t57.5 -20t47 -38.5t28 -54t8 -60v-360h-118v74q-42 -82 -143 -82zM237 98q17 0 34.5 4t32.5 15t21.5 28t6.5 35v48h-62
q-18 0 -36.5 -2.5t-35.5 -10.5t-27.5 -23.5t-10.5 -34t11 -34t29 -20.5t37 -5z" />
    <glyph glyph-name="Aogonek" unicode="&#x104;" 
d="M426 -174q-35 0 -69.5 4.5t-62 29.5t-27.5 60q0 30 22.5 54t52.5 31.5t61 7.5v-21q-13 0 -24.5 -9t-11.5 -22q0 -33 58 -33h3h60v-102h-62zM42 0l140 735h136l140 -735h-118l-30 159h-120l-30 -159h-118zM210 265h80l-16 83q-17 91 -24 146q-7 -55 -24 -146z" />
    <glyph glyph-name="aogonek" unicode="&#x105;" 
d="M426 -174q-35 0 -69.5 4.5t-62 29.5t-27.5 60q0 30 22.5 54t52.5 31.5t61 7.5v-21q-13 0 -24.5 -9t-11.5 -22q0 -33 58 -33h3h60v-102h-62zM189 -8q-31 0 -61 11t-50 35.5t-28 55.5t-8 62q0 33 10.5 64.5t34.5 54.5t54.5 36t63 18t65.5 5h62v26q0 21 -11 39.5t-31 25.5
t-41 7q-19 0 -38 -5.5t-31.5 -21.5t-12.5 -36h-118q0 37 15.5 71.5t45.5 57.5t66 31.5t73 8.5q30 0 60.5 -5.5t57.5 -20t47 -38.5t28 -54t8 -60v-360h-118v74q-42 -82 -143 -82zM237 98q17 0 34.5 4t32.5 15t21.5 28t6.5 35v48h-62q-18 0 -36.5 -2.5t-35.5 -10.5
t-27.5 -23.5t-10.5 -34t11 -34t29 -20.5t37 -5z" />
    <glyph glyph-name="Cacute" unicode="&#x106;" 
d="M233 761l-67 57l143 166l82 -70zM248 -8q-34 0 -67 8t-61 28t-46 49t-25 62t-7 67v323q0 34 7 67t25 62t46 49t61 28t67 8q39 0 77.5 -10.5t68 -37.5t44 -64.5t14.5 -76.5h-118q0 22 -10.5 43t-32 30.5t-43.5 9.5q-20 0 -38.5 -8t-30 -24.5t-15.5 -36t-4 -39.5v-323
q0 -20 4 -39.5t15.5 -36t30 -24.5t38.5 -8q22 0 43.5 9.5t32 30.5t10.5 43h118q0 -37 -13 -72.5t-39.5 -62.5t-62 -39.5t-72.5 -14.5h-17z" />
    <glyph glyph-name="cacute" unicode="&#x107;" 
d="M233 556l-67 57l143 166l82 -70zM248 -8q-34 0 -66.5 7.5t-60.5 26.5t-46.5 47t-25.5 61t-7 66v130q0 33 7 66t25.5 61t46.5 47t60.5 26.5t66.5 7.5q39 0 77 -10.5t67.5 -36.5t44.5 -63t15 -76h-118q0 22 -11 42t-32 29t-43 9q-19 0 -37.5 -7t-30 -22.5t-16 -34.5
t-4.5 -38v-130q0 -19 4.5 -38t16 -34.5t30 -22.5t37.5 -7q22 0 43 9t32 29t11 42h118q0 -49 -24 -94t-69 -67.5t-94 -24.5h-17z" />
    <glyph glyph-name="Ccircumflex" unicode="&#x108;" 
d="M142 766l-86 65l138 147h112l138 -147l-86 -65l-108 139zM248 -8q-34 0 -67 8t-61 28t-46 49t-25 62t-7 67v323q0 34 7 67t25 62t46 49t61 28t67 8q39 0 77.5 -10.5t68 -37.5t44 -64.5t14.5 -76.5h-118q0 22 -10.5 43t-32 30.5t-43.5 9.5q-20 0 -38.5 -8t-30 -24.5
t-15.5 -36t-4 -39.5v-323q0 -20 4 -39.5t15.5 -36t30 -24.5t38.5 -8q22 0 43.5 9.5t32 30.5t10.5 43h118q0 -37 -13 -72.5t-39.5 -62.5t-62 -39.5t-72.5 -14.5h-17z" />
    <glyph glyph-name="ccircumflex" unicode="&#x109;" 
d="M142 561l-86 65l138 147h112l138 -147l-86 -65l-108 139zM248 -8q-34 0 -66.5 7.5t-60.5 26.5t-46.5 47t-25.5 61t-7 66v130q0 33 7 66t25.5 61t46.5 47t60.5 26.5t66.5 7.5q39 0 77 -10.5t67.5 -36.5t44.5 -63t15 -76h-118q0 22 -11 42t-32 29t-43 9q-19 0 -37.5 -7
t-30 -22.5t-16 -34.5t-4.5 -38v-130q0 -19 4.5 -38t16 -34.5t30 -22.5t37.5 -7q22 0 43 9t32 29t11 42h118q0 -49 -24 -94t-69 -67.5t-94 -24.5h-17z" />
    <glyph glyph-name="Cdotaccent" unicode="&#x10a;" 
d="M250 812q-21 0 -41 8.5t-29 28.5t-9 41t9 41t29 29t41 9t41 -9t28.5 -29t8.5 -41t-8.5 -41t-28.5 -28.5t-41 -8.5zM248 -8q-34 0 -67 8t-61 28t-46 49t-25 62t-7 67v323q0 34 7 67t25 62t46 49t61 28t67 8q39 0 77.5 -10.5t68 -37.5t44 -64.5t14.5 -76.5h-118
q0 22 -10.5 43t-32 30.5t-43.5 9.5q-20 0 -38.5 -8t-30 -24.5t-15.5 -36t-4 -39.5v-323q0 -20 4 -39.5t15.5 -36t30 -24.5t38.5 -8q22 0 43.5 9.5t32 30.5t10.5 43h118q0 -37 -13 -72.5t-39.5 -62.5t-62 -39.5t-72.5 -14.5h-17z" />
    <glyph glyph-name="cdotaccent" unicode="&#x10b;" 
d="M250 607q-21 0 -41 8.5t-29 28.5t-9 41t9 41t29 29t41 9t41 -9t28.5 -29t8.5 -41t-8.5 -41t-28.5 -28.5t-41 -8.5zM248 -8q-34 0 -66.5 7.5t-60.5 26.5t-46.5 47t-25.5 61t-7 66v130q0 33 7 66t25.5 61t46.5 47t60.5 26.5t66.5 7.5q39 0 77 -10.5t67.5 -36.5t44.5 -63
t15 -76h-118q0 22 -11 42t-32 29t-43 9q-19 0 -37.5 -7t-30 -22.5t-16 -34.5t-4.5 -38v-130q0 -19 4.5 -38t16 -34.5t30 -22.5t37.5 -7q22 0 43 9t32 29t11 42h118q0 -49 -24 -94t-69 -67.5t-94 -24.5h-17z" />
    <glyph glyph-name="Ccaron" unicode="&#x10c;" 
d="M194 769l-138 147l86 66l108 -140l108 140l86 -66l-138 -147h-112zM248 -8q-34 0 -67 8t-61 28t-46 49t-25 62t-7 67v323q0 34 7 67t25 62t46 49t61 28t67 8q39 0 77.5 -10.5t68 -37.5t44 -64.5t14.5 -76.5h-118q0 22 -10.5 43t-32 30.5t-43.5 9.5q-20 0 -38.5 -8
t-30 -24.5t-15.5 -36t-4 -39.5v-323q0 -20 4 -39.5t15.5 -36t30 -24.5t38.5 -8q22 0 43.5 9.5t32 30.5t10.5 43h118q0 -37 -13 -72.5t-39.5 -62.5t-62 -39.5t-72.5 -14.5h-17z" />
    <glyph glyph-name="ccaron" unicode="&#x10d;" 
d="M194 564l-138 147l86 66l108 -140l108 140l86 -66l-138 -147h-112zM248 -8q-34 0 -66.5 7.5t-60.5 26.5t-46.5 47t-25.5 61t-7 66v130q0 33 7 66t25.5 61t46.5 47t60.5 26.5t66.5 7.5q39 0 77 -10.5t67.5 -36.5t44.5 -63t15 -76h-118q0 22 -11 42t-32 29t-43 9
q-19 0 -37.5 -7t-30 -22.5t-16 -34.5t-4.5 -38v-130q0 -19 4.5 -38t16 -34.5t30 -22.5t37.5 -7q22 0 43 9t32 29t11 42h118q0 -49 -24 -94t-69 -67.5t-94 -24.5h-17z" />
    <glyph glyph-name="Dcaron" unicode="&#x10e;" 
d="M194 769l-138 147l86 66l108 -140l108 140l86 -66l-138 -147h-112zM50 0v735h173q42 0 82 -12t71 -40t49.5 -65.5t25.5 -78.5t7 -82v-179q0 -41 -7 -82t-25.5 -78.5t-49.5 -65.5t-71 -40t-82 -12h-173zM168 106h55q24 0 45.5 9.5t36 29t22.5 41.5t10.5 45.5t2.5 46.5v179
q0 23 -2.5 46.5t-10.5 45.5t-22.5 41.5t-36 29t-45.5 9.5h-55v-523z" />
    <glyph glyph-name="dcaron" unicode="&#x10f;" 
d="M488 541l-45 42q30 31 43 77q-44 7 -44 58q0 15 6.5 29.5t21 21.5t30.5 7t30.5 -7t21 -21t6.5 -30q0 -108 -70 -177zM188 -8q-29 0 -55.5 11.5t-45 34t-28.5 49.5t-13.5 55.5t-3.5 57.5v130q0 29 3.5 57.5t13.5 55.5t28.5 49.5t45 34t55.5 11.5q84 0 119 -85v282h118
v-735h-118v77q-35 -85 -119 -85zM237 98q17 0 32.5 9t24 25t11 33.5t2.5 34.5v130q0 17 -2.5 34.5t-11 33.5t-24 25t-32.5 9q-18 0 -34.5 -8.5t-26 -24t-13 -33.5t-3.5 -36v-130q0 -18 3.5 -36t13 -33.5t26 -24t34.5 -8.5z" />
    <glyph glyph-name="Dcroat" unicode="&#x110;" 
d="M50 0v341h-35v83h35v311h173q42 0 82 -12t71 -40t49.5 -65.5t25.5 -78.5t7 -82v-179q0 -41 -7 -82t-25.5 -78.5t-49.5 -65.5t-71 -40t-82 -12h-173zM168 106h55q24 0 45.5 9.5t36 29t22.5 41.5t10.5 45.5t2.5 46.5v179q0 23 -2.5 46.5t-10.5 45.5t-22.5 41.5t-36 29
t-45.5 9.5h-55v-205h91v-83h-91v-235z" />
    <glyph glyph-name="dcroat" unicode="&#x111;" 
d="M201 -8q-29 0 -57.5 10t-49 32t-32 49.5t-16 57t-4.5 59.5v130q0 30 4.5 59.5t16 57t32 49.5t49 32t57.5 10q93 0 131 -86v129h-82v83h82v71h118v-71h35v-83h-35v-581h-118v78q-38 -86 -131 -86zM249 98q19 0 36.5 7.5t28 23.5t14.5 34t4 37v130q0 19 -4 37t-14.5 34
t-28 23.5t-36.5 7.5t-37.5 -7t-30.5 -22.5t-16.5 -34.5t-4.5 -38v-130q0 -19 4.5 -38t16.5 -34.5t30.5 -22.5t37.5 -7z" />
    <glyph glyph-name="Emacron" unicode="&#x112;" 
d="M75 0v735h375v-106h-257v-179h197v-106h-197v-238h257v-106h-375zM100 844v92h300v-92h-300z" />
    <glyph glyph-name="emacron" unicode="&#x113;" 
d="M100 639v92h300v-92h-300zM252 -8q-33 0 -66.5 7t-62 26t-47.5 47t-26.5 61t-7.5 67v130q0 42 12 82.5t42.5 71t71 42.5t82.5 12t82.5 -12t71 -42.5t42.5 -71t12 -82.5v-118h-298v-12q0 -20 4.5 -39t17.5 -34.5t32 -22t38 -6.5t37.5 4.5t33 19t15.5 32.5h118
q-2 -36 -19 -69t-47 -55t-65.5 -30t-72.5 -8zM160 318h180v12q0 19 -4.5 38t-17 34.5t-31 22.5t-37.5 7t-37.5 -7t-31 -22.5t-17 -34.5t-4.5 -38v-12z" />
    <glyph glyph-name="Ebreve" unicode="&#x114;" 
d="M75 0v735h375v-106h-257v-179h197v-106h-197v-238h257v-106h-375zM250 789q-33 0 -65.5 9t-58.5 31.5t-36.5 54.5t-10.5 65h102q0 -18 8 -35t25.5 -24.5t35.5 -7.5t35.5 7.5t25.5 24.5t8 35h102q0 -36 -12.5 -70t-42 -56t-64.5 -29q-23 -5 -52 -5z" />
    <glyph glyph-name="ebreve" unicode="&#x115;" 
d="M250 584q-33 0 -65.5 9t-58.5 31.5t-36.5 54.5t-10.5 65h102q0 -18 8 -35t25.5 -24.5t35.5 -7.5t35.5 7.5t25.5 24.5t8 35h102q0 -36 -12.5 -70t-42 -56t-64.5 -29q-23 -5 -52 -5zM252 -8q-33 0 -66.5 7t-62 26t-47.5 47t-26.5 61t-7.5 67v130q0 42 12 82.5t42.5 71
t71 42.5t82.5 12t82.5 -12t71 -42.5t42.5 -71t12 -82.5v-118h-298v-12q0 -20 4.5 -39t17.5 -34.5t32 -22t38 -6.5t37.5 4.5t33 19t15.5 32.5h118q-2 -36 -19 -69t-47 -55t-65.5 -30t-72.5 -8zM160 318h180v12q0 19 -4.5 38t-17 34.5t-31 22.5t-37.5 7t-37.5 -7t-31 -22.5
t-17 -34.5t-4.5 -38v-12z" />
    <glyph glyph-name="Edotaccent" unicode="&#x116;" 
d="M75 0v735h375v-106h-257v-179h197v-106h-197v-238h257v-106h-375zM250 812q-21 0 -41 8.5t-29 28.5t-9 41t9 41t29 29t41 9t41 -9t28.5 -29t8.5 -41t-8.5 -41t-28.5 -28.5t-41 -8.5z" />
    <glyph glyph-name="edotaccent" unicode="&#x117;" 
d="M250 607q-21 0 -41 8.5t-29 28.5t-9 41t9 41t29 29t41 9t41 -9t28.5 -29t8.5 -41t-8.5 -41t-28.5 -28.5t-41 -8.5zM252 -8q-33 0 -66.5 7t-62 26t-47.5 47t-26.5 61t-7.5 67v130q0 42 12 82.5t42.5 71t71 42.5t82.5 12t82.5 -12t71 -42.5t42.5 -71t12 -82.5v-118h-298
v-12q0 -20 4.5 -39t17.5 -34.5t32 -22t38 -6.5t37.5 4.5t33 19t15.5 32.5h118q-2 -36 -19 -69t-47 -55t-65.5 -30t-72.5 -8zM160 318h180v12q0 19 -4.5 38t-17 34.5t-31 22.5t-37.5 7t-37.5 -7t-31 -22.5t-17 -34.5t-4.5 -38v-12z" />
    <glyph glyph-name="Eogonek" unicode="&#x118;" 
d="M426 -174q-35 0 -69.5 4.5t-62 29.5t-27.5 60q0 30 22.5 54t52.5 31.5t61 7.5v-21q-13 0 -24.5 -9t-11.5 -22q0 -33 58 -33h3h60v-102h-62zM75 0v735h375v-106h-257v-179h197v-106h-197v-238h257v-106h-375z" />
    <glyph glyph-name="eogonek" unicode="&#x119;" 
d="M273 -174q-35 0 -69.5 4.5t-62 29.5t-27.5 60q0 30 22.5 54t52.5 31.5t61 7.5v-21q-13 0 -24.5 -9t-11.5 -22q0 -33 58 -33h3h60v-102h-62zM252 -8q-33 0 -66.5 7t-62 26t-47.5 47t-26.5 61t-7.5 67v130q0 42 12 82.5t42.5 71t71 42.5t82.5 12t82.5 -12t71 -42.5
t42.5 -71t12 -82.5v-118h-298v-12q0 -20 4.5 -39t17.5 -34.5t32 -22t38 -6.5t37.5 4.5t33 19t15.5 32.5h118q-2 -36 -19 -69t-47 -55t-65.5 -30t-72.5 -8zM160 318h180v12q0 19 -4.5 38t-17 34.5t-31 22.5t-37.5 7t-37.5 -7t-31 -22.5t-17 -34.5t-4.5 -38v-12z" />
    <glyph glyph-name="Ecaron" unicode="&#x11a;" 
d="M194 769l-138 147l86 66l108 -140l108 140l86 -66l-138 -147h-112zM75 0v735h375v-106h-257v-179h197v-106h-197v-238h257v-106h-375z" />
    <glyph glyph-name="ecaron" unicode="&#x11b;" 
d="M194 564l-138 147l86 66l108 -140l108 140l86 -66l-138 -147h-112zM252 -8q-33 0 -66.5 7t-62 26t-47.5 47t-26.5 61t-7.5 67v130q0 42 12 82.5t42.5 71t71 42.5t82.5 12t82.5 -12t71 -42.5t42.5 -71t12 -82.5v-118h-298v-12q0 -20 4.5 -39t17.5 -34.5t32 -22t38 -6.5
t37.5 4.5t33 19t15.5 32.5h118q-2 -36 -19 -69t-47 -55t-65.5 -30t-72.5 -8zM160 318h180v12q0 19 -4.5 38t-17 34.5t-31 22.5t-37.5 7t-37.5 -7t-31 -22.5t-17 -34.5t-4.5 -38v-12z" />
    <glyph glyph-name="Gcircumflex" unicode="&#x11c;" 
d="M142 766l-86 65l138 147h112l138 -147l-86 -65l-108 139zM202 -8q-30 0 -59 10.5t-49.5 33.5t-32 51.5t-15.5 58.5t-4 60v323q0 34 7 67t25 62t46 49t61 28t67 8q39 0 77.5 -10.5t68 -37.5t44 -64.5t14.5 -76.5h-118q0 22 -10.5 43t-32 30.5t-43.5 9.5q-20 0 -38.5 -8
t-30 -24.5t-15.5 -36t-4 -39.5v-323q0 -20 4 -39.5t16 -36t31 -24.5t39 -8q19 0 36.5 8.5t28 25.5t14 36t3.5 38v97h-82v106h200v-409h-107v112q-25 -91 -95 -114q-20 -6 -46 -6z" />
    <glyph glyph-name="gcircumflex" unicode="&#x11d;" 
d="M142 561l-86 65l138 147h112l138 -147l-86 -65l-108 139zM246 -213q-36 0 -71.5 8.5t-64 31t-44.5 56t-18 69.5h118q1 -19 13.5 -33.5t30.5 -20t36 -5.5q19 0 37 7.5t29.5 23t15.5 34t4 37.5v83q-38 -86 -131 -86q-29 0 -57.5 10t-49 32t-32 49.5t-16 57t-4.5 59.5v130
q0 30 4.5 59.5t16 57t32 49.5t49 32t57.5 10q93 0 131 -86v78h118v-535q0 -33 -7 -65.5t-25 -61t-46 -47.5t-60.5 -26.5t-65.5 -7.5zM249 98q19 0 36.5 7.5t28 23.5t14.5 34t4 37v130q0 19 -4 37t-14.5 34t-28 23.5t-36.5 7.5t-37.5 -7t-30.5 -22.5t-16.5 -34.5t-4.5 -38
v-130q0 -19 4.5 -38t16.5 -34.5t30.5 -22.5t37.5 -7z" />
    <glyph glyph-name="Gbreve" unicode="&#x11e;" 
d="M250 789q-33 0 -65.5 9t-58.5 31.5t-36.5 54.5t-10.5 65h102q0 -18 8 -35t25.5 -24.5t35.5 -7.5t35.5 7.5t25.5 24.5t8 35h102q0 -36 -12.5 -70t-42 -56t-64.5 -29q-23 -5 -52 -5zM202 -8q-30 0 -59 10.5t-49.5 33.5t-32 51.5t-15.5 58.5t-4 60v323q0 34 7 67t25 62
t46 49t61 28t67 8q39 0 77.5 -10.5t68 -37.5t44 -64.5t14.5 -76.5h-118q0 22 -10.5 43t-32 30.5t-43.5 9.5q-20 0 -38.5 -8t-30 -24.5t-15.5 -36t-4 -39.5v-323q0 -20 4 -39.5t16 -36t31 -24.5t39 -8q19 0 36.5 8.5t28 25.5t14 36t3.5 38v97h-82v106h200v-409h-107v112
q-25 -91 -95 -114q-20 -6 -46 -6z" />
    <glyph glyph-name="gbreve" unicode="&#x11f;" 
d="M250 584q-33 0 -65.5 9t-58.5 31.5t-36.5 54.5t-10.5 65h102q0 -18 8 -35t25.5 -24.5t35.5 -7.5t35.5 7.5t25.5 24.5t8 35h102q0 -36 -12.5 -70t-42 -56t-64.5 -29q-23 -5 -52 -5zM246 -213q-36 0 -71.5 8.5t-64 31t-44.5 56t-18 69.5h118q1 -19 13.5 -33.5t30.5 -20
t36 -5.5q19 0 37 7.5t29.5 23t15.5 34t4 37.5v83q-38 -86 -131 -86q-29 0 -57.5 10t-49 32t-32 49.5t-16 57t-4.5 59.5v130q0 30 4.5 59.5t16 57t32 49.5t49 32t57.5 10q93 0 131 -86v78h118v-535q0 -33 -7 -65.5t-25 -61t-46 -47.5t-60.5 -26.5t-65.5 -7.5zM249 98
q19 0 36.5 7.5t28 23.5t14.5 34t4 37v130q0 19 -4 37t-14.5 34t-28 23.5t-36.5 7.5t-37.5 -7t-30.5 -22.5t-16.5 -34.5t-4.5 -38v-130q0 -19 4.5 -38t16.5 -34.5t30.5 -22.5t37.5 -7z" />
    <glyph glyph-name="Gdotaccent" unicode="&#x120;" 
d="M250 812q-21 0 -41 8.5t-29 28.5t-9 41t9 41t29 29t41 9t41 -9t28.5 -29t8.5 -41t-8.5 -41t-28.5 -28.5t-41 -8.5zM202 -8q-30 0 -59 10.5t-49.5 33.5t-32 51.5t-15.5 58.5t-4 60v323q0 34 7 67t25 62t46 49t61 28t67 8q39 0 77.5 -10.5t68 -37.5t44 -64.5t14.5 -76.5
h-118q0 22 -10.5 43t-32 30.5t-43.5 9.5q-20 0 -38.5 -8t-30 -24.5t-15.5 -36t-4 -39.5v-323q0 -20 4 -39.5t16 -36t31 -24.5t39 -8q19 0 36.5 8.5t28 25.5t14 36t3.5 38v97h-82v106h200v-409h-107v112q-25 -91 -95 -114q-20 -6 -46 -6z" />
    <glyph glyph-name="gdotaccent" unicode="&#x121;" 
d="M250 607q-21 0 -41 8.5t-29 28.5t-9 41t9 41t29 29t41 9t41 -9t28.5 -29t8.5 -41t-8.5 -41t-28.5 -28.5t-41 -8.5zM246 -213q-36 0 -71.5 8.5t-64 31t-44.5 56t-18 69.5h118q1 -19 13.5 -33.5t30.5 -20t36 -5.5q19 0 37 7.5t29.5 23t15.5 34t4 37.5v83q-38 -86 -131 -86
q-29 0 -57.5 10t-49 32t-32 49.5t-16 57t-4.5 59.5v130q0 30 4.5 59.5t16 57t32 49.5t49 32t57.5 10q93 0 131 -86v78h118v-535q0 -33 -7 -65.5t-25 -61t-46 -47.5t-60.5 -26.5t-65.5 -7.5zM249 98q19 0 36.5 7.5t28 23.5t14.5 34t4 37v130q0 19 -4 37t-14.5 34t-28 23.5
t-36.5 7.5t-37.5 -7t-30.5 -22.5t-16.5 -34.5t-4.5 -38v-130q0 -19 4.5 -38t16.5 -34.5t30.5 -22.5t37.5 -7z" />
    <glyph glyph-name="uni0122" unicode="&#x122;" 
d="M238 -254l-45 41q30 32 43 78q-44 7 -44 57q0 16 6.5 30.5t21 21t30.5 6.5t30.5 -6.5t21 -21t6.5 -30.5q0 -108 -70 -176zM202 -8q-30 0 -59 10.5t-49.5 33.5t-32 51.5t-15.5 58.5t-4 60v323q0 34 7 67t25 62t46 49t61 28t67 8q39 0 77.5 -10.5t68 -37.5t44 -64.5
t14.5 -76.5h-118q0 22 -10.5 43t-32 30.5t-43.5 9.5q-20 0 -38.5 -8t-30 -24.5t-15.5 -36t-4 -39.5v-323q0 -20 4 -39.5t16 -36t31 -24.5t39 -8q19 0 36.5 8.5t28 25.5t14 36t3.5 38v97h-82v106h200v-409h-107v112q-25 -91 -95 -114q-20 -6 -46 -6z" />
    <glyph glyph-name="uni0123" unicode="&#x123;" 
d="M250 550q-16 0 -30.5 6.5t-21 21t-6.5 30.5q0 108 70 176l45 -41q-30 -32 -43 -78q44 -7 44 -57q0 -16 -6.5 -30.5t-21 -21t-30.5 -6.5zM246 -213q-36 0 -71.5 8.5t-64 31t-44.5 56t-18 69.5h118q1 -19 13.5 -33.5t30.5 -20t36 -5.5q19 0 37 7.5t29.5 23t15.5 34t4 37.5
v83q-38 -86 -131 -86q-29 0 -57.5 10t-49 32t-32 49.5t-16 57t-4.5 59.5v130q0 30 4.5 59.5t16 57t32 49.5t49 32t57.5 10q93 0 131 -86v78h118v-535q0 -33 -7 -65.5t-25 -61t-46 -47.5t-60.5 -26.5t-65.5 -7.5zM249 98q19 0 36.5 7.5t28 23.5t14.5 34t4 37v130q0 19 -4 37
t-14.5 34t-28 23.5t-36.5 7.5t-37.5 -7t-30.5 -22.5t-16.5 -34.5t-4.5 -38v-130q0 -19 4.5 -38t16.5 -34.5t30.5 -22.5t37.5 -7z" />
    <glyph glyph-name="Hcircumflex" unicode="&#x124;" 
d="M142 766l-86 65l138 147h112l138 -147l-86 -65l-108 139zM50 0v735h118v-307h164v307h118v-735h-118v322h-164v-322h-118z" />
    <glyph glyph-name="hcircumflex" unicode="&#x125;" 
d="M142 766l-86 65l138 147h112l138 -147l-86 -65l-108 139zM50 0v735h118v-283q38 86 130 86q29 0 56.5 -10.5t47 -33t30 -50t14.5 -56.5t4 -58v-330h-118v330q0 19 -3.5 37t-14.5 34t-28 23.5t-36 7.5t-36 -7.5t-28 -23.5t-14.5 -34t-3.5 -37v-330h-118z" />
    <glyph glyph-name="Hbar" unicode="&#x126;" 
d="M50 0v491h-35v83h35v161h118v-161h164v161h118v-161h35v-83h-35v-491h-118v322h-164v-322h-118zM168 428h164v63h-164v-63z" />
    <glyph glyph-name="hbar" unicode="&#x127;" 
d="M50 0v581h-35v83h35v71h118v-71h82v-83h-82v-129q38 86 130 86q29 0 56.5 -10.5t47 -33t30 -50t14.5 -56.5t4 -58v-330h-118v330q0 19 -3.5 37t-14.5 34t-28 23.5t-36 7.5t-36 -7.5t-28 -23.5t-14.5 -34t-3.5 -37v-330h-118z" />
    <glyph glyph-name="Itilde" unicode="&#x128;" 
d="M307 786q-25 0 -47 13.5t-37 34.5t-30 39q-20 -25 -46 -82l-94 38q16 34 33 64t44.5 55t62.5 25q25 0 47 -13.5t37 -34.5t30 -39q20 25 46 82l94 -38q-16 -34 -33 -64t-44.5 -55t-62.5 -25zM75 0v106h116v523h-116v106h350v-106h-116v-523h116v-106h-350z" />
    <glyph glyph-name="itilde" unicode="&#x129;" 
d="M75 0v106h123v318h-109v106h227v-424h109v-106h-350zM307 581q-25 0 -47 13.5t-37 34.5t-30 39q-20 -25 -46 -82l-94 38q16 34 33 64t44.5 55t62.5 25q25 0 47 -13.5t37 -34.5t30 -39q20 25 46 82l94 -38q-16 -34 -33 -64t-44.5 -55t-62.5 -25z" />
    <glyph glyph-name="Imacron" unicode="&#x12a;" 
d="M100 844v92h300v-92h-300zM75 0v106h116v523h-116v106h350v-106h-116v-523h116v-106h-350z" />
    <glyph glyph-name="imacron" unicode="&#x12b;" 
d="M75 0v106h123v318h-109v106h227v-424h109v-106h-350zM100 639v92h300v-92h-300z" />
    <glyph glyph-name="Ibreve" unicode="&#x12c;" 
d="M250 789q-33 0 -65.5 9t-58.5 31.5t-36.5 54.5t-10.5 65h102q0 -18 8 -35t25.5 -24.5t35.5 -7.5t35.5 7.5t25.5 24.5t8 35h102q0 -36 -12.5 -70t-42 -56t-64.5 -29q-23 -5 -52 -5zM75 0v106h116v523h-116v106h350v-106h-116v-523h116v-106h-350z" />
    <glyph glyph-name="ibreve" unicode="&#x12d;" 
d="M75 0v106h123v318h-109v106h227v-424h109v-106h-350zM250 584q-33 0 -65.5 9t-58.5 31.5t-36.5 54.5t-10.5 65h102q0 -18 8 -35t25.5 -24.5t35.5 -7.5t35.5 7.5t25.5 24.5t8 35h102q0 -36 -12.5 -70t-42 -56t-64.5 -29q-23 -5 -52 -5z" />
    <glyph glyph-name="Iogonek" unicode="&#x12e;" 
d="M273 -174q-35 0 -69.5 4.5t-62 29.5t-27.5 60q0 30 22.5 54t52.5 31.5t61 7.5v-21q-13 0 -24.5 -9t-11.5 -22q0 -33 58 -33h3h60v-102h-62zM75 0v106h116v523h-116v106h350v-106h-116v-523h116v-106h-350z" />
    <glyph glyph-name="iogonek" unicode="&#x12f;" 
d="M75 0v106h123v318h-109v106h227v-424h109v-106h-350zM250 607q-21 0 -41 8.5t-29 28.5t-9 41t9 41t29 29t41 9t41 -9t28.5 -29t8.5 -41t-8.5 -41t-28.5 -28.5t-41 -8.5zM273 -174q-35 0 -69.5 4.5t-62 29.5t-27.5 60q0 30 22.5 54t52.5 31.5t61 7.5v-21q-13 0 -24.5 -9
t-11.5 -22q0 -33 58 -33h3h60v-102h-62z" />
    <glyph glyph-name="Idotaccent" unicode="&#x130;" 
d="M250 812q-21 0 -41 8.5t-29 28.5t-9 41t9 41t29 29t41 9t41 -9t28.5 -29t8.5 -41t-8.5 -41t-28.5 -28.5t-41 -8.5zM75 0v106h116v523h-116v106h350v-106h-116v-523h116v-106h-350z" />
    <glyph glyph-name="dotlessi" unicode="&#x131;" 
d="M75 0v106h123v318h-109v106h227v-424h109v-106h-350z" />
    <glyph glyph-name="IJ" unicode="&#x132;" 
d="M204 -8v106q21 0 43 3t40.5 16t29 32.5t13 41.5t2.5 44v500h118v-500q0 -38 -4.5 -76t-23 -71.5t-50 -56t-68.5 -31.5q-34 -8 -100 -8zM50 0v735h118v-735h-118z" />
    <glyph glyph-name="ij" unicode="&#x133;" 
d="M134 607q-21 0 -41 8.5t-29 28.5t-9 41t9 41t29 29t41 9t41 -9t28.5 -29t8.5 -41t-8.5 -41t-28.5 -28.5t-41 -8.5zM75 0v530h118v-530h-118zM366 607q-21 0 -41 8.5t-29 28.5t-9 41t9 41t29 29t41 9t41 -9t28.5 -29t8.5 -41t-8.5 -41t-28.5 -28.5t-41 -8.5zM237 -213
q-36 0 -71.5 11.5t-61 38.5t-38 62t-13.5 71h118q0 -19 7 -37.5t23.5 -29t35.5 -10.5q18 0 33.5 10.5t23.5 27t10.5 34.5t2.5 36v529h118v-529q0 -38 -8.5 -76t-31.5 -70t-58.5 -49t-73.5 -19h-16z" />
    <glyph glyph-name="Jcircumflex" unicode="&#x134;" 
d="M220 766l-86 65l138 147h112l138 -147l-86 -65l-108 139zM225 -8q-38 0 -74.5 12t-63 40t-39 64.5t-12.5 74.5h117q0 -21 7.5 -41t25.5 -32t39 -12q19 0 35 10t24.5 26.5t11.5 35t3 36.5v423h-116v106h234v-529q0 -33 -6 -65t-22 -61t-41.5 -50t-57.5 -29.5t-65 -8.5z
" />
    <glyph glyph-name="jcircumflex" unicode="&#x135;" 
d="M185 561l-86 65l138 147h112l138 -147l-86 -65l-108 139zM184 -213q-36 0 -71.5 11.5t-61 38.5t-38 62t-13.5 71h118q0 -19 7 -37.5t23.5 -29t35.5 -10.5q18 0 33.5 10.5t23.5 27t10.5 34.5t2.5 36v423h-116v106h234v-529q0 -32 -5.5 -64t-21 -61t-40.5 -50t-56.5 -30
t-64.5 -9z" />
    <glyph glyph-name="uni0136" unicode="&#x136;" 
d="M238 -254l-45 41q30 32 43 78q-44 7 -44 57q0 16 6.5 30.5t21 21t30.5 6.5t30.5 -6.5t21 -21t6.5 -30.5q0 -108 -70 -176zM66 0v735h117v-299l155 299h130l-187 -335l187 -400h-128l-128 275l-29 -51v-224h-117z" />
    <glyph glyph-name="uni0137" unicode="&#x137;" 
d="M238 -254l-45 41q30 32 43 78q-44 7 -44 57q0 16 6.5 30.5t21 21t30.5 6.5t30.5 -6.5t21 -21t6.5 -30.5q0 -108 -70 -176zM66 0v735h117v-428l149 223h137l-175 -243l175 -287h-134l-114 186l-38 -53v-133h-117z" />
    <glyph glyph-name="kgreenlandic" unicode="&#x138;" 
d="M66 0v530h117v-223l149 223h137l-175 -243l175 -287h-134l-114 186l-38 -53v-133h-117z" />
    <glyph glyph-name="Lacute" unicode="&#x139;" 
d="M233 761l-67 57l143 166l82 -70zM75 0v735h118v-629h265v-106h-383z" />
    <glyph glyph-name="lacute" unicode="&#x13a;" 
d="M233 761l-67 57l143 166l82 -70zM75 0v106h123v523h-109v106h227v-629h109v-106h-350z" />
    <glyph glyph-name="uni013B" unicode="&#x13b;" 
d="M238 -254l-45 41q30 32 43 78q-44 7 -44 57q0 16 6.5 30.5t21 21t30.5 6.5t30.5 -6.5t21 -21t6.5 -30.5q0 -108 -70 -176zM75 0v735h118v-629h265v-106h-383z" />
    <glyph glyph-name="uni013C" unicode="&#x13c;" 
d="M238 -254l-45 41q30 32 43 78q-44 7 -44 57q0 16 6.5 30.5t21 21t30.5 6.5t30.5 -6.5t21 -21t6.5 -30.5q0 -108 -70 -176zM75 0v106h123v523h-109v106h227v-629h109v-106h-350z" />
    <glyph glyph-name="Lcaron" unicode="&#x13d;" 
d="M388 541l-45 42q30 31 43 77q-44 7 -44 58q0 15 6.5 29.5t21 21.5t30.5 7t30.5 -7t21 -21t6.5 -30q0 -108 -70 -177zM75 0v735h118v-629h265v-106h-383z" />
    <glyph glyph-name="lcaron" unicode="&#x13e;" 
d="M396 523l-45 41q30 32 43 78q-44 7 -44 57q0 16 6.5 30.5t21 21.5t30.5 7t30.5 -7t21 -21t6.5 -31q0 -108 -70 -176zM75 0v106h123v523h-109v106h227v-629h109v-106h-350z" />
    <glyph glyph-name="Ldot" unicode="&#x13f;" 
d="M75 0v735h118v-629h265v-106h-383zM310 342q-21 0 -41 9t-28.5 28.5t-8.5 41t8.5 41t28.5 28.5t41 9t41 -9t29 -28.5t9 -41t-9 -41t-29 -28.5t-41 -9z" />
    <glyph glyph-name="ldot" unicode="&#x140;" 
d="M36 0v106h123v523h-109v106h227v-629h109v-106h-350zM372 342q-22 0 -41.5 9t-28.5 28.5t-9 41t9 41t28.5 28.5t41.5 9q21 0 40.5 -9t28.5 -28.5t9 -41t-9 -41t-28.5 -28.5t-40.5 -9z" />
    <glyph glyph-name="Lslash" unicode="&#x141;" 
d="M75 0v328l-29 -15l-42 75l71 35v312h118v-253l91 46l42 -75l-133 -66v-281h265v-106h-383z" />
    <glyph glyph-name="lslash" unicode="&#x142;" 
d="M134 275l-42 74l280 140l42 -74zM75 0v106h123v523h-109v106h227v-629h109v-106h-350z" />
    <glyph glyph-name="Nacute" unicode="&#x143;" 
d="M233 761l-67 57l143 166l82 -70zM50 0v735h126l177 -553q-6 43 -11.5 86t-7.5 86.5t-2 86.5v294h118v-735h-126l-177 553q6 -43 11.5 -86t7.5 -86.5t2 -86.5v-294h-118z" />
    <glyph glyph-name="nacute" unicode="&#x144;" 
d="M233 556l-67 57l143 166l82 -70zM50 0v530h118v-78q38 86 130 86q29 0 56.5 -10.5t47 -33t30 -50t14.5 -56.5t4 -58v-330h-118v330q0 19 -3.5 37t-14.5 34t-28 23.5t-36 7.5t-36 -7.5t-28 -23.5t-14.5 -34t-3.5 -37v-330h-118z" />
    <glyph glyph-name="uni0145" unicode="&#x145;" 
d="M238 -254l-45 41q30 32 43 78q-44 7 -44 57q0 16 6.5 30.5t21 21t30.5 6.5t30.5 -6.5t21 -21t6.5 -30.5q0 -108 -70 -176zM50 0v735h126l177 -553q-6 43 -11.5 86t-7.5 86.5t-2 86.5v294h118v-735h-126l-177 553q6 -43 11.5 -86t7.5 -86.5t2 -86.5v-294h-118z" />
    <glyph glyph-name="uni0146" unicode="&#x146;" 
d="M238 -254l-45 41q30 32 43 78q-44 7 -44 57q0 16 6.5 30.5t21 21t30.5 6.5t30.5 -6.5t21 -21t6.5 -30.5q0 -108 -70 -176zM50 0v530h118v-78q38 86 130 86q29 0 56.5 -10.5t47 -33t30 -50t14.5 -56.5t4 -58v-330h-118v330q0 19 -3.5 37t-14.5 34t-28 23.5t-36 7.5
t-36 -7.5t-28 -23.5t-14.5 -34t-3.5 -37v-330h-118z" />
    <glyph glyph-name="Ncaron" unicode="&#x147;" 
d="M194 769l-138 147l86 66l108 -140l108 140l86 -66l-138 -147h-112zM50 0v735h126l177 -553q-6 43 -11.5 86t-7.5 86.5t-2 86.5v294h118v-735h-126l-177 553q6 -43 11.5 -86t7.5 -86.5t2 -86.5v-294h-118z" />
    <glyph glyph-name="ncaron" unicode="&#x148;" 
d="M194 564l-138 147l86 66l108 -140l108 140l86 -66l-138 -147h-112zM50 0v530h118v-78q38 86 130 86q29 0 56.5 -10.5t47 -33t30 -50t14.5 -56.5t4 -58v-330h-118v330q0 19 -3.5 37t-14.5 34t-28 23.5t-36 7.5t-36 -7.5t-28 -23.5t-14.5 -34t-3.5 -37v-330h-118z" />
    <glyph glyph-name="napostrophe" unicode="&#x149;" 
d="M38 541l-45 42q30 31 43 77q-44 7 -44 58q0 15 6.5 29.5t21 21.5t30.5 7t30.5 -7t21 -21t6.5 -30q0 -108 -70 -177zM50 0v530h118v-78q38 86 130 86q29 0 56.5 -10.5t47 -33t30 -50t14.5 -56.5t4 -58v-330h-118v330q0 19 -3.5 37t-14.5 34t-28 23.5t-36 7.5t-36 -7.5
t-28 -23.5t-14.5 -34t-3.5 -37v-330h-118z" />
    <glyph glyph-name="Eng" unicode="&#x14a;" 
d="M244 -8v106q19 0 37.5 7t30 22.5t16 34.5t4.5 38v329q0 20 -4 39.5t-15.5 36t-30 24.5t-38.5 8q-54 0 -76 -46v-591h-118v735h118v-60q42 68 124 68q30 0 58.5 -11t48.5 -34t31.5 -51t15.5 -58t4 -60v-329q0 -33 -7 -66t-25.5 -61t-46.5 -47t-61 -26.5t-66 -7.5z" />
    <glyph glyph-name="eng" unicode="&#x14b;" 
d="M221 -208v106q22 0 43 5.5t37.5 19.5t23.5 35t7 42v330q0 19 -3.5 37t-14.5 34t-28 23.5t-36 7.5t-36 -7.5t-28 -23.5t-14.5 -34t-3.5 -37v-330h-118v530h118v-78q38 86 130 86q29 0 56.5 -10.5t47 -33t30 -50t14.5 -56.5t4 -58v-330q0 -35 -9 -69.5t-31 -62.5t-53 -45.5
t-66 -24t-70 -6.5z" />
    <glyph glyph-name="Omacron" unicode="&#x14c;" 
d="M100 844v92h300v-92h-300zM250 -8q-42 0 -83.5 13t-71 44.5t-41.5 73t-12 83.5v323q0 42 12 83.5t41.5 73t71 44.5t83.5 13t83.5 -13t71 -44.5t41.5 -73t12 -83.5v-323q0 -42 -12 -83.5t-41.5 -73t-71 -44.5t-83.5 -13zM250 98q20 0 39 8t31 24.5t16 36t4 39.5v323
q0 20 -4 39.5t-16 36t-31 24.5t-39 8t-39 -8t-31 -24.5t-16 -36t-4 -39.5v-323q0 -20 4 -39.5t16 -36t31 -24.5t39 -8z" />
    <glyph glyph-name="omacron" unicode="&#x14d;" 
d="M100 639v92h300v-92h-300zM250 -8q-42 0 -82.5 12t-71 42.5t-42.5 71t-12 82.5v130q0 42 12 82.5t42.5 71t71 42.5t82.5 12t82.5 -12t71 -42.5t42.5 -71t12 -82.5v-130q0 -42 -12 -82.5t-42.5 -71t-71 -42.5t-82.5 -12zM250 98q19 0 37.5 7t31 22.5t17 34.5t4.5 38v130
q0 19 -4.5 38t-17 34.5t-31 22.5t-37.5 7t-37.5 -7t-31 -22.5t-17 -34.5t-4.5 -38v-130q0 -19 4.5 -38t17 -34.5t31 -22.5t37.5 -7z" />
    <glyph glyph-name="Obreve" unicode="&#x14e;" 
d="M250 789q-33 0 -65.5 9t-58.5 31.5t-36.5 54.5t-10.5 65h102q0 -18 8 -35t25.5 -24.5t35.5 -7.5t35.5 7.5t25.5 24.5t8 35h102q0 -36 -12.5 -70t-42 -56t-64.5 -29q-23 -5 -52 -5zM250 -8q-42 0 -83.5 13t-71 44.5t-41.5 73t-12 83.5v323q0 42 12 83.5t41.5 73t71 44.5
t83.5 13t83.5 -13t71 -44.5t41.5 -73t12 -83.5v-323q0 -42 -12 -83.5t-41.5 -73t-71 -44.5t-83.5 -13zM250 98q20 0 39 8t31 24.5t16 36t4 39.5v323q0 20 -4 39.5t-16 36t-31 24.5t-39 8t-39 -8t-31 -24.5t-16 -36t-4 -39.5v-323q0 -20 4 -39.5t16 -36t31 -24.5t39 -8z" />
    <glyph glyph-name="obreve" unicode="&#x14f;" 
d="M250 584q-33 0 -65.5 9t-58.5 31.5t-36.5 54.5t-10.5 65h102q0 -18 8 -35t25.5 -24.5t35.5 -7.5t35.5 7.5t25.5 24.5t8 35h102q0 -36 -12.5 -70t-42 -56t-64.5 -29q-23 -5 -52 -5zM250 -8q-42 0 -82.5 12t-71 42.5t-42.5 71t-12 82.5v130q0 42 12 82.5t42.5 71t71 42.5
t82.5 12t82.5 -12t71 -42.5t42.5 -71t12 -82.5v-130q0 -42 -12 -82.5t-42.5 -71t-71 -42.5t-82.5 -12zM250 98q19 0 37.5 7t31 22.5t17 34.5t4.5 38v130q0 19 -4.5 38t-17 34.5t-31 22.5t-37.5 7t-37.5 -7t-31 -22.5t-17 -34.5t-4.5 -38v-130q0 -19 4.5 -38t17 -34.5
t31 -22.5t37.5 -7z" />
    <glyph glyph-name="Ohungarumlaut" unicode="&#x150;" 
d="M318 761l-67 57l143 166l82 -70zM148 761l-67 57l143 166l82 -70zM250 -8q-42 0 -83.5 13t-71 44.5t-41.5 73t-12 83.5v323q0 42 12 83.5t41.5 73t71 44.5t83.5 13t83.5 -13t71 -44.5t41.5 -73t12 -83.5v-323q0 -42 -12 -83.5t-41.5 -73t-71 -44.5t-83.5 -13zM250 98
q20 0 39 8t31 24.5t16 36t4 39.5v323q0 20 -4 39.5t-16 36t-31 24.5t-39 8t-39 -8t-31 -24.5t-16 -36t-4 -39.5v-323q0 -20 4 -39.5t16 -36t31 -24.5t39 -8z" />
    <glyph glyph-name="ohungarumlaut" unicode="&#x151;" 
d="M318 556l-67 57l143 166l82 -70zM148 556l-67 57l143 166l82 -70zM250 -8q-42 0 -82.5 12t-71 42.5t-42.5 71t-12 82.5v130q0 42 12 82.5t42.5 71t71 42.5t82.5 12t82.5 -12t71 -42.5t42.5 -71t12 -82.5v-130q0 -42 -12 -82.5t-42.5 -71t-71 -42.5t-82.5 -12zM250 98
q19 0 37.5 7t31 22.5t17 34.5t4.5 38v130q0 19 -4.5 38t-17 34.5t-31 22.5t-37.5 7t-37.5 -7t-31 -22.5t-17 -34.5t-4.5 -38v-130q0 -19 4.5 -38t17 -34.5t31 -22.5t37.5 -7z" />
    <glyph glyph-name="OE" unicode="&#x152;" 
d="M250 0q-34 0 -68 7t-63.5 24.5t-50 45.5t-29 61.5t-8.5 67.5v323q0 39 11 76t37.5 66t62.5 44.5t74 18.5q13 1 34 1h219v-106h-115v-179h91v-106h-91v-238h115v-106h-219zM250 94v547q-23 0 -45 -6t-39 -22.5t-24 -38.5t-7 -45v-323q0 -23 7 -45t24 -38.5t39 -22.5t45 -6
z" />
    <glyph glyph-name="oe" unicode="&#x153;" 
d="M162 -8q-28 0 -55 6.5t-49.5 24t-32.5 43.5t-10 54v290q0 28 10 54t32.5 43.5t49.5 24t55 6.5q53 0 88 -20q35 20 88 20q28 0 55 -6.5t49.5 -24t32.5 -43.5t10 -54v-197h-177v-93q0 -24 31 -24q11 0 19 8t10.5 18.5t2.5 20.5v3h116v-8q0 -29 -9.5 -57.5t-30.5 -50
t-49.5 -30t-58.5 -8.5q-54 0 -89 20q-35 -20 -88 -20zM308 317h61v93q0 24 -31 24q-30 0 -30 -24v-93zM162 96q30 0 30 24v290q0 24 -30 24q-31 0 -31 -24v-290q0 -24 31 -24z" />
    <glyph glyph-name="Racute" unicode="&#x154;" 
d="M233 761l-67 57l143 166l82 -70zM50 0v735h190q36 0 71.5 -9t65 -31t48.5 -53.5t26 -67.5t7 -73q0 -44 -11.5 -88t-42 -78.5t-71.5 -51.5l145 -283h-126l-138 268h-46v-268h-118zM168 374h72q23 0 44 10t34 29.5t17.5 42t4.5 45.5t-4.5 46t-17.5 42.5t-34 29.5t-44 10
h-72v-255z" />
    <glyph glyph-name="racute" unicode="&#x155;" 
d="M233 556l-67 57l143 166l82 -70zM102 0v530h118v-113q35 121 130 121q28 0 54.5 -11.5t42.5 -36t21 -52.5t5 -56h-118q0 50 -51 50q-68 0 -82 -105q-2 -19 -2 -46v-281h-118z" />
    <glyph glyph-name="uni0156" unicode="&#x156;" 
d="M238 -254l-45 41q30 32 43 78q-44 7 -44 57q0 16 6.5 30.5t21 21t30.5 6.5t30.5 -6.5t21 -21t6.5 -30.5q0 -108 -70 -176zM50 0v735h190q36 0 71.5 -9t65 -31t48.5 -53.5t26 -67.5t7 -73q0 -44 -11.5 -88t-42 -78.5t-71.5 -51.5l145 -283h-126l-138 268h-46v-268h-118z
M168 374h72q23 0 44 10t34 29.5t17.5 42t4.5 45.5t-4.5 46t-17.5 42.5t-34 29.5t-44 10h-72v-255z" />
    <glyph glyph-name="uni0157" unicode="&#x157;" 
d="M238 -254l-45 41q30 32 43 78q-44 7 -44 57q0 16 6.5 30.5t21 21t30.5 6.5t30.5 -6.5t21 -21t6.5 -30.5q0 -108 -70 -176zM102 0v530h118v-113q35 121 130 121q28 0 54.5 -11.5t42.5 -36t21 -52.5t5 -56h-118q0 50 -51 50q-68 0 -82 -105q-2 -19 -2 -46v-281h-118z" />
    <glyph glyph-name="Rcaron" unicode="&#x158;" 
d="M194 769l-138 147l86 66l108 -140l108 140l86 -66l-138 -147h-112zM50 0v735h190q36 0 71.5 -9t65 -31t48.5 -53.5t26 -67.5t7 -73q0 -44 -11.5 -88t-42 -78.5t-71.5 -51.5l145 -283h-126l-138 268h-46v-268h-118zM168 374h72q23 0 44 10t34 29.5t17.5 42t4.5 45.5
t-4.5 46t-17.5 42.5t-34 29.5t-44 10h-72v-255z" />
    <glyph glyph-name="rcaron" unicode="&#x159;" 
d="M194 564l-138 147l86 66l108 -140l108 140l86 -66l-138 -147h-112zM102 0v530h118v-113q35 121 130 121q28 0 54.5 -11.5t42.5 -36t21 -52.5t5 -56h-118q0 50 -51 50q-68 0 -82 -105q-2 -19 -2 -46v-281h-118z" />
    <glyph glyph-name="Sacute" unicode="&#x15a;" 
d="M233 761l-67 57l143 166l82 -70zM248 -8q-39 0 -77 11.5t-66.5 39t-42.5 65t-14 76.5h118q0 -22 9.5 -43t30 -32t42.5 -11q18 0 35 7t28.5 21.5t16.5 32t5 35.5q0 39 -28 70t-63.5 48t-70 37t-62.5 48t-44 65t-16 77t14 79t42 69.5t67 43t80 12.5q39 0 77 -11.5t66.5 -39
t42.5 -65t14 -76.5h-118q0 22 -9.5 43t-30 32t-42.5 11q-18 0 -35 -7t-28.5 -21.5t-16.5 -32t-5 -35.5q0 -39 28 -70t63.5 -48t70 -37t62.5 -48t44 -65t16 -77t-14 -79t-42 -69.5t-67 -43t-80 -12.5z" />
    <glyph glyph-name="sacute" unicode="&#x15b;" 
d="M233 556l-67 57l143 166l82 -70zM249 -8q-36 0 -71 8t-64.5 29.5t-46 54.5t-17.5 69h118q0 -18 13.5 -32t31.5 -18.5t36 -4.5q19 0 37 3.5t33.5 16.5t15.5 32q0 33 -36 47t-68 18.5t-64 14.5t-59.5 29.5t-43 50t-15.5 63.5q0 37 16.5 71t46.5 56t66 30t73 8q36 0 71 -8
t64.5 -29.5t46 -54.5t17.5 -69h-118q0 18 -13.5 32t-31.5 18.5t-36 4.5q-19 0 -37 -3.5t-33.5 -16.5t-15.5 -32q0 -33 36 -47t68 -18.5t64 -14.5t59.5 -29.5t43 -50t15.5 -63.5q0 -37 -16.5 -71t-46.5 -56t-66 -30t-73 -8z" />
    <glyph glyph-name="Scircumflex" unicode="&#x15c;" 
d="M142 766l-86 65l138 147h112l138 -147l-86 -65l-108 139zM248 -8q-39 0 -77 11.5t-66.5 39t-42.5 65t-14 76.5h118q0 -22 9.5 -43t30 -32t42.5 -11q18 0 35 7t28.5 21.5t16.5 32t5 35.5q0 39 -28 70t-63.5 48t-70 37t-62.5 48t-44 65t-16 77t14 79t42 69.5t67 43t80 12.5
q39 0 77 -11.5t66.5 -39t42.5 -65t14 -76.5h-118q0 22 -9.5 43t-30 32t-42.5 11q-18 0 -35 -7t-28.5 -21.5t-16.5 -32t-5 -35.5q0 -39 28 -70t63.5 -48t70 -37t62.5 -48t44 -65t16 -77t-14 -79t-42 -69.5t-67 -43t-80 -12.5z" />
    <glyph glyph-name="scircumflex" unicode="&#x15d;" 
d="M142 561l-86 65l138 147h112l138 -147l-86 -65l-108 139zM249 -8q-36 0 -71 8t-64.5 29.5t-46 54.5t-17.5 69h118q0 -18 13.5 -32t31.5 -18.5t36 -4.5q19 0 37 3.5t33.5 16.5t15.5 32q0 33 -36 47t-68 18.5t-64 14.5t-59.5 29.5t-43 50t-15.5 63.5q0 37 16.5 71t46.5 56
t66 30t73 8q36 0 71 -8t64.5 -29.5t46 -54.5t17.5 -69h-118q0 18 -13.5 32t-31.5 18.5t-36 4.5q-19 0 -37 -3.5t-33.5 -16.5t-15.5 -32q0 -33 36 -47t68 -18.5t64 -14.5t59.5 -29.5t43 -50t15.5 -63.5q0 -37 -16.5 -71t-46.5 -56t-66 -30t-73 -8z" />
    <glyph glyph-name="Scedilla" unicode="&#x15e;" 
d="M150 -214v80h100q19 0 19 17t-19 17h-44v100h88v-26q64 -20 64 -91q0 -21 -7 -40.5t-23.5 -33t-36.5 -18.5t-41 -5h-100zM248 -8q-39 0 -77 11.5t-66.5 39t-42.5 65t-14 76.5h118q0 -22 9.5 -43t30 -32t42.5 -11q18 0 35 7t28.5 21.5t16.5 32t5 35.5q0 39 -28 70
t-63.5 48t-70 37t-62.5 48t-44 65t-16 77t14 79t42 69.5t67 43t80 12.5q39 0 77 -11.5t66.5 -39t42.5 -65t14 -76.5h-118q0 22 -9.5 43t-30 32t-42.5 11q-18 0 -35 -7t-28.5 -21.5t-16.5 -32t-5 -35.5q0 -39 28 -70t63.5 -48t70 -37t62.5 -48t44 -65t16 -77t-14 -79
t-42 -69.5t-67 -43t-80 -12.5z" />
    <glyph glyph-name="scedilla" unicode="&#x15f;" 
d="M150 -214v80h100q19 0 19 17t-19 17h-44v100h88v-26q64 -20 64 -91q0 -21 -7 -40.5t-23.5 -33t-36.5 -18.5t-41 -5h-100zM249 -8q-36 0 -71 8t-64.5 29.5t-46 54.5t-17.5 69h118q0 -18 13.5 -32t31.5 -18.5t36 -4.5q19 0 37 3.5t33.5 16.5t15.5 32q0 33 -36 47t-68 18.5
t-64 14.5t-59.5 29.5t-43 50t-15.5 63.5q0 37 16.5 71t46.5 56t66 30t73 8q36 0 71 -8t64.5 -29.5t46 -54.5t17.5 -69h-118q0 18 -13.5 32t-31.5 18.5t-36 4.5q-19 0 -37 -3.5t-33.5 -16.5t-15.5 -32q0 -33 36 -47t68 -18.5t64 -14.5t59.5 -29.5t43 -50t15.5 -63.5
q0 -37 -16.5 -71t-46.5 -56t-66 -30t-73 -8z" />
    <glyph glyph-name="Scaron" unicode="&#x160;" 
d="M194 769l-138 147l86 66l108 -140l108 140l86 -66l-138 -147h-112zM248 -8q-39 0 -77 11.5t-66.5 39t-42.5 65t-14 76.5h118q0 -22 9.5 -43t30 -32t42.5 -11q18 0 35 7t28.5 21.5t16.5 32t5 35.5q0 39 -28 70t-63.5 48t-70 37t-62.5 48t-44 65t-16 77t14 79t42 69.5
t67 43t80 12.5q39 0 77 -11.5t66.5 -39t42.5 -65t14 -76.5h-118q0 22 -9.5 43t-30 32t-42.5 11q-18 0 -35 -7t-28.5 -21.5t-16.5 -32t-5 -35.5q0 -39 28 -70t63.5 -48t70 -37t62.5 -48t44 -65t16 -77t-14 -79t-42 -69.5t-67 -43t-80 -12.5z" />
    <glyph glyph-name="scaron" unicode="&#x161;" 
d="M194 564l-138 147l86 66l108 -140l108 140l86 -66l-138 -147h-112zM249 -8q-36 0 -71 8t-64.5 29.5t-46 54.5t-17.5 69h118q0 -18 13.5 -32t31.5 -18.5t36 -4.5q19 0 37 3.5t33.5 16.5t15.5 32q0 33 -36 47t-68 18.5t-64 14.5t-59.5 29.5t-43 50t-15.5 63.5q0 37 16.5 71
t46.5 56t66 30t73 8q36 0 71 -8t64.5 -29.5t46 -54.5t17.5 -69h-118q0 18 -13.5 32t-31.5 18.5t-36 4.5q-19 0 -37 -3.5t-33.5 -16.5t-15.5 -32q0 -33 36 -47t68 -18.5t64 -14.5t59.5 -29.5t43 -50t15.5 -63.5q0 -37 -16.5 -71t-46.5 -56t-66 -30t-73 -8z" />
    <glyph glyph-name="uni0162" unicode="&#x162;" 
d="M150 -214v80h100q19 0 19 17t-19 17h-44v100h88v-26q64 -20 64 -91q0 -21 -7 -40.5t-23.5 -33t-36.5 -18.5t-41 -5h-100zM191 0v629h-153v106h424v-106h-153v-629h-118z" />
    <glyph glyph-name="uni0163" unicode="&#x163;" 
d="M208 -214v80h100q19 0 19 17t-19 17h-44v100h88v-26q64 -20 64 -91q0 -21 -7 -40.5t-23.5 -33t-36.5 -18.5t-41 -5h-100zM318 -8q-32 0 -63 9.5t-54 32t-36.5 52t-18.5 61t-5 63.5v214h-92v106h92v205h118v-205h140v-106h-140v-214q0 -24 3.5 -47t17.5 -44t38 -21
q19 0 33.5 14t19 33t4.5 38v5h118v-11q0 -36 -11 -71t-35 -62.5t-58.5 -39.5t-70.5 -12z" />
    <glyph glyph-name="Tcaron" unicode="&#x164;" 
d="M194 769l-138 147l86 66l108 -140l108 140l86 -66l-138 -147h-112zM191 0v629h-153v106h424v-106h-153v-629h-118z" />
    <glyph glyph-name="tcaron" unicode="&#x165;" 
d="M396 523l-45 41q30 32 43 78q-44 7 -44 57q0 16 6.5 30.5t21 21.5t30.5 7t30.5 -7t21 -21t6.5 -31q0 -108 -70 -176zM318 -8q-32 0 -63 9.5t-54 32t-36.5 52t-18.5 61t-5 63.5v214h-92v106h92v205h118v-205h140v-106h-140v-214q0 -24 3.5 -47t17.5 -44t38 -21
q19 0 33.5 14t19 33t4.5 38v5h118v-11q0 -36 -11 -71t-35 -62.5t-58.5 -39.5t-70.5 -12z" />
    <glyph glyph-name="Tbar" unicode="&#x166;" 
d="M191 0v289h-101v83h101v257h-153v106h424v-106h-153v-257h101v-83h-101v-289h-118z" />
    <glyph glyph-name="tbar" unicode="&#x167;" 
d="M318 -8q-32 0 -63 9.5t-54 32t-36.5 52t-18.5 61t-5 63.5v66h-85v84h85v64h-92v106h92v205h118v-205h140v-106h-140v-64h77v-84h-77v-66q0 -24 3.5 -47t17.5 -44t38 -21q19 0 33.5 14t19 33t4.5 38v5h118v-11q0 -36 -11 -71t-35 -62.5t-58.5 -39.5t-70.5 -12z" />
    <glyph glyph-name="Utilde" unicode="&#x168;" 
d="M307 786q-25 0 -47 13.5t-37 34.5t-30 39q-20 -25 -46 -82l-94 38q16 34 33 64t44.5 55t62.5 25q25 0 47 -13.5t37 -34.5t30 -39q20 25 46 82l94 -38q-16 -34 -33 -64t-44.5 -55t-62.5 -25zM250 -8q-42 0 -82 13.5t-68 45.5t-39 72.5t-11 82.5v529h118v-529
q0 -19 3.5 -38t14 -36t28 -25.5t36.5 -8.5t36.5 8.5t28 25.5t14 36t3.5 38v529h118v-529q0 -42 -11 -82.5t-39 -72.5t-68 -45.5t-82 -13.5z" />
    <glyph glyph-name="utilde" unicode="&#x169;" 
d="M307 581q-25 0 -47 13.5t-37 34.5t-30 39q-20 -25 -46 -82l-94 38q16 34 33 64t44.5 55t62.5 25q25 0 47 -13.5t37 -34.5t30 -39q20 25 46 82l94 -38q-16 -34 -33 -64t-44.5 -55t-62.5 -25zM202 -8q-29 0 -56.5 10.5t-47 33t-30 50t-14.5 56.5t-4 58v330h118v-330
q0 -19 3.5 -37t14.5 -34t28 -23.5t36 -7.5t36 7.5t28 23.5t14.5 34t3.5 37v330h118v-530h-118v78q-38 -86 -130 -86z" />
    <glyph glyph-name="Umacron" unicode="&#x16a;" 
d="M100 844v92h300v-92h-300zM250 -8q-42 0 -82 13.5t-68 45.5t-39 72.5t-11 82.5v529h118v-529q0 -19 3.5 -38t14 -36t28 -25.5t36.5 -8.5t36.5 8.5t28 25.5t14 36t3.5 38v529h118v-529q0 -42 -11 -82.5t-39 -72.5t-68 -45.5t-82 -13.5z" />
    <glyph glyph-name="umacron" unicode="&#x16b;" 
d="M100 639v92h300v-92h-300zM202 -8q-29 0 -56.5 10.5t-47 33t-30 50t-14.5 56.5t-4 58v330h118v-330q0 -19 3.5 -37t14.5 -34t28 -23.5t36 -7.5t36 7.5t28 23.5t14.5 34t3.5 37v330h118v-530h-118v78q-38 -86 -130 -86z" />
    <glyph glyph-name="Ubreve" unicode="&#x16c;" 
d="M250 789q-33 0 -65.5 9t-58.5 31.5t-36.5 54.5t-10.5 65h102q0 -18 8 -35t25.5 -24.5t35.5 -7.5t35.5 7.5t25.5 24.5t8 35h102q0 -36 -12.5 -70t-42 -56t-64.5 -29q-23 -5 -52 -5zM250 -8q-42 0 -82 13.5t-68 45.5t-39 72.5t-11 82.5v529h118v-529q0 -19 3.5 -38t14 -36
t28 -25.5t36.5 -8.5t36.5 8.5t28 25.5t14 36t3.5 38v529h118v-529q0 -42 -11 -82.5t-39 -72.5t-68 -45.5t-82 -13.5z" />
    <glyph glyph-name="ubreve" unicode="&#x16d;" 
d="M250 584q-33 0 -65.5 9t-58.5 31.5t-36.5 54.5t-10.5 65h102q0 -18 8 -35t25.5 -24.5t35.5 -7.5t35.5 7.5t25.5 24.5t8 35h102q0 -36 -12.5 -70t-42 -56t-64.5 -29q-23 -5 -52 -5zM202 -8q-29 0 -56.5 10.5t-47 33t-30 50t-14.5 56.5t-4 58v330h118v-330q0 -19 3.5 -37
t14.5 -34t28 -23.5t36 -7.5t36 7.5t28 23.5t14.5 34t3.5 37v330h118v-530h-118v78q-38 -86 -130 -86z" />
    <glyph glyph-name="Uring" unicode="&#x16e;" 
d="M250 749q-22 0 -43.5 6.5t-37.5 22.5t-22.5 37.5t-6.5 43.5t6.5 43.5t22.5 37.5t37.5 22t43.5 6t43.5 -6t37.5 -22t22.5 -37.5t6.5 -43.5t-6.5 -43.5t-22.5 -37.5t-37.5 -22.5t-43.5 -6.5zM250 822q37 0 37 37t-37 37t-37 -37t37 -37zM250 -8q-42 0 -82 13.5t-68 45.5
t-39 72.5t-11 82.5v529h118v-529q0 -19 3.5 -38t14 -36t28 -25.5t36.5 -8.5t36.5 8.5t28 25.5t14 36t3.5 38v529h118v-529q0 -42 -11 -82.5t-39 -72.5t-68 -45.5t-82 -13.5z" />
    <glyph glyph-name="uring" unicode="&#x16f;" 
d="M250 544q-22 0 -43.5 6.5t-37.5 22.5t-22.5 37.5t-6.5 43.5t6.5 43.5t22.5 37.5t37.5 22t43.5 6t43.5 -6t37.5 -22t22.5 -37.5t6.5 -43.5t-6.5 -43.5t-22.5 -37.5t-37.5 -22.5t-43.5 -6.5zM250 617q37 0 37 37t-37 37t-37 -37t37 -37zM202 -8q-29 0 -56.5 10.5t-47 33
t-30 50t-14.5 56.5t-4 58v330h118v-330q0 -19 3.5 -37t14.5 -34t28 -23.5t36 -7.5t36 7.5t28 23.5t14.5 34t3.5 37v330h118v-530h-118v78q-38 -86 -130 -86z" />
    <glyph glyph-name="Uhungarumlaut" unicode="&#x170;" 
d="M318 761l-67 57l143 166l82 -70zM148 761l-67 57l143 166l82 -70zM250 -8q-42 0 -82 13.5t-68 45.5t-39 72.5t-11 82.5v529h118v-529q0 -19 3.5 -38t14 -36t28 -25.5t36.5 -8.5t36.5 8.5t28 25.5t14 36t3.5 38v529h118v-529q0 -42 -11 -82.5t-39 -72.5t-68 -45.5
t-82 -13.5z" />
    <glyph glyph-name="uhungarumlaut" unicode="&#x171;" 
d="M318 556l-67 57l143 166l82 -70zM148 556l-67 57l143 166l82 -70zM202 -8q-29 0 -56.5 10.5t-47 33t-30 50t-14.5 56.5t-4 58v330h118v-330q0 -19 3.5 -37t14.5 -34t28 -23.5t36 -7.5t36 7.5t28 23.5t14.5 34t3.5 37v330h118v-530h-118v78q-38 -86 -130 -86z" />
    <glyph glyph-name="Uogonek" unicode="&#x172;" 
d="M273 -174q-35 0 -69.5 4.5t-62 29.5t-27.5 60q0 30 22.5 54t52.5 31.5t61 7.5v-21q-13 0 -24.5 -9t-11.5 -22q0 -33 58 -33h3h60v-102h-62zM250 -8q-42 0 -82 13.5t-68 45.5t-39 72.5t-11 82.5v529h118v-529q0 -19 3.5 -38t14 -36t28 -25.5t36.5 -8.5t36.5 8.5t28 25.5
t14 36t3.5 38v529h118v-529q0 -42 -11 -82.5t-39 -72.5t-68 -45.5t-82 -13.5z" />
    <glyph glyph-name="uogonek" unicode="&#x173;" 
d="M426 -174q-35 0 -69.5 4.5t-62 29.5t-27.5 60q0 30 22.5 54t52.5 31.5t61 7.5v-21q-13 0 -24.5 -9t-11.5 -22q0 -33 58 -33h3h60v-102h-62zM202 -8q-29 0 -56.5 10.5t-47 33t-30 50t-14.5 56.5t-4 58v330h118v-330q0 -19 3.5 -37t14.5 -34t28 -23.5t36 -7.5t36 7.5
t28 23.5t14.5 34t3.5 37v330h118v-530h-118v78q-38 -86 -130 -86z" />
    <glyph glyph-name="Wcircumflex" unicode="&#x174;" 
d="M142 766l-86 65l138 147h112l138 -147l-86 -65l-108 139zM103 0l-88 735h118l24 -540l43 467h100l43 -467l24 540h118l-88 -735h-99l-48 517l-48 -517h-99z" />
    <glyph glyph-name="wcircumflex" unicode="&#x175;" 
d="M142 561l-86 65l138 147h112l138 -147l-86 -65l-108 139zM103 0l-88 530h118l24 -390l43 337h100l43 -337l24 390h118l-88 -530h-99l-48 373l-48 -373h-99z" />
    <glyph glyph-name="Ycircumflex" unicode="&#x176;" 
d="M142 766l-86 65l138 147h112l138 -147l-86 -65l-108 139zM191 0v311l-161 424h119l101 -291l101 291h119l-161 -424v-311h-118z" />
    <glyph glyph-name="ycircumflex" unicode="&#x177;" 
d="M142 561l-86 65l138 147h112l138 -147l-86 -65l-108 139zM121 -205q25 64 55 163l14 47l-163 525h126l99 -369l95 369h126l-185 -603l-24 -80l-16 -52h-127z" />
    <glyph glyph-name="Ydieresis" unicode="&#x178;" 
d="M350 815q-20 0 -39 8.5t-27.5 27.5t-8.5 39t8.5 39t27.5 27.5t39 8.5t39 -8.5t27.5 -27.5t8.5 -39t-8.5 -39t-27.5 -27.5t-39 -8.5zM150 815q-20 0 -39 8.5t-27.5 27.5t-8.5 39t8.5 39t27.5 27.5t39 8.5t39 -8.5t27.5 -27.5t8.5 -39t-8.5 -39t-27.5 -27.5t-39 -8.5z
M191 0v311l-161 424h119l101 -291l101 291h119l-161 -424v-311h-118z" />
    <glyph glyph-name="Zacute" unicode="&#x179;" 
d="M233 761l-67 57l143 166l82 -70zM50 0v106l265 523h-265v106h400v-106l-265 -523h265v-106h-400z" />
    <glyph glyph-name="zacute" unicode="&#x17a;" 
d="M233 556l-67 57l143 166l82 -70zM50 0v106l259 318h-259v106h400v-106l-259 -318h259v-106h-400z" />
    <glyph glyph-name="Zdotaccent" unicode="&#x17b;" 
d="M250 812q-21 0 -41 8.5t-29 28.5t-9 41t9 41t29 29t41 9t41 -9t28.5 -29t8.5 -41t-8.5 -41t-28.5 -28.5t-41 -8.5zM50 0v106l265 523h-265v106h400v-106l-265 -523h265v-106h-400z" />
    <glyph glyph-name="zdotaccent" unicode="&#x17c;" 
d="M250 607q-21 0 -41 8.5t-29 28.5t-9 41t9 41t29 29t41 9t41 -9t28.5 -29t8.5 -41t-8.5 -41t-28.5 -28.5t-41 -8.5zM50 0v106l259 318h-259v106h400v-106l-259 -318h259v-106h-400z" />
    <glyph glyph-name="Zcaron" unicode="&#x17d;" 
d="M194 769l-138 147l86 66l108 -140l108 140l86 -66l-138 -147h-112zM50 0v106l265 523h-265v106h400v-106l-265 -523h265v-106h-400z" />
    <glyph glyph-name="zcaron" unicode="&#x17e;" 
d="M194 564l-138 147l86 66l108 -140l108 140l86 -66l-138 -147h-112zM50 0v106l259 318h-259v106h400v-106l-259 -318h259v-106h-400z" />
    <glyph glyph-name="longs" unicode="&#x17f;" 
d="M128 0v529q0 32 5.5 64t21 61t40.5 50t56.5 30t63.5 9q37 0 73.5 -12.5t62 -41t37.5 -64.5t12 -74h-118q0 21 -6.5 40.5t-23.5 32.5t-37 13q-18 0 -33.5 -10.5t-23 -27t-10 -34.5t-2.5 -36v-529h-118z" />
    <glyph glyph-name="uni0180" unicode="&#x180;" 
d="M299 -8q-93 0 -131 86v-78h-118v581h-35v83h35v71h118v-71h82v-83h-82v-129q38 86 131 86q29 0 57.5 -10t49 -32t32 -49.5t16 -57t4.5 -59.5v-130q0 -30 -4.5 -59.5t-16 -57t-32 -49.5t-49 -32t-57.5 -10zM251 98q19 0 37.5 7t30.5 22.5t16.5 34.5t4.5 38v130
q0 19 -4.5 38t-16.5 34.5t-30.5 22.5t-37.5 7t-36.5 -7.5t-28 -23.5t-14.5 -34t-4 -37v-130q0 -19 4 -37t14.5 -34t28 -23.5t36.5 -7.5z" />
    <glyph glyph-name="uni0181" unicode="&#x181;" 
d="M50 0v662q-29 0 -29 -97h-81q0 23 2.5 45.5t9.5 44.5t20 41t34 29t44 10h192q41 0 79.5 -12t67.5 -41.5t40.5 -68.5t11.5 -79q0 -103 -75 -149l2 -1q98 -48 98 -168q0 -45 -14 -87.5t-47 -73.5t-75.5 -43t-87.5 -12h-192zM168 435h74q18 0 35 7t27.5 22t14.5 33t4 35.5
t-4 35.5t-14.5 32.5t-27.5 21.5t-35 7h-74v-194zM168 106h74q22 0 43 7t36 23.5t21 37.5t6 43t-5.5 43.5t-20.5 38t-36.5 23.5t-43.5 7h-74v-223z" />
    <glyph glyph-name="uni0182" unicode="&#x182;" 
d="M50 0v735h360v-106h-242v-172h76q36 0 71 -8.5t63.5 -30.5t47 -52.5t25.5 -66t7 -71t-7 -70.5t-25.5 -66t-47 -53t-63.5 -30.5t-71 -8.5h-194zM168 106h76q22 0 42.5 9.5t33 28.5t16.5 41t4 44t-4 43.5t-16.5 40.5t-33 28.5t-42.5 9.5h-76v-245z" />
    <glyph glyph-name="uni0183" unicode="&#x183;" 
d="M299 -8q-93 0 -131 86v-78h-118v735h360v-106h-242v-177q38 86 131 86q29 0 57.5 -10t49 -32t32 -49.5t16 -57t4.5 -59.5v-130q0 -30 -4.5 -59.5t-16 -57t-32 -49.5t-49 -32t-57.5 -10zM251 98q19 0 37.5 7t30.5 22.5t16.5 34.5t4.5 38v130q0 19 -4.5 38t-16.5 34.5
t-30.5 22.5t-37.5 7t-36.5 -7.5t-28 -23.5t-14.5 -34t-4 -37v-130q0 -19 4 -37t14.5 -34t28 -23.5t36.5 -7.5z" />
    <glyph glyph-name="uni0184" unicode="&#x184;" 
d="M50 0v523l-106 106l106 106h118v-278h76q36 0 71 -8.5t63.5 -30.5t47 -52.5t25.5 -66t7 -71t-7 -70.5t-25.5 -66t-47 -53t-63.5 -30.5t-71 -8.5h-194zM168 106h76q22 0 42.5 9.5t33 28.5t16.5 41t4 44t-4 43.5t-16.5 40.5t-33 28.5t-42.5 9.5h-76v-245z" />
    <glyph glyph-name="uni0185" unicode="&#x185;" 
d="M299 -8q-93 0 -131 86v-78h-118v523l-106 106l106 106h118v-283q38 86 131 86q29 0 57.5 -10t49 -32t32 -49.5t16 -57t4.5 -59.5v-130q0 -30 -4.5 -59.5t-16 -57t-32 -49.5t-49 -32t-57.5 -10zM251 98q19 0 37.5 7t30.5 22.5t16.5 34.5t4.5 38v130q0 19 -4.5 38
t-16.5 34.5t-30.5 22.5t-37.5 7t-36.5 -7.5t-28 -23.5t-14.5 -34t-4 -37v-130q0 -19 4 -37t14.5 -34t28 -23.5t36.5 -7.5z" />
    <glyph glyph-name="uni0186" unicode="&#x186;" 
d="M252 -8q-39 0 -77.5 10.5t-68 37.5t-44 64.5t-14.5 76.5h118q0 -22 10.5 -43t32 -30.5t43.5 -9.5q20 0 38.5 8t30 24.5t15.5 36t4 39.5v323q0 20 -4 39.5t-15.5 36t-30 24.5t-38.5 8q-22 0 -43.5 -9.5t-32 -30.5t-10.5 -43h-118q0 39 14.5 76.5t44 64.5t68 37.5
t77.5 10.5q34 0 67 -8t61 -28t46 -49t25 -62t7 -67v-323q0 -40 -10.5 -79t-36.5 -70.5t-64 -47t-78 -17.5h-17z" />
    <glyph glyph-name="uni0187" unicode="&#x187;" 
d="M248 -8q-34 0 -67 8t-61 28t-46 49t-25 62t-7 67v323q0 34 7 67t25 62t46 49t61 28t67 8q49 0 85 -13h1v5q0 35 9 69.5t31.5 62.5t53 45.5t65.5 24t70 6.5v-106q-21 0 -42 -5.5t-38 -19.5t-24 -35t-7 -42v-155h-2q2 -13 2 -26h-118q0 22 -10.5 43t-32 30.5t-43.5 9.5
q-20 0 -38.5 -8t-30 -24.5t-15.5 -36t-4 -39.5v-323q0 -20 4 -39.5t15.5 -36t30 -24.5t38.5 -8q22 0 43.5 9.5t32 30.5t10.5 43h118q0 -39 -14.5 -76.5t-44 -64.5t-68 -37.5t-77.5 -10.5z" />
    <glyph glyph-name="uni0188" unicode="&#x188;" 
d="M248 -8q-34 0 -66.5 7.5t-60.5 26.5t-46.5 47t-25.5 61t-7 66v130q0 33 7 66t25.5 61t46.5 47t60.5 26.5t66.5 7.5q49 0 85 -12l1 -1v5q0 35 9 69.5t31.5 62.5t53 45.5t65.5 24t70 6.5v-106q-21 0 -42 -5.5t-38 -19.5t-24 -35t-7 -42v-155h-1q1 -12 1 -23h-118
q0 22 -11 42t-32 29t-43 9q-19 0 -37.5 -7t-30 -22.5t-16 -34.5t-4.5 -38v-130q0 -19 4.5 -38t16 -34.5t30 -22.5t37.5 -7q22 0 43 9t32 29t11 42h118q0 -39 -15 -76t-44.5 -63t-67.5 -36.5t-77 -10.5z" />
    <glyph glyph-name="uni0189" unicode="&#x189;" 
d="M50 0v341h-35v83h35v311h173q42 0 82 -12t71 -40t49.5 -65.5t25.5 -78.5t7 -82v-179q0 -41 -7 -82t-25.5 -78.5t-49.5 -65.5t-71 -40t-82 -12h-173zM168 106h55q24 0 45.5 9.5t36 29t22.5 41.5t10.5 45.5t2.5 46.5v179q0 23 -2.5 46.5t-10.5 45.5t-22.5 41.5t-36 29
t-45.5 9.5h-55v-205h91v-83h-91v-235z" />
    <glyph glyph-name="uni018A" unicode="&#x18a;" 
d="M50 0v662q-29 0 -29 -97h-81q0 36 7 71t30.5 65t59.5 34h13h173q42 0 82 -12t71 -40t49.5 -65.5t25.5 -78.5t7 -82v-179q0 -41 -7 -82t-25.5 -78.5t-49.5 -65.5t-71 -40t-82 -12h-173zM168 106h55q24 0 45.5 9.5t36 29t22.5 41.5t10.5 45.5t2.5 46.5v179q0 23 -2.5 46.5
t-10.5 45.5t-22.5 41.5t-36 29t-45.5 9.5h-55v-523z" />
    <glyph glyph-name="uni018B" unicode="&#x18b;" 
d="M256 0q-36 0 -71 8.5t-63.5 30.5t-47 53t-25.5 66t-7 70.5t7 71t25.5 66t47 52.5t63.5 30.5t71 8.5h76v172h-242v106h360v-735h-194zM256 106h76v245h-76q-22 0 -42.5 -9.5t-33 -28.5t-16.5 -40.5t-4 -43.5t4 -44t16.5 -41t33 -28.5t42.5 -9.5z" />
    <glyph glyph-name="uni018C" unicode="&#x18c;" 
d="M201 -8q-29 0 -57.5 10t-49 32t-32 49.5t-16 57t-4.5 59.5v130q0 30 4.5 59.5t16 57t32 49.5t49 32t57.5 10q93 0 131 -86v177h-242v106h360v-735h-118v78q-38 -86 -131 -86zM249 98q19 0 36.5 7.5t28 23.5t14.5 34t4 37v130q0 19 -4 37t-14.5 34t-28 23.5t-36.5 7.5
t-37.5 -7t-30.5 -22.5t-16.5 -34.5t-4.5 -38v-130q0 -19 4.5 -38t16.5 -34.5t30.5 -22.5t37.5 -7z" />
    <glyph glyph-name="uni018D" unicode="&#x18d;" 
d="M261 -213q-85 0 -181 49v106q26 -14 53.5 -24t56 -17.5t57.5 -7.5q69 0 69 65q0 21 -13 39t-34.5 21.5t-42 7t-41 8.5t-40.5 12.5t-38 19.5t-31.5 28t-21.5 36t-10 41t-2 42v125q0 41 13 80.5t43.5 68.5t70.5 40t81 11t81 -11t70.5 -40t43.5 -68.5t13 -80.5v-125
q0 -89 -70 -133q46 -43 46 -121q0 -46 -20.5 -89t-63.5 -63t-89 -20zM305 118q35 29 35 95v125q0 19 -5 37t-18 31.5t-30.5 19.5t-36.5 6t-36.5 -6t-30.5 -19.5t-18 -31.5t-5 -37v-125q0 -17 5 -34.5t19.5 -28.5t31.5 -15.5t34 -7.5q13 -2 26.5 -4t26.5 -4z" />
    <glyph glyph-name="uni018E" unicode="&#x18e;" 
d="M50 0v106h257v179h-197v106h197v238h-257v106h375v-735h-375z" />
    <glyph glyph-name="uni018F" unicode="&#x18f;" 
d="M250 -8q-42 0 -82.5 12t-71 42.5t-42.5 71t-12 82.5v221h298v114q0 19 -4.5 38t-17 34.5t-31 22.5t-38.5 7t-40.5 -6.5t-33.5 -23.5t-13 -38h-118q1 38 17 73t46.5 59t67.5 33t74 9q34 0 67 -7.5t61 -26t47 -47t26.5 -61t7.5 -66.5v-335q0 -42 -12 -82.5t-42.5 -71
t-71 -42.5t-82.5 -12zM250 98q19 0 37.5 7t31 22.5t17 34.5t4.5 38v115h-180v-115q0 -19 4.5 -38t17 -34.5t31 -22.5t37.5 -7z" />
    <glyph glyph-name="uni0190" unicode="&#x190;" 
d="M251 -8q-44 0 -87 13.5t-74 45.5t-43.5 75t-12.5 87q0 122 95 171q-79 46 -79 153q0 41 11.5 80.5t40 70t68 43t80.5 12.5q35 0 70 -9t63.5 -31.5t43.5 -56t17 -68.5h-118q-1 18 -12 33t-28.5 20.5t-35.5 5.5q-19 0 -36 -7.5t-28 -23t-14.5 -34t-3.5 -37t4 -36.5
t14.5 -33.5t28 -23t35.5 -7.5h60v-106h-60q-21 0 -41.5 -8t-33.5 -25.5t-18 -38.5t-5 -43t4.5 -43t18 -39t34 -26t42.5 -8q20 0 40 5.5t35 21t16 36.5h118q-2 -38 -19.5 -72t-48 -57t-67.5 -31.5t-74 -8.5z" />
    <glyph glyph-name="uni0191" unicode="&#x191;" 
d="M-36 -208v106q21 0 42 5.5t38 19.5t24 35t7 42v735h375v-106h-257v-179h197v-106h-197v-344q0 -35 -9 -69.5t-31.5 -62.5t-53 -45.5t-65.5 -24t-70 -6.5z" />
    <glyph glyph-name="florin" unicode="&#x192;" 
d="M80 -195v106h4q20 0 40.5 2.5t37.5 14.5t23 32t6 40v403h-116v106h116v71q0 35 6.5 70t29 62.5t55 42t67.5 17.5t70 3h1v-106h-4q-20 0 -40.5 -2.5t-37.5 -14.5t-23 -32t-6 -40v-71h116v-106h-116v-403q0 -35 -6.5 -70t-29 -62.5t-55 -42t-67.5 -17.5t-70 -3h-1z" />
    <glyph glyph-name="uni0193" unicode="&#x193;" 
d="M202 -8q-30 0 -59 10.5t-49.5 33.5t-32 51.5t-15.5 58.5t-4 60v323q0 34 7 67t25 62t46 49t61 28t67 8q39 0 68 -7l18 -6v5q0 35 9 69.5t31.5 62.5t53 45.5t65.5 24t70 6.5v-106q-21 0 -42 -5.5t-38 -19.5t-24 -35t-7 -42v-155h-2q2 -13 2 -26h-118q0 22 -10.5 43
t-32 30.5t-43.5 9.5q-20 0 -38.5 -8t-30 -24.5t-15.5 -36t-4 -39.5v-323q0 -20 4 -39.5t16 -36t31 -24.5t39 -8q19 0 36.5 8.5t28 25.5t14 36t3.5 38v97h-82v106h200v-409h-107v112q-33 -120 -141 -120z" />
    <glyph glyph-name="uni0194" unicode="&#x194;" 
d="M250 -205q-22 0 -43 6t-37 21.5t-21.5 37t-5.5 42.5q0 133 59 372q-57 197 -160 461h118q51 -153 90 -285q39 132 90 285h118q-103 -264 -160 -461q59 -239 59 -372q0 -21 -5.5 -42.5t-21.5 -37t-37 -21.5t-43 -6zM250 -127q21 0 21 26q0 75 -21 181v-1
q-21 -105 -21 -180q0 -26 21 -26z" />
    <glyph glyph-name="uni0195" unicode="&#x195;" 
d="M333 -8q-26 0 -52 7t-46 25t-28.5 44t-8.5 52v290q0 34 -31 34q-32 0 -32 -34v-410h-104v735h104v-217l3 2q23 18 60 18q23 0 45 -9.5t35.5 -29t18.5 -43t5 -46.5v-290q0 -34 31 -34q32 0 32 34v410h104v-410q0 -26 -8.5 -52t-28.5 -44t-46 -25t-53 -7z" />
    <glyph glyph-name="uni0196" unicode="&#x196;" 
d="M352 0q-32 0 -63 8.5t-54.5 31t-33.5 53t-10 62.5v474h-116v106h234v-580q0 -49 43 -49h82v-106h-82z" />
    <glyph glyph-name="uni0197" unicode="&#x197;" 
d="M119 340v84h262v-84h-262zM75 0v106h116v523h-116v106h350v-106h-116v-523h116v-106h-350z" />
    <glyph glyph-name="uni0198" unicode="&#x198;" 
d="M183 436l100 193q-24 -1 -46.5 -11t-36.5 -30.5t-16 -44.5q-1 -6 -1 -16v-91zM66 0v527q0 35 9 69.5t31 62.5t53 45.5t65.5 24t70.5 6.5v-85l43 85h130l-187 -335l187 -400h-128l-128 275l-29 -51v-224h-117z" />
    <glyph glyph-name="uni0199" unicode="&#x199;" 
d="M66 0v527q0 35 9 69.5t31 62.5t53 45.5t65.5 24t70.5 6.5v-106q-22 0 -43 -5.5t-37.5 -19.5t-24 -35t-7.5 -42v-220l149 223h137l-175 -243l175 -287h-134l-114 186l-38 -53v-133h-117z" />
    <glyph glyph-name="uni019A" unicode="&#x19a;" 
d="M122 340v84h262v-84h-262zM75 0v106h123v523h-109v106h227v-629h109v-106h-350z" />
    <glyph glyph-name="uni019B" unicode="&#x19b;" 
d="M27 0l161 519l-77 -38l-42 74l97 49q-23 76 -45 131h127l16 -52l8 -27l77 39l42 -74l-94 -47l176 -574h-126l-95 369l-99 -369h-126z" />
    <glyph glyph-name="uni019C" unicode="&#x19c;" 
d="M124 -8q-24 0 -45 14.5t-31 37.5t-13.5 47.5t-3.5 48.5v595h104v-595q0 -54 32 -54q31 0 31 54v595h104v-595q0 -54 31 -54q32 0 32 54v595h104v-735h-104v43q-24 -51 -74 -51q-63 0 -84 75q-22 -75 -83 -75z" />
    <glyph glyph-name="uni019D" unicode="&#x19d;" 
d="M-61 -208v106q21 0 42 5.5t38 19.5t24 35t7 42v735h126l177 -553q-6 43 -11.5 86t-7.5 86.5t-2 86.5v294h118v-735h-126l-177 553q6 -43 11.5 -86t7.5 -86.5t2 -86.5v-294q0 -35 -9 -69.5t-31.5 -62.5t-53 -45.5t-65.5 -24t-70 -6.5z" />
    <glyph glyph-name="uni019E" unicode="&#x19e;" 
d="M332 -205v535q0 19 -3.5 37t-14.5 34t-28 23.5t-36 7.5t-36 -7.5t-28 -23.5t-14.5 -34t-3.5 -37v-330h-118v530h118v-78q38 86 130 86q29 0 56.5 -10.5t47 -33t30 -50t14.5 -56.5t4 -58v-535h-118z" />
    <glyph glyph-name="uni019F" unicode="&#x19f;" 
d="M250 -8q-42 0 -83.5 13t-71 44.5t-41.5 73t-12 83.5v323q0 42 12 83.5t41.5 73t71 44.5t83.5 13t83.5 -13t71 -44.5t41.5 -73t12 -83.5v-323q0 -42 -12 -83.5t-41.5 -73t-71 -44.5t-83.5 -13zM250 98q20 0 39 8t31 24.5t16 36t4 39.5v120h-180v-120q0 -20 4 -39.5t16 -36
t31 -24.5t39 -8zM160 409h180v120q0 20 -4 39.5t-16 36t-31 24.5t-39 8t-39 -8t-31 -24.5t-16 -36t-4 -39.5v-120z" />
    <glyph glyph-name="Ohorn" unicode="&#x1a0;" 
d="M250 -8q-42 0 -83.5 13t-71 44.5t-41.5 73t-12 83.5v323q0 42 12 83.5t41.5 73t71 44.5t83.5 13t82 -12.5t69.5 -43t43.5 -69.5v-1q36 37 49 82q-44 8 -44 58q0 15 6.5 30t21.5 21.5t30 6.5q16 0 30.5 -6.5t21 -21.5t6.5 -30v-10q-2 -117 -104 -198l-4 -3v-17v-323
q0 -42 -12 -83.5t-41.5 -73t-71 -44.5t-83.5 -13zM566 757zM250 98q20 0 39 8t31 24.5t16 36t4 39.5v323q0 20 -4 39.5t-16 36t-31 24.5t-39 8t-39 -8t-31 -24.5t-16 -36t-4 -39.5v-323q0 -20 4 -39.5t16 -36t31 -24.5t39 -8zM566 749v5v-5zM566 755zM566 756z" />
    <glyph glyph-name="ohorn" unicode="&#x1a1;" 
d="M250 -8q-42 0 -82.5 12t-71 42.5t-42.5 71t-12 82.5v130q0 42 12 82.5t42.5 71t71 42.5t82.5 12q41 0 81 -11.5t70 -41.5t44 -68l1 -4q35 36 48 81q-44 8 -44 58q0 15 6.5 30t21.5 21.5t30 6.5q16 0 30.5 -6.5t21 -21.5t6.5 -30v-10q-2 -117 -104 -198l-4 -3v-11v-130
q0 -42 -12 -82.5t-42.5 -71t-71 -42.5t-82.5 -12zM566 552zM250 98q19 0 37.5 7t31 22.5t17 34.5t4.5 38v130q0 19 -4.5 38t-17 34.5t-31 22.5t-37.5 7t-37.5 -7t-31 -22.5t-17 -34.5t-4.5 -38v-130q0 -19 4.5 -38t17 -34.5t31 -22.5t37.5 -7zM566 544v5v-5zM566 550z
M566 551z" />
    <glyph glyph-name="uni01A2" unicode="&#x1a2;" 
d="M373 -205v838q-30 -11 -63 -15v-498q0 -27 -9.5 -53t-31 -44t-48.5 -24.5t-54 -6.5q-28 0 -54.5 6.5t-48.5 24.5t-31.5 44t-9.5 53v495q0 27 9.5 53t31.5 44t48.5 24.5t54.5 6.5q68 0 106 -34h1q58 2 99 26h104v-940h-104zM167 86q39 0 39 34v495q0 34 -39 34
q-40 0 -40 -34v-495q0 -34 40 -34z" />
    <glyph glyph-name="uni01A3" unicode="&#x1a3;" 
d="M373 -205v633q-30 -11 -63 -15v-293q0 -27 -9.5 -53t-31 -44t-48.5 -24.5t-54 -6.5q-28 0 -54.5 6.5t-48.5 24.5t-31.5 44t-9.5 53v290q0 27 9.5 53t31.5 44t48.5 24.5t54.5 6.5q68 0 106 -34h1q58 2 99 26h104v-735h-104zM167 86q39 0 39 34v290q0 34 -39 34
q-40 0 -40 -34v-290q0 -34 40 -34z" />
    <glyph glyph-name="uni01A4" unicode="&#x1a4;" 
d="M63 0v662q-29 0 -29 -97h-82q0 23 2.5 45.5t10 44.5t20.5 41t34 29t44 10h177q37 0 73 -8.5t67 -30t51 -53.5t27.5 -68.5t7.5 -73.5t-7.5 -73.5t-27.5 -68t-51 -53t-67 -30t-73 -8.5h-60v-268h-117zM180 374h60q24 0 46.5 9t37 28.5t19.5 43t5 47t-5 47t-19.5 43
t-37 28.5t-46.5 9h-60v-255z" />
    <glyph glyph-name="uni01A5" unicode="&#x1a5;" 
d="M50 -205v740q0 33 7 65.5t24.5 60.5t45 47.5t60 27t65.5 7.5q38 0 76 -10.5t67 -37t43 -63.5t14 -76h-118q0 22 -10 42t-30.5 29.5t-41.5 9.5q-19 0 -36.5 -7.5t-28.5 -23t-15 -34t-4 -37.5v-83q38 86 131 86q29 0 57.5 -10t49 -32t32 -49.5t16 -57t4.5 -59.5v-130
q0 -30 -4.5 -59.5t-16 -57t-32 -49.5t-49 -32t-57.5 -10q-93 0 -131 86v-283h-118zM251 98q19 0 37.5 7t30.5 22.5t16.5 34.5t4.5 38v130q0 19 -4.5 38t-16.5 34.5t-30.5 22.5t-37.5 7t-36.5 -7.5t-28 -23.5t-14.5 -34t-4 -37v-130q0 -19 4 -37t14.5 -34t28 -23.5t36.5 -7.5
z" />
    <glyph glyph-name="uni01A6" unicode="&#x1a6;" 
d="M353 -205l-145 385h-40v-180h-118v735h118v-110h82q35 0 70 -8t64 -28.5t48 -51t26.5 -65t7.5 -69.5q0 -46 -13 -90t-47 -76.5t-78 -45.5l149 -396h-124zM168 286h82q22 0 42 8.5t33.5 26.5t18 39t4.5 42.5t-4.5 43t-18 39t-33.5 26t-42 8.5h-82v-233z" />
    <glyph glyph-name="uni01A7" unicode="&#x1a7;" 
d="M252 -8q-41 0 -80 12.5t-67 43t-42 69.5t-14 79t16 77t44 65t62.5 48t70 37t63.5 48t28 70q0 18 -5 35.5t-16.5 32t-28.5 21.5t-35 7q-22 0 -42.5 -11t-30 -32t-9.5 -43h-118q0 39 14 76.5t42.5 65t66.5 39t77 11.5q41 0 80 -12.5t67 -43t42 -69.5t14 -79t-16 -77
t-44 -65t-62.5 -48t-70 -37t-63.5 -48t-28 -70q0 -18 5 -35.5t16.5 -32t28.5 -21.5t35 -7q22 0 42.5 11t30 32t9.5 43h118q0 -39 -14 -76.5t-42.5 -65t-66.5 -39t-77 -11.5z" />
    <glyph glyph-name="uni01A8" unicode="&#x1a8;" 
d="M252 -8q-36 0 -72.5 8t-66.5 30t-46.5 56t-16.5 71q0 33 15.5 63t42.5 50t59 30t64 14.5t67.5 18.5t35.5 47q0 19 -15.5 32t-34 16.5t-36.5 3.5q-19 0 -37 -4.5t-31.5 -18.5t-13.5 -32h-118q1 36 17.5 69t46 54.5t65 29.5t71.5 8t72.5 -8t66.5 -30t46.5 -56t16.5 -71
q0 -33 -15.5 -63t-42.5 -50t-59 -30t-64 -14.5t-67.5 -18.5t-35.5 -47q0 -19 15.5 -32t34 -16.5t36.5 -3.5q19 0 37 4.5t31.5 18.5t13.5 32h118q-1 -36 -17.5 -69t-46 -54.5t-65 -29.5t-71.5 -8z" />
    <glyph glyph-name="uni01A9" unicode="&#x1a9;" 
d="M50 0v106l147 262l-147 261v106h400v-106h-279l147 -261l-147 -262h279v-106h-400z" />
    <glyph glyph-name="uni01AA" unicode="&#x1aa;" 
d="M420 -208q-35 0 -70 6.5t-66 24t-53 45.5t-31 62.5t-9 69.5v502q-9 -1 -19 -1q-24 0 -47.5 6.5t-41 23.5t-25 40t-7.5 47t7.5 47.5t25.5 40t41.5 23t47.5 6.5q26 0 50.5 -6t45.5 -21.5t30.5 -40t9.5 -49.5v-618q0 -21 7 -42t24 -35t38 -19.5t42 -5.5v-106zM172 579
q11 0 19 5v34q0 39 -20 39q-10 0 -18.5 -5.5t-12 -14.5t-3.5 -19q0 -39 35 -39z" />
    <glyph glyph-name="uni01AB" unicode="&#x1ab;" 
d="M264 -208v106q21 0 42 5.5t37.5 19.5t24 34t7.5 42q-24 -7 -57 -7q-32 0 -63 9.5t-54 32t-36.5 52t-18.5 61t-5 63.5v214h-92v106h92v205h118v-205h140v-106h-140v-214q0 -24 3.5 -47t17.5 -44t38 -21q18 0 32.5 13t19 31t5.5 36v10h118v-1v-14v-6v-167q0 -35 -9 -69.5
t-31.5 -62.5t-53.5 -45.5t-65.5 -24t-69.5 -6.5zM493 178v9v-9z" />
    <glyph glyph-name="uni01AC" unicode="&#x1ac;" 
d="M191 0v662h-31q-28 0 -28 -97h-82q0 36 7 71t30.5 65t59.5 34h13h302v-106h-153v-629h-118z" />
    <glyph glyph-name="uni01AD" unicode="&#x1ad;" 
d="M318 -8q-32 0 -63 9.5t-54 32t-36.5 52t-18.5 61t-5 63.5v214h-92v106h92q0 35 9 69.5t31 62.5t53 45.5t66 24t70 6.5v-106q-21 0 -42 -5.5t-38 -19.5t-24 -35t-7 -42h140v-106h-140v-214q0 -24 3.5 -47t17.5 -44t38 -21q19 0 33.5 14t19 33t4.5 38v5h118v-11
q0 -36 -11 -71t-35 -62.5t-58.5 -39.5t-70.5 -12z" />
    <glyph glyph-name="uni01AE" unicode="&#x1ae;" 
d="M420 -208q-36 0 -72 3.5t-69 20t-54.5 46.5t-27.5 66t-6 72v629h-153v106h424v-106h-153v-629q0 -22 5 -44t22.5 -36.5t39.5 -18t44 -3.5v-106z" />
    <glyph glyph-name="Uhorn" unicode="&#x1af;" 
d="M391 629l-20 55q103 35 125 132q-46 6 -46 57q0 16 6.5 30.5t21.5 21t30 6.5q16 0 30.5 -6.5t21 -21t6.5 -30.5v-10q0 -52 -20.5 -101.5t-62.5 -83t-92 -49.5zM566 868v3v-3zM250 -8q-42 0 -82 13.5t-68 45.5t-39 72.5t-11 82.5v529h118v-529q0 -19 3.5 -38t14 -36
t28 -25.5t36.5 -8.5t36.5 8.5t28 25.5t14 36t3.5 38v529h118v-529q0 -42 -11 -82.5t-39 -72.5t-68 -45.5t-82 -13.5z" />
    <glyph glyph-name="uhorn" unicode="&#x1b0;" 
d="M391 424l-20 55q103 35 125 132q-46 6 -46 57q0 16 6.5 30.5t21.5 21t30 6.5q16 0 30.5 -6.5t21 -21t6.5 -30.5v-10q0 -52 -20.5 -101.5t-62.5 -83t-92 -49.5zM566 663v3v-3zM202 -8q-29 0 -56.5 10.5t-47 33t-30 50t-14.5 56.5t-4 58v330h118v-330q0 -19 3.5 -37
t14.5 -34t28 -23.5t36 -7.5t36 7.5t28 23.5t14.5 34t3.5 37v330h118v-530h-118v78q-38 -86 -130 -86z" />
    <glyph glyph-name="uni01B1" unicode="&#x1b1;" 
d="M250 -8q-42 0 -82 13.5t-68 45.5t-39 72.5t-11 82.5v264q0 113 72 158v1h-72v106h160v-165h-3q-19 -1 -27 -22t-10 -39.5t-2 -38.5v-264q0 -19 3.5 -38t14 -36t28 -25.5t36.5 -8.5t36.5 8.5t28 25.5t14 36t3.5 38v264q0 20 -2 38.5t-10 39.5t-28 22h-2v165h160v-106h-72
v-1q72 -45 72 -158v-264q0 -42 -11 -82.5t-39 -72.5t-68 -45.5t-82 -13.5z" />
    <glyph glyph-name="uni01B2" unicode="&#x1b2;" 
d="M250 -8q-42 0 -82 13.5t-68 45.5t-39 72.5t-11 82.5v529h118v-529q0 -19 3.5 -38t14 -36t28 -25.5t36.5 -8.5t36.5 8.5t28 25.5t14 36t3.5 38v321q0 19 -3.5 37t-14.5 34t-28 23.5t-36 7.5v106q33 0 65 -7.5t59 -27t45 -47.5t24.5 -60.5t6.5 -65.5v-321q0 -42 -11 -82.5
t-39 -72.5t-68 -45.5t-82 -13.5z" />
    <glyph glyph-name="uni01B3" unicode="&#x1b3;" 
d="M191 0v311l-161 424h119l94 -272q12 40 21.5 81t20 82t43 69.5t74.5 34t84 5.5h21v-106h-18h-18q-22 0 -43.5 -7.5t-29.5 -29.5t-12.5 -43.5t-10 -43t-11.5 -43l-12 -43t-12.5 -42.5t-14 -42t-16.5 -41v-294h-118z" />
    <glyph glyph-name="uni01B4" unicode="&#x1b4;" 
d="M121 -205q21 68 56 168l15 41l-165 526h126l104 -383l74 246q8 27 20.5 53t35 44.5t50 27.5t56 10.5t56.5 1.5h10v-106h-5q-18 0 -36 -1.5t-34.5 -9.5t-26 -23.5t-15.5 -31.5l-154 -431q-14 -40 -23 -70q-10 -33 -17 -62h-127z" />
    <glyph glyph-name="uni01B5" unicode="&#x1b5;" 
d="M119 340v84h262v-84h-262zM50 0v106l265 523h-265v106h400v-106l-265 -523h265v-106h-400z" />
    <glyph glyph-name="uni01B6" unicode="&#x1b6;" 
d="M119 233v84h262v-84h-262zM50 0v106l259 318h-259v106h400v-106l-259 -318h259v-106h-400z" />
    <glyph glyph-name="uni01B7" unicode="&#x1b7;" 
d="M252 0q-39 0 -77.5 11t-67.5 38t-43.5 64t-15.5 76h118q0 -23 11 -43.5t31.5 -30t43.5 -9.5q20 0 39 9t30 27t15 38.5t4 41t-4 40.5t-15.5 38t-30.5 26.5t-40 8.5h-120v106l149 188h-229v106h370v-106l-149 -188q41 -2 78.5 -19t63 -49t35.5 -71.5t10 -79.5
q0 -43 -11 -85.5t-40 -75.5t-70.5 -47t-84.5 -14z" />
    <glyph glyph-name="uni01B8" unicode="&#x1b8;" 
d="M248 0q-43 0 -84.5 14t-70.5 47t-40 75.5t-11 85.5q0 40 10 79.5t35.5 71.5t63 49t78.5 19l-149 188v106h370v-106h-229l149 -188v-106h-120q-21 0 -40 -8.5t-30.5 -26.5t-15.5 -38t-4 -40.5t4 -41t15 -38.5t30 -27t39 -9q23 0 43.5 9.5t31.5 30t11 43.5h118
q-1 -39 -15.5 -76t-43.5 -64t-67.5 -38t-77.5 -11z" />
    <glyph glyph-name="uni01B9" unicode="&#x1b9;" 
d="M248 -205q-43 0 -84.5 14t-70.5 47t-40 75.5t-11 85.5q0 40 10 79.5t35.5 71.5t63 49t78.5 19l-149 188v106h370v-106h-229l149 -188v-106h-120q-21 0 -40 -8.5t-30.5 -26.5t-15.5 -38t-4 -40.5t4 -41t15 -38.5t30 -27t39 -9q23 0 43.5 9.5t31.5 30t11 43.5h118
q-1 -39 -15.5 -76t-43.5 -64t-67.5 -38t-77.5 -11z" />
    <glyph glyph-name="uni01BA" unicode="&#x1ba;" 
d="M210 -205q-31 0 -61 7.5t-54 27.5t-34.5 49.5t-10.5 60.5t10.5 60t34.5 49.5t54 28t61 7.5h20q23 0 46 3.5t43.5 17.5t20.5 38q0 15 -8 28t-22.5 20t-29.5 9.5t-30 2.5h-120v106l149 114h-229v106h370v-106l-149 -115q35 -1 69 -11t62.5 -31.5t42 -54.5t13.5 -68
q0 -32 -12 -62t-36.5 -51t-54.5 -32.5t-61.5 -15.5t-63.5 -4h-20q-42 0 -42 -39t42 -39h240v-106h-240z" />
    <glyph glyph-name="uni01BB" unicode="&#x1bb;" 
d="M25 340v84h450v-84h-450zM50 0v1q0 45 4 90t20.5 87.5t43.5 78.5t61 66t71 56t61.5 65.5t24.5 84.5q0 19 -4 38.5t-15 36t-29 25t-38 8.5q-22 0 -43 -10t-31 -30.5t-10 -43.5h-118q0 39 14.5 76.5t43.5 64.5t67 38t77 11q42 0 82.5 -13.5t69.5 -45t40.5 -72.5t11.5 -83
q0 -53 -22 -101.5t-62.5 -83t-82 -66.5t-71 -76.5t-40.5 -95.5h274v-106h-400z" />
    <glyph glyph-name="uni01BC" unicode="&#x1bc;" 
d="M251 -8q-40 0 -79 13t-67.5 43t-42 69t-14.5 79h118q0 -18 5 -36t16 -33t28.5 -22t35.5 -7q23 0 43 13t29.5 34.5t13 44t3.5 45.5t-3 45.5t-12.5 43.5t-28.5 34.5t-41 13.5t-41.5 -11t-28 -31.5t-9.5 -42.5h-118v448h372v-106h-254v-163q33 12 79 12q36 0 70.5 -10.5
t61.5 -35t43 -57t22 -68.5t6 -72t-6 -72t-22.5 -68.5t-44 -57t-63 -35t-71.5 -10.5z" />
    <glyph glyph-name="uni01BD" unicode="&#x1bd;" 
d="M252 -8q-37 0 -73 8t-66 29.5t-47 55t-18 70.5h118q0 -19 14.5 -33.5t33.5 -19t38 -4.5q21 0 42 6.5t33.5 25t12.5 40t-11.5 40t-31.5 25t-41 6.5q-18 0 -35 -3.5t-30.5 -15.5t-14.5 -30h-118v338h372v-106h-254v-87q34 10 80 10q38 0 75.5 -9t68 -33t44.5 -60.5t14 -75
t-14.5 -75t-46 -60.5t-69.5 -33t-76 -9z" />
    <glyph glyph-name="uni01BE" unicode="&#x1be;" 
d="M249 -8q-37 0 -74 9t-66.5 32.5t-45 58.5t-15.5 72v6h118v-2q0 -20 11.5 -38t31.5 -25t40 -7q21 0 41 6.5t31 24.5t11 39q0 29 -21.5 51t-42.5 42t-38 43.5t-27 51.5h-58v83h46v12v79h118v-79v-12h46v-83h-21q17 -23 39 -41.5t40 -41t27.5 -49.5t9.5 -56q0 -38 -14 -74
t-44.5 -60t-67.5 -33t-75 -9z" />
    <glyph glyph-name="uni01BF" unicode="&#x1bf;" 
d="M50 -205v735h118v-19q43 27 93 27q55 0 104 -29.5t71 -82t22 -107.5q0 -69 -30 -132.5t-72 -117.5t-90 -104t-98 -97v-73h-118zM168 20q172 171 172 297q0 27 -8 53.5t-30 44t-49 17.5q-28 0 -52 -17t-33 -43v-352z" />
    <glyph glyph-name="uni01C0" unicode="&#x1c0;" 
d="M191 -143v966h118v-966h-118z" />
    <glyph glyph-name="uni01C1" unicode="&#x1c1;" 
d="M288 -143v966h99v-966h-99zM113 -143v966h99v-966h-99z" />
    <glyph glyph-name="uni01C2" unicode="&#x1c2;" 
d="M191 -143v330h-141v100h141v106h-141v100h141v330h118v-330h141v-100h-141v-106h141v-100h-141v-330h-118z" />
    <glyph glyph-name="uni01C3" unicode="&#x1c3;" 
d="M191 278v457h118v-457h-118zM250 -8q-23 0 -45 10t-31.5 31.5t-9.5 45t9.5 45t31.5 31.5t45 10t45 -10t32 -31.5t10 -45t-10 -45t-32 -31.5t-45 -10z" />
    <glyph glyph-name="uni01C4" unicode="&#x1c4;" 
d="M341 772l-83 150l52 53l64 -133l63 133l52 -53l-83 -150h-65zM10 0v735h80q36 0 67 -19t48.5 -51t26.5 -66.5t12.5 -70t3.5 -71.5v-179q0 -36 -3.5 -71.5t-12.5 -70t-26.5 -66.5t-48.5 -51t-67 -19h-80zM257 0v106l142 523h-142v106h233v-106l-142 -523h142v-106h-233z
M90 106q35 0 52.5 34.5t22 68.5t4.5 69v179q0 35 -4.5 69t-22 68.5t-52.5 34.5v-523z" />
    <glyph glyph-name="uni01C5" unicode="&#x1c5;" 
d="M341 567l-83 150l52 53l64 -133l63 133l52 -53l-83 -150h-65zM10 0v735h80q36 0 67 -19t48.5 -51t26.5 -66.5t12.5 -70t3.5 -71.5v-179q0 -36 -3.5 -71.5t-12.5 -70t-26.5 -66.5t-48.5 -51t-67 -19h-80zM90 106q35 0 52.5 34.5t22 68.5t4.5 69v179q0 35 -4.5 69t-22 68.5
t-52.5 34.5v-523zM257 0v106l138 318h-138v106h233v-106l-138 -318h138v-106h-233z" />
    <glyph glyph-name="uni01C6" unicode="&#x1c6;" 
d="M341 567l-83 150l52 53l64 -133l63 133l52 -53l-83 -150h-65zM93 -8q-41 0 -60 43t-23.5 83.5t-4.5 81.5v130q0 41 4.5 81.5t23.5 83.5t60 43q49 0 70 -83v280h80v-735h-80v75q-21 -83 -70 -83zM257 0v106l138 318h-138v106h233v-106l-138 -318h138v-106h-233zM126 98
q37 0 37 102v130q0 102 -37 102q-20 0 -29 -21.5t-11 -41t-2 -39.5v-130q0 -20 2 -39.5t11 -41t29 -21.5z" />
    <glyph glyph-name="uni01C7" unicode="&#x1c7;" 
d="M27 0v735h79v-629h142v-106h-221zM357 -8q-25 0 -46 14.5t-32.5 36.5t-18 46t-9.5 49t-3 50h79q0 -13 1 -25.5t3 -25t8 -26t18 -13.5q32 0 32 108v423h-66v106h145v-529q0 -27 -2 -53.5t-8.5 -52.5t-18 -50.5t-33.5 -41t-49 -16.5z" />
    <glyph glyph-name="uni01C8" unicode="&#x1c8;" 
d="M403 607q-18 0 -31.5 12.5t-17.5 30t-4 35.5t4 35.5t17.5 30.5t31.5 13q17 0 31 -13t18 -30.5t4 -35.5t-4 -35.5t-18 -30t-31 -12.5zM27 0v735h79v-629h142v-106h-221zM339 -213q-25 0 -46.5 12.5t-34 33.5t-20 44.5t-11 47.5t-3.5 48h79q0 -16 2.5 -31.5t10 -32
t23.5 -16.5q15 0 22.5 16t10 31t3.5 30.5t1 30.5v423h-65v106h145v-529q0 -27 -2.5 -54t-9.5 -53.5t-19.5 -51t-35.5 -40t-50 -15.5z" />
    <glyph glyph-name="uni01C9" unicode="&#x1c9;" 
d="M403 607q-18 0 -31.5 12.5t-17.5 30t-4 35.5t4 35.5t17.5 30.5t31.5 13q17 0 31 -13t18 -30.5t4 -35.5t-4 -35.5t-18 -30t-31 -12.5zM22 0v106h69v523h-61v106h140v-629h61v-106h-209zM339 -213q-25 0 -46.5 12.5t-34 33.5t-20 44.5t-11 47.5t-3.5 48h79q0 -16 2.5 -31.5
t10 -32t23.5 -16.5q15 0 22.5 16t10 31t3.5 30.5t1 30.5v423h-65v106h145v-529q0 -27 -2.5 -54t-9.5 -53.5t-19.5 -51t-35.5 -40t-50 -15.5z" />
    <glyph glyph-name="uni01CA" unicode="&#x1ca;" 
d="M10 0v735h73l93 -498q-13 102 -13 204v294h80v-735h-73l-93 498q12 -102 12 -204v-294h-79zM357 -8q-25 0 -46 14.5t-32.5 36.5t-18 46t-9.5 49t-3 50h79q0 -13 1 -25.5t3 -25t8 -26t18 -13.5q32 0 32 108v423h-66v106h145v-529q0 -27 -2 -53.5t-8.5 -52.5t-18 -50.5
t-33.5 -41t-49 -16.5z" />
    <glyph glyph-name="uni01CB" unicode="&#x1cb;" 
d="M403 607q-18 0 -31.5 12.5t-17.5 30t-4 35.5t4 35.5t17.5 30.5t31.5 13q17 0 31 -13t18 -30.5t4 -35.5t-4 -35.5t-18 -30t-31 -12.5zM10 0v735h73l93 -498q-13 102 -13 204v294h80v-735h-73l-93 498q12 -102 12 -204v-294h-79zM339 -213q-25 0 -46.5 12.5t-34 33.5
t-20 44.5t-11 47.5t-3.5 48h79q0 -16 2.5 -31.5t10 -32t23.5 -16.5q15 0 22.5 16t10 31t3.5 30.5t1 30.5v423h-65v106h145v-529q0 -27 -2.5 -54t-9.5 -53.5t-19.5 -51t-35.5 -40t-50 -15.5z" />
    <glyph glyph-name="uni01CC" unicode="&#x1cc;" 
d="M403 607q-18 0 -31.5 12.5t-17.5 30t-4 35.5t4 35.5t17.5 30.5t31.5 13q17 0 31 -13t18 -30.5t4 -35.5t-4 -35.5t-18 -30t-31 -12.5zM10 0v530h79v-75q22 83 71 83q29 0 47 -29t24.5 -58.5t9 -60t2.5 -60.5v-330h-80v330q0 15 -1 29.5t-3.5 28.5t-10 29t-22.5 15
q-14 0 -21.5 -15t-10.5 -29t-4 -28.5t-1 -29.5v-330h-79zM339 -213q-25 0 -46.5 12.5t-34 33.5t-20 44.5t-11 47.5t-3.5 48h79q0 -16 2.5 -31.5t10 -32t23.5 -16.5q15 0 22.5 16t10 31t3.5 30.5t1 30.5v423h-65v106h145v-529q0 -27 -2.5 -54t-9.5 -53.5t-19.5 -51t-35.5 -40
t-50 -15.5z" />
    <glyph glyph-name="uni01CD" unicode="&#x1cd;" 
d="M194 769l-138 147l86 66l108 -140l108 140l86 -66l-138 -147h-112zM42 0l140 735h136l140 -735h-118l-30 159h-120l-30 -159h-118zM210 265h80l-16 83q-17 91 -24 146q-7 -55 -24 -146z" />
    <glyph glyph-name="uni01CE" unicode="&#x1ce;" 
d="M194 564l-138 147l86 66l108 -140l108 140l86 -66l-138 -147h-112zM189 -8q-31 0 -61 11t-50 35.5t-28 55.5t-8 62q0 33 10.5 64.5t34.5 54.5t54.5 36t63 18t65.5 5h62v26q0 21 -11 39.5t-31 25.5t-41 7q-19 0 -38 -5.5t-31.5 -21.5t-12.5 -36h-118q0 37 15.5 71.5
t45.5 57.5t66 31.5t73 8.5q30 0 60.5 -5.5t57.5 -20t47 -38.5t28 -54t8 -60v-360h-118v74q-42 -82 -143 -82zM237 98q17 0 34.5 4t32.5 15t21.5 28t6.5 35v48h-62q-18 0 -36.5 -2.5t-35.5 -10.5t-27.5 -23.5t-10.5 -34t11 -34t29 -20.5t37 -5z" />
    <glyph glyph-name="uni01CF" unicode="&#x1cf;" 
d="M194 769l-138 147l86 66l108 -140l108 140l86 -66l-138 -147h-112zM75 0v106h116v523h-116v106h350v-106h-116v-523h116v-106h-350z" />
    <glyph glyph-name="uni01D0" unicode="&#x1d0;" 
d="M194 564l-138 147l86 66l108 -140l108 140l86 -66l-138 -147h-112zM75 0v106h123v318h-109v106h227v-424h109v-106h-350z" />
    <glyph glyph-name="uni01D1" unicode="&#x1d1;" 
d="M194 769l-138 147l86 66l108 -140l108 140l86 -66l-138 -147h-112zM250 -8q-42 0 -83.5 13t-71 44.5t-41.5 73t-12 83.5v323q0 42 12 83.5t41.5 73t71 44.5t83.5 13t83.5 -13t71 -44.5t41.5 -73t12 -83.5v-323q0 -42 -12 -83.5t-41.5 -73t-71 -44.5t-83.5 -13zM250 98
q20 0 39 8t31 24.5t16 36t4 39.5v323q0 20 -4 39.5t-16 36t-31 24.5t-39 8t-39 -8t-31 -24.5t-16 -36t-4 -39.5v-323q0 -20 4 -39.5t16 -36t31 -24.5t39 -8z" />
    <glyph glyph-name="uni01D2" unicode="&#x1d2;" 
d="M194 564l-138 147l86 66l108 -140l108 140l86 -66l-138 -147h-112zM250 -8q-42 0 -82.5 12t-71 42.5t-42.5 71t-12 82.5v130q0 42 12 82.5t42.5 71t71 42.5t82.5 12t82.5 -12t71 -42.5t42.5 -71t12 -82.5v-130q0 -42 -12 -82.5t-42.5 -71t-71 -42.5t-82.5 -12zM250 98
q19 0 37.5 7t31 22.5t17 34.5t4.5 38v130q0 19 -4.5 38t-17 34.5t-31 22.5t-37.5 7t-37.5 -7t-31 -22.5t-17 -34.5t-4.5 -38v-130q0 -19 4.5 -38t17 -34.5t31 -22.5t37.5 -7z" />
    <glyph glyph-name="uni01D3" unicode="&#x1d3;" 
d="M194 769l-138 147l86 66l108 -140l108 140l86 -66l-138 -147h-112zM250 -8q-42 0 -82 13.5t-68 45.5t-39 72.5t-11 82.5v529h118v-529q0 -19 3.5 -38t14 -36t28 -25.5t36.5 -8.5t36.5 8.5t28 25.5t14 36t3.5 38v529h118v-529q0 -42 -11 -82.5t-39 -72.5t-68 -45.5
t-82 -13.5z" />
    <glyph glyph-name="uni01D4" unicode="&#x1d4;" 
d="M194 564l-138 147l86 66l108 -140l108 140l86 -66l-138 -147h-112zM202 -8q-29 0 -56.5 10.5t-47 33t-30 50t-14.5 56.5t-4 58v330h118v-330q0 -19 3.5 -37t14.5 -34t28 -23.5t36 -7.5t36 7.5t28 23.5t14.5 34t3.5 37v330h118v-530h-118v78q-38 -86 -130 -86z" />
    <glyph glyph-name="uni01D5" unicode="&#x1d5;" 
d="M350 815q-20 0 -39 8.5t-27.5 27.5t-8.5 39t8.5 39t27.5 27.5t39 8.5t39 -8.5t27.5 -27.5t8.5 -39t-8.5 -39t-27.5 -27.5t-39 -8.5zM150 815q-20 0 -39 8.5t-27.5 27.5t-8.5 39t8.5 39t27.5 27.5t39 8.5t39 -8.5t27.5 -27.5t8.5 -39t-8.5 -39t-27.5 -27.5t-39 -8.5z
M250 -8q-42 0 -82 13.5t-68 45.5t-39 72.5t-11 82.5v529h118v-529q0 -19 3.5 -38t14 -36t28 -25.5t36.5 -8.5t36.5 8.5t28 25.5t14 36t3.5 38v529h118v-529q0 -42 -11 -82.5t-39 -72.5t-68 -45.5t-82 -13.5zM100 1057v92h300v-92h-300z" />
    <glyph glyph-name="uni01D6" unicode="&#x1d6;" 
d="M350 610q-20 0 -39 8.5t-27.5 27.5t-8.5 39t8.5 39t27.5 27.5t39 8.5t39 -8.5t27.5 -27.5t8.5 -39t-8.5 -39t-27.5 -27.5t-39 -8.5zM150 610q-20 0 -39 8.5t-27.5 27.5t-8.5 39t8.5 39t27.5 27.5t39 8.5t39 -8.5t27.5 -27.5t8.5 -39t-8.5 -39t-27.5 -27.5t-39 -8.5z
M202 -8q-29 0 -56.5 10.5t-47 33t-30 50t-14.5 56.5t-4 58v330h118v-330q0 -19 3.5 -37t14.5 -34t28 -23.5t36 -7.5t36 7.5t28 23.5t14.5 34t3.5 37v330h118v-530h-118v78q-38 -86 -130 -86zM100 852v92h300v-92h-300z" />
    <glyph glyph-name="uni01D7" unicode="&#x1d7;" 
d="M350 815q-20 0 -39 8.5t-27.5 27.5t-8.5 39t8.5 39t27.5 27.5t39 8.5t39 -8.5t27.5 -27.5t8.5 -39t-8.5 -39t-27.5 -27.5t-39 -8.5zM150 815q-20 0 -39 8.5t-27.5 27.5t-8.5 39t8.5 39t27.5 27.5t39 8.5t39 -8.5t27.5 -27.5t8.5 -39t-8.5 -39t-27.5 -27.5t-39 -8.5z
M233 974l-67 57l143 166l82 -70zM250 -8q-42 0 -82 13.5t-68 45.5t-39 72.5t-11 82.5v529h118v-529q0 -19 3.5 -38t14 -36t28 -25.5t36.5 -8.5t36.5 8.5t28 25.5t14 36t3.5 38v529h118v-529q0 -42 -11 -82.5t-39 -72.5t-68 -45.5t-82 -13.5z" />
    <glyph glyph-name="uni01D8" unicode="&#x1d8;" 
d="M350 610q-20 0 -39 8.5t-27.5 27.5t-8.5 39t8.5 39t27.5 27.5t39 8.5t39 -8.5t27.5 -27.5t8.5 -39t-8.5 -39t-27.5 -27.5t-39 -8.5zM150 610q-20 0 -39 8.5t-27.5 27.5t-8.5 39t8.5 39t27.5 27.5t39 8.5t39 -8.5t27.5 -27.5t8.5 -39t-8.5 -39t-27.5 -27.5t-39 -8.5z
M233 769l-67 57l143 166l82 -70zM202 -8q-29 0 -56.5 10.5t-47 33t-30 50t-14.5 56.5t-4 58v330h118v-330q0 -19 3.5 -37t14.5 -34t28 -23.5t36 -7.5t36 7.5t28 23.5t14.5 34t3.5 37v330h118v-530h-118v78q-38 -86 -130 -86z" />
    <glyph glyph-name="uni01D9" unicode="&#x1d9;" 
d="M350 815q-20 0 -39 8.5t-27.5 27.5t-8.5 39t8.5 39t27.5 27.5t39 8.5t39 -8.5t27.5 -27.5t8.5 -39t-8.5 -39t-27.5 -27.5t-39 -8.5zM150 815q-20 0 -39 8.5t-27.5 27.5t-8.5 39t8.5 39t27.5 27.5t39 8.5t39 -8.5t27.5 -27.5t8.5 -39t-8.5 -39t-27.5 -27.5t-39 -8.5z
M250 -8q-42 0 -82 13.5t-68 45.5t-39 72.5t-11 82.5v529h118v-529q0 -19 3.5 -38t14 -36t28 -25.5t36.5 -8.5t36.5 8.5t28 25.5t14 36t3.5 38v529h118v-529q0 -42 -11 -82.5t-39 -72.5t-68 -45.5t-82 -13.5zM194 982l-138 147l86 66l108 -140l108 140l86 -66l-138 -147h-112
z" />
    <glyph glyph-name="uni01DA" unicode="&#x1da;" 
d="M350 610q-20 0 -39 8.5t-27.5 27.5t-8.5 39t8.5 39t27.5 27.5t39 8.5t39 -8.5t27.5 -27.5t8.5 -39t-8.5 -39t-27.5 -27.5t-39 -8.5zM150 610q-20 0 -39 8.5t-27.5 27.5t-8.5 39t8.5 39t27.5 27.5t39 8.5t39 -8.5t27.5 -27.5t8.5 -39t-8.5 -39t-27.5 -27.5t-39 -8.5z
M202 -8q-29 0 -56.5 10.5t-47 33t-30 50t-14.5 56.5t-4 58v330h118v-330q0 -19 3.5 -37t14.5 -34t28 -23.5t36 -7.5t36 7.5t28 23.5t14.5 34t3.5 37v330h118v-530h-118v78q-38 -86 -130 -86zM194 777l-138 147l86 66l108 -140l108 140l86 -66l-138 -147h-112z" />
    <glyph glyph-name="uni01DB" unicode="&#x1db;" 
d="M350 815q-20 0 -39 8.5t-27.5 27.5t-8.5 39t8.5 39t27.5 27.5t39 8.5t39 -8.5t27.5 -27.5t8.5 -39t-8.5 -39t-27.5 -27.5t-39 -8.5zM150 815q-20 0 -39 8.5t-27.5 27.5t-8.5 39t8.5 39t27.5 27.5t39 8.5t39 -8.5t27.5 -27.5t8.5 -39t-8.5 -39t-27.5 -27.5t-39 -8.5z
M250 -8q-42 0 -82 13.5t-68 45.5t-39 72.5t-11 82.5v529h118v-529q0 -19 3.5 -38t14 -36t28 -25.5t36.5 -8.5t36.5 8.5t28 25.5t14 36t3.5 38v529h118v-529q0 -42 -11 -82.5t-39 -72.5t-68 -45.5t-82 -13.5zM267 974l-158 153l82 70l143 -166z" />
    <glyph glyph-name="uni01DC" unicode="&#x1dc;" 
d="M350 610q-20 0 -39 8.5t-27.5 27.5t-8.5 39t8.5 39t27.5 27.5t39 8.5t39 -8.5t27.5 -27.5t8.5 -39t-8.5 -39t-27.5 -27.5t-39 -8.5zM150 610q-20 0 -39 8.5t-27.5 27.5t-8.5 39t8.5 39t27.5 27.5t39 8.5t39 -8.5t27.5 -27.5t8.5 -39t-8.5 -39t-27.5 -27.5t-39 -8.5z
M267 769l-158 153l82 70l143 -166zM202 -8q-29 0 -56.5 10.5t-47 33t-30 50t-14.5 56.5t-4 58v330h118v-330q0 -19 3.5 -37t14.5 -34t28 -23.5t36 -7.5t36 7.5t28 23.5t14.5 34t3.5 37v330h118v-530h-118v78q-38 -86 -130 -86z" />
    <glyph glyph-name="uni01DD" unicode="&#x1dd;" 
d="M250 -8q-42 0 -82.5 12t-71 42.5t-42.5 71t-12 82.5v118h298v12q0 20 -4.5 39t-17.5 34.5t-32 22t-38 6.5t-37.5 -4.5t-33 -19t-15.5 -32.5h-118q2 36 19 69t47 55t65.5 30t72.5 8q33 0 66.5 -7t62 -26t47.5 -47t26.5 -61t7.5 -67v-130q0 -42 -12 -82.5t-42.5 -71
t-71 -42.5t-82.5 -12zM250 98q19 0 37.5 7t31 22.5t17 34.5t4.5 38v12h-180v-12q0 -19 4.5 -38t17 -34.5t31 -22.5t37.5 -7z" />
    <glyph glyph-name="uni01DE" unicode="&#x1de;" 
d="M350 815q-20 0 -39 8.5t-27.5 27.5t-8.5 39t8.5 39t27.5 27.5t39 8.5t39 -8.5t27.5 -27.5t8.5 -39t-8.5 -39t-27.5 -27.5t-39 -8.5zM150 815q-20 0 -39 8.5t-27.5 27.5t-8.5 39t8.5 39t27.5 27.5t39 8.5t39 -8.5t27.5 -27.5t8.5 -39t-8.5 -39t-27.5 -27.5t-39 -8.5zM42 0
l140 735h136l140 -735h-118l-30 159h-120l-30 -159h-118zM210 265h80l-16 83q-17 91 -24 146q-7 -55 -24 -146zM100 1057v92h300v-92h-300z" />
    <glyph glyph-name="uni01DF" unicode="&#x1df;" 
d="M350 610q-20 0 -39 8.5t-27.5 27.5t-8.5 39t8.5 39t27.5 27.5t39 8.5t39 -8.5t27.5 -27.5t8.5 -39t-8.5 -39t-27.5 -27.5t-39 -8.5zM150 610q-20 0 -39 8.5t-27.5 27.5t-8.5 39t8.5 39t27.5 27.5t39 8.5t39 -8.5t27.5 -27.5t8.5 -39t-8.5 -39t-27.5 -27.5t-39 -8.5z
M189 -8q-31 0 -61 11t-50 35.5t-28 55.5t-8 62q0 33 10.5 64.5t34.5 54.5t54.5 36t63 18t65.5 5h62v26q0 21 -11 39.5t-31 25.5t-41 7q-19 0 -38 -5.5t-31.5 -21.5t-12.5 -36h-118q0 37 15.5 71.5t45.5 57.5t66 31.5t73 8.5q30 0 60.5 -5.5t57.5 -20t47 -38.5t28 -54t8 -60
v-360h-118v74q-42 -82 -143 -82zM237 98q17 0 34.5 4t32.5 15t21.5 28t6.5 35v48h-62q-18 0 -36.5 -2.5t-35.5 -10.5t-27.5 -23.5t-10.5 -34t11 -34t29 -20.5t37 -5zM100 852v92h300v-92h-300z" />
    <glyph glyph-name="uni01E0" unicode="&#x1e0;" 
d="M42 0l140 735h136l140 -735h-118l-30 159h-120l-30 -159h-118zM210 265h80l-16 83q-17 91 -24 146q-7 -55 -24 -146zM250 812q-21 0 -41 8.5t-29 28.5t-9 41t9 41t29 29t41 9t41 -9t28.5 -29t8.5 -41t-8.5 -41t-28.5 -28.5t-41 -8.5zM100 1057v92h300v-92h-300z" />
    <glyph glyph-name="uni01E1" unicode="&#x1e1;" 
d="M250 607q-21 0 -41 8.5t-29 28.5t-9 41t9 41t29 29t41 9t41 -9t28.5 -29t8.5 -41t-8.5 -41t-28.5 -28.5t-41 -8.5zM189 -8q-31 0 -61 11t-50 35.5t-28 55.5t-8 62q0 33 10.5 64.5t34.5 54.5t54.5 36t63 18t65.5 5h62v26q0 21 -11 39.5t-31 25.5t-41 7q-19 0 -38 -5.5
t-31.5 -21.5t-12.5 -36h-118q0 37 15.5 71.5t45.5 57.5t66 31.5t73 8.5q30 0 60.5 -5.5t57.5 -20t47 -38.5t28 -54t8 -60v-360h-118v74q-42 -82 -143 -82zM237 98q17 0 34.5 4t32.5 15t21.5 28t6.5 35v48h-62q-18 0 -36.5 -2.5t-35.5 -10.5t-27.5 -23.5t-10.5 -34t11 -34
t29 -20.5t37 -5zM100 852v92h300v-92h-300z" />
    <glyph glyph-name="uni01E2" unicode="&#x1e2;" 
d="M31 0v74q0 200 143 661h295v-106h-138v-179h114v-106h-114v-238h138v-106h-242v171h-86q-6 -56 -6 -97v-74h-104zM154 265h73v345q-51 -205 -73 -345zM100 844v92h300v-92h-300z" />
    <glyph glyph-name="uni01E3" unicode="&#x1e3;" 
d="M100 639v92h300v-92h-300zM163 -8q-31 0 -60.5 10t-50 33.5t-29 53t-8.5 60.5q0 36 11 70t37 59.5t60 38t69 15.5v78q0 24 -27 24q-28 0 -28 -47v-3h-116v9q0 28 9 56t29.5 49.5t48.5 30.5t57 9q52 0 86 -19q34 19 87 19q28 0 55 -6.5t49.5 -24t32.5 -43.5t10 -54v-197
h-177v-93q0 -24 31 -24q11 0 19 8t10.5 18.5t2.5 20.5v3h116v-8q0 -29 -9.5 -57.5t-30.5 -50t-49.5 -30t-58.5 -8.5q-54 0 -89 20q-35 -20 -87 -20zM308 317h61v93q0 24 -31 24q-30 0 -30 -24v-93zM163 96q29 0 29 24v106q-61 -15 -61 -78q0 -52 32 -52z" />
    <glyph glyph-name="uni01E4" unicode="&#x1e4;" 
d="M202 -8q-30 0 -59 10.5t-49.5 33.5t-32 51.5t-15.5 58.5t-4 60v323q0 34 7 67t25 62t46 49t61 28t67 8q39 0 77.5 -10.5t68 -37.5t44 -64.5t14.5 -76.5h-118q0 22 -10.5 43t-32 30.5t-43.5 9.5q-20 0 -38.5 -8t-30 -24.5t-15.5 -36t-4 -39.5v-323q0 -20 4 -39.5t16 -36
t31 -24.5t39 -8q60 0 77 63h-77v83h82v59h-82v106h200v-165h35v-83h-35v-161h-107v112q-25 -91 -95 -114q-20 -6 -46 -6z" />
    <glyph glyph-name="uni01E5" unicode="&#x1e5;" 
d="M246 -213q-36 0 -71.5 8.5t-64 31t-44.5 56t-18 69.5h118q1 -19 13.5 -33.5t30.5 -20t36 -5.5q19 0 37 7.5t29.5 23t15.5 34t4 37.5v83q-38 -86 -131 -86q-29 0 -57.5 10t-49 32t-32 49.5t-16 57t-4.5 59.5v23h-27v84h27v23q0 30 4.5 59.5t16 57t32 49.5t49 32t57.5 10
q93 0 131 -86v78h118v-223h35v-84h-35v-228q0 -33 -7 -65.5t-25 -61t-46 -47.5t-60.5 -26.5t-65.5 -7.5zM160 307h172v23q0 19 -4 37t-14.5 34t-28 23.5t-36.5 7.5t-37.5 -7t-30.5 -22.5t-16.5 -34.5t-4.5 -38v-23zM249 98q19 0 36.5 7.5t28 23.5t14.5 34t4 37v23h-172v-23
q0 -19 4.5 -38t16.5 -34.5t30.5 -22.5t37.5 -7z" />
    <glyph glyph-name="Gcaron" unicode="&#x1e6;" 
d="M194 769l-138 147l86 66l108 -140l108 140l86 -66l-138 -147h-112zM202 -8q-30 0 -59 10.5t-49.5 33.5t-32 51.5t-15.5 58.5t-4 60v323q0 34 7 67t25 62t46 49t61 28t67 8q39 0 77.5 -10.5t68 -37.5t44 -64.5t14.5 -76.5h-118q0 22 -10.5 43t-32 30.5t-43.5 9.5
q-20 0 -38.5 -8t-30 -24.5t-15.5 -36t-4 -39.5v-323q0 -20 4 -39.5t16 -36t31 -24.5t39 -8q19 0 36.5 8.5t28 25.5t14 36t3.5 38v97h-82v106h200v-409h-107v112q-25 -91 -95 -114q-20 -6 -46 -6z" />
    <glyph glyph-name="gcaron" unicode="&#x1e7;" 
d="M194 564l-138 147l86 66l108 -140l108 140l86 -66l-138 -147h-112zM246 -213q-36 0 -71.5 8.5t-64 31t-44.5 56t-18 69.5h118q1 -19 13.5 -33.5t30.5 -20t36 -5.5q19 0 37 7.5t29.5 23t15.5 34t4 37.5v83q-38 -86 -131 -86q-29 0 -57.5 10t-49 32t-32 49.5t-16 57
t-4.5 59.5v130q0 30 4.5 59.5t16 57t32 49.5t49 32t57.5 10q93 0 131 -86v78h118v-535q0 -33 -7 -65.5t-25 -61t-46 -47.5t-60.5 -26.5t-65.5 -7.5zM249 98q19 0 36.5 7.5t28 23.5t14.5 34t4 37v130q0 19 -4 37t-14.5 34t-28 23.5t-36.5 7.5t-37.5 -7t-30.5 -22.5
t-16.5 -34.5t-4.5 -38v-130q0 -19 4.5 -38t16.5 -34.5t30.5 -22.5t37.5 -7z" />
    <glyph glyph-name="uni01E8" unicode="&#x1e8;" 
d="M194 769l-138 147l86 66l108 -140l108 140l86 -66l-138 -147h-112zM66 0v735h117v-299l155 299h130l-187 -335l187 -400h-128l-128 275l-29 -51v-224h-117z" />
    <glyph glyph-name="uni01E9" unicode="&#x1e9;" 
d="M194 769l-138 147l86 66l108 -140l108 140l86 -66l-138 -147h-112zM66 0v735h117v-428l149 223h137l-175 -243l175 -287h-134l-114 186l-38 -53v-133h-117z" />
    <glyph glyph-name="uni01EA" unicode="&#x1ea;" 
d="M273 -174q-35 0 -69.5 4.5t-62 29.5t-27.5 60q0 30 22.5 54t52.5 31.5t61 7.5v-21q-13 0 -24.5 -9t-11.5 -22q0 -33 58 -33h3h60v-102h-62zM250 -8q-42 0 -83.5 13t-71 44.5t-41.5 73t-12 83.5v323q0 42 12 83.5t41.5 73t71 44.5t83.5 13t83.5 -13t71 -44.5t41.5 -73
t12 -83.5v-323q0 -42 -12 -83.5t-41.5 -73t-71 -44.5t-83.5 -13zM250 98q20 0 39 8t31 24.5t16 36t4 39.5v323q0 20 -4 39.5t-16 36t-31 24.5t-39 8t-39 -8t-31 -24.5t-16 -36t-4 -39.5v-323q0 -20 4 -39.5t16 -36t31 -24.5t39 -8z" />
    <glyph glyph-name="uni01EB" unicode="&#x1eb;" 
d="M273 -174q-35 0 -69.5 4.5t-62 29.5t-27.5 60q0 30 22.5 54t52.5 31.5t61 7.5v-21q-13 0 -24.5 -9t-11.5 -22q0 -33 58 -33h3h60v-102h-62zM250 -8q-42 0 -82.5 12t-71 42.5t-42.5 71t-12 82.5v130q0 42 12 82.5t42.5 71t71 42.5t82.5 12t82.5 -12t71 -42.5t42.5 -71
t12 -82.5v-130q0 -42 -12 -82.5t-42.5 -71t-71 -42.5t-82.5 -12zM250 98q19 0 37.5 7t31 22.5t17 34.5t4.5 38v130q0 19 -4.5 38t-17 34.5t-31 22.5t-37.5 7t-37.5 -7t-31 -22.5t-17 -34.5t-4.5 -38v-130q0 -19 4.5 -38t17 -34.5t31 -22.5t37.5 -7z" />
    <glyph glyph-name="uni01EC" unicode="&#x1ec;" 
d="M273 -174q-35 0 -69.5 4.5t-62 29.5t-27.5 60q0 30 22.5 54t52.5 31.5t61 7.5v-21q-13 0 -24.5 -9t-11.5 -22q0 -33 58 -33h3h60v-102h-62zM250 -8q-42 0 -83.5 13t-71 44.5t-41.5 73t-12 83.5v323q0 42 12 83.5t41.5 73t71 44.5t83.5 13t83.5 -13t71 -44.5t41.5 -73
t12 -83.5v-323q0 -42 -12 -83.5t-41.5 -73t-71 -44.5t-83.5 -13zM250 98q20 0 39 8t31 24.5t16 36t4 39.5v323q0 20 -4 39.5t-16 36t-31 24.5t-39 8t-39 -8t-31 -24.5t-16 -36t-4 -39.5v-323q0 -20 4 -39.5t16 -36t31 -24.5t39 -8zM100 844v92h300v-92h-300z" />
    <glyph glyph-name="uni01ED" unicode="&#x1ed;" 
d="M273 -174q-35 0 -69.5 4.5t-62 29.5t-27.5 60q0 30 22.5 54t52.5 31.5t61 7.5v-21q-13 0 -24.5 -9t-11.5 -22q0 -33 58 -33h3h60v-102h-62zM250 -8q-42 0 -82.5 12t-71 42.5t-42.5 71t-12 82.5v130q0 42 12 82.5t42.5 71t71 42.5t82.5 12t82.5 -12t71 -42.5t42.5 -71
t12 -82.5v-130q0 -42 -12 -82.5t-42.5 -71t-71 -42.5t-82.5 -12zM250 98q19 0 37.5 7t31 22.5t17 34.5t4.5 38v130q0 19 -4.5 38t-17 34.5t-31 22.5t-37.5 7t-37.5 -7t-31 -22.5t-17 -34.5t-4.5 -38v-130q0 -19 4.5 -38t17 -34.5t31 -22.5t37.5 -7zM100 639v92h300v-92h-300
z" />
    <glyph glyph-name="uni01EE" unicode="&#x1ee;" 
d="M194 769l-138 147l86 66l108 -140l108 140l86 -66l-138 -147h-112zM252 0q-39 0 -77.5 11t-67.5 38t-43.5 64t-15.5 76h118q0 -23 11 -43.5t31.5 -30t43.5 -9.5q20 0 39 9t30 27t15 38.5t4 41t-4 40.5t-15.5 38t-30.5 26.5t-40 8.5h-120v106l149 188h-229v106h370v-106
l-149 -188q41 -2 78.5 -19t63 -49t35.5 -71.5t10 -79.5q0 -43 -11 -85.5t-40 -75.5t-70.5 -47t-84.5 -14z" />
    <glyph glyph-name="uni01EF" unicode="&#x1ef;" 
d="M194 564l-138 147l86 66l108 -140l108 140l86 -66l-138 -147h-112zM252 -205q-39 0 -77.5 11t-67.5 38t-43.5 64t-15.5 76h118q0 -23 11 -43.5t31.5 -30t43.5 -9.5q20 0 39 9t30 27t15 38.5t4 41t-4 40.5t-15.5 38t-30.5 26.5t-40 8.5h-120v106l149 188h-229v106h370
v-106l-149 -188q41 -2 78.5 -19t63 -49t35.5 -71.5t10 -79.5q0 -43 -11 -85.5t-40 -75.5t-70.5 -47t-84.5 -14z" />
    <glyph glyph-name="uni01F0" unicode="&#x1f0;" 
d="M237 564l-138 147l86 66l108 -140l108 140l86 -66l-138 -147h-112zM184 -213q-36 0 -71.5 11.5t-61 38.5t-38 62t-13.5 71h118q0 -19 7 -37.5t23.5 -29t35.5 -10.5q18 0 33.5 10.5t23.5 27t10.5 34.5t2.5 36v423h-116v106h234v-529q0 -32 -5.5 -64t-21 -61t-40.5 -50
t-56.5 -30t-64.5 -9z" />
    <glyph glyph-name="uni01F1" unicode="&#x1f1;" 
d="M10 0v735h80q36 0 67 -19t48.5 -51t26.5 -66.5t12.5 -70t3.5 -71.5v-179q0 -36 -3.5 -71.5t-12.5 -70t-26.5 -66.5t-48.5 -51t-67 -19h-80zM257 0v106l142 523h-142v106h233v-106l-142 -523h142v-106h-233zM90 106q35 0 52.5 34.5t22 68.5t4.5 69v179q0 35 -4.5 69
t-22 68.5t-52.5 34.5v-523z" />
    <glyph glyph-name="uni01F2" unicode="&#x1f2;" 
d="M10 0v735h80q36 0 67 -19t48.5 -51t26.5 -66.5t12.5 -70t3.5 -71.5v-179q0 -36 -3.5 -71.5t-12.5 -70t-26.5 -66.5t-48.5 -51t-67 -19h-80zM90 106q35 0 52.5 34.5t22 68.5t4.5 69v179q0 35 -4.5 69t-22 68.5t-52.5 34.5v-523zM257 0v106l138 318h-138v106h233v-106
l-138 -318h138v-106h-233z" />
    <glyph glyph-name="uni01F3" unicode="&#x1f3;" 
d="M93 -8q-41 0 -60 43t-23.5 83.5t-4.5 81.5v130q0 41 4.5 81.5t23.5 83.5t60 43q49 0 70 -83v280h80v-735h-80v75q-21 -83 -70 -83zM257 0v106l138 318h-138v106h233v-106l-138 -318h138v-106h-233zM126 98q37 0 37 102v130q0 102 -37 102q-20 0 -29 -21.5t-11 -41
t-2 -39.5v-130q0 -20 2 -39.5t11 -41t29 -21.5z" />
    <glyph glyph-name="uni01F4" unicode="&#x1f4;" 
d="M233 761l-67 57l143 166l82 -70zM202 -8q-30 0 -59 10.5t-49.5 33.5t-32 51.5t-15.5 58.5t-4 60v323q0 34 7 67t25 62t46 49t61 28t67 8q39 0 77.5 -10.5t68 -37.5t44 -64.5t14.5 -76.5h-118q0 22 -10.5 43t-32 30.5t-43.5 9.5q-20 0 -38.5 -8t-30 -24.5t-15.5 -36
t-4 -39.5v-323q0 -20 4 -39.5t16 -36t31 -24.5t39 -8q19 0 36.5 8.5t28 25.5t14 36t3.5 38v97h-82v106h200v-409h-107v112q-25 -91 -95 -114q-20 -6 -46 -6z" />
    <glyph glyph-name="uni01F5" unicode="&#x1f5;" 
d="M233 556l-67 57l143 166l82 -70zM246 -213q-36 0 -71.5 8.5t-64 31t-44.5 56t-18 69.5h118q1 -19 13.5 -33.5t30.5 -20t36 -5.5q19 0 37 7.5t29.5 23t15.5 34t4 37.5v83q-38 -86 -131 -86q-29 0 -57.5 10t-49 32t-32 49.5t-16 57t-4.5 59.5v130q0 30 4.5 59.5t16 57
t32 49.5t49 32t57.5 10q93 0 131 -86v78h118v-535q0 -33 -7 -65.5t-25 -61t-46 -47.5t-60.5 -26.5t-65.5 -7.5zM249 98q19 0 36.5 7.5t28 23.5t14.5 34t4 37v130q0 19 -4 37t-14.5 34t-28 23.5t-36.5 7.5t-37.5 -7t-30.5 -22.5t-16.5 -34.5t-4.5 -38v-130q0 -19 4.5 -38
t16.5 -34.5t30.5 -22.5t37.5 -7z" />
    <glyph glyph-name="uni01F6" unicode="&#x1f6;" 
d="M333 -8q-26 0 -52 7t-46 25t-28.5 44t-8.5 52v195h-63v-315h-104v735h104v-314h63v314h104v-615q0 -34 31 -34q32 0 32 34v410h104v-410q0 -26 -8.5 -52t-28.5 -44t-46 -25t-53 -7z" />
    <glyph glyph-name="uni01F7" unicode="&#x1f7;" 
d="M50 0v735h118v-19q43 27 93 27q55 0 104 -29.5t71 -82t22 -107.5q0 -69 -30 -132.5t-72 -117.5t-90 -104t-98 -96v-74h-118zM168 225q172 171 172 297q0 27 -8 53.5t-30 44t-49 17.5q-28 0 -52 -17t-33 -43v-352z" />
    <glyph glyph-name="uni01F8" unicode="&#x1f8;" 
d="M267 761l-158 153l82 70l143 -166zM50 0v735h126l177 -553q-6 43 -11.5 86t-7.5 86.5t-2 86.5v294h118v-735h-126l-177 553q6 -43 11.5 -86t7.5 -86.5t2 -86.5v-294h-118z" />
    <glyph glyph-name="uni01F9" unicode="&#x1f9;" 
d="M267 556l-158 153l82 70l143 -166zM50 0v530h118v-78q38 86 130 86q29 0 56.5 -10.5t47 -33t30 -50t14.5 -56.5t4 -58v-330h-118v330q0 19 -3.5 37t-14.5 34t-28 23.5t-36 7.5t-36 -7.5t-28 -23.5t-14.5 -34t-3.5 -37v-330h-118z" />
    <glyph glyph-name="Aringacute" unicode="&#x1fa;" 
d="M250 749q-22 0 -43.5 6.5t-37.5 22.5t-22.5 37.5t-6.5 43.5t6.5 43.5t22.5 37.5t37.5 22t43.5 6t43.5 -6t37.5 -22t22.5 -37.5t6.5 -43.5t-6.5 -43.5t-22.5 -37.5t-37.5 -22.5t-43.5 -6.5zM250 822q37 0 37 37t-37 37t-37 -37t37 -37zM42 0l140 735h136l140 -735h-118
l-30 159h-120l-30 -159h-118zM210 265h80l-16 83q-17 91 -24 146q-7 -55 -24 -146zM233 974l-67 57l143 166l82 -70z" />
    <glyph glyph-name="aringacute" unicode="&#x1fb;" 
d="M250 544q-22 0 -43.5 6.5t-37.5 22.5t-22.5 37.5t-6.5 43.5t6.5 43.5t22.5 37.5t37.5 22t43.5 6t43.5 -6t37.5 -22t22.5 -37.5t6.5 -43.5t-6.5 -43.5t-22.5 -37.5t-37.5 -22.5t-43.5 -6.5zM250 617q37 0 37 37t-37 37t-37 -37t37 -37zM189 -8q-31 0 -61 11t-50 35.5
t-28 55.5t-8 62q0 33 10.5 64.5t34.5 54.5t54.5 36t63 18t65.5 5h62v26q0 21 -11 39.5t-31 25.5t-41 7q-19 0 -38 -5.5t-31.5 -21.5t-12.5 -36h-118q0 37 15.5 71.5t45.5 57.5t66 31.5t73 8.5q30 0 60.5 -5.5t57.5 -20t47 -38.5t28 -54t8 -60v-360h-118v74q-42 -82 -143 -82
zM237 98q17 0 34.5 4t32.5 15t21.5 28t6.5 35v48h-62q-18 0 -36.5 -2.5t-35.5 -10.5t-27.5 -23.5t-10.5 -34t11 -34t29 -20.5t37 -5zM233 769l-67 57l143 166l82 -70z" />
    <glyph glyph-name="AEacute" unicode="&#x1fc;" 
d="M31 0v74q0 200 143 661h295v-106h-138v-179h114v-106h-114v-238h138v-106h-242v171h-86q-6 -56 -6 -97v-74h-104zM154 265h73v345q-51 -205 -73 -345zM233 761l-67 57l143 166l82 -70z" />
    <glyph glyph-name="aeacute" unicode="&#x1fd;" 
d="M233 556l-67 57l143 166l82 -70zM163 -8q-31 0 -60.5 10t-50 33.5t-29 53t-8.5 60.5q0 36 11 70t37 59.5t60 38t69 15.5v78q0 24 -27 24q-28 0 -28 -47v-3h-116v9q0 28 9 56t29.5 49.5t48.5 30.5t57 9q52 0 86 -19q34 19 87 19q28 0 55 -6.5t49.5 -24t32.5 -43.5t10 -54
v-197h-177v-93q0 -24 31 -24q11 0 19 8t10.5 18.5t2.5 20.5v3h116v-8q0 -29 -9.5 -57.5t-30.5 -50t-49.5 -30t-58.5 -8.5q-54 0 -89 20q-35 -20 -87 -20zM308 317h61v93q0 24 -31 24q-30 0 -30 -24v-93zM163 96q29 0 29 24v106q-61 -15 -61 -78q0 -52 32 -52z" />
    <glyph glyph-name="Oslashacute" unicode="&#x1fe;" 
d="M233 761l-67 57l143 166l82 -70zM126 -53l-85 32l37 91q-36 53 -36 136v323q0 42 12 83.5t41.5 73t71 44.5t83.5 13q57 0 98 -18l26 63l85 -32l-37 -91q36 -53 36 -136v-323q0 -42 -12 -83.5t-41.5 -73t-71 -44.5t-83.5 -13q-57 0 -98 18zM250 98q20 0 39 8t31 24.5
t16 36t4 39.5v261l-145 -352q22 -17 55 -17zM160 268l145 352q-22 17 -55 17q-20 0 -39 -8t-31 -24.5t-16 -36t-4 -39.5v-261z" />
    <glyph glyph-name="oslashacute" unicode="&#x1ff;" 
d="M233 556l-67 57l143 166l82 -70zM124 -47l-81 41l40 69q-41 52 -41 137v130q0 42 12 82.5t42.5 71t71 42.5t82.5 12q55 0 95 -16l31 55l81 -41l-40 -69q41 -52 41 -137v-130q0 -42 -12 -82.5t-42.5 -71t-71 -42.5t-82.5 -12q-55 0 -95 16zM250 98q19 0 37.5 7t31 22.5
t17 34.5t4.5 38v132l-129 -227q16 -7 39 -7zM160 198l129 227q-16 7 -39 7q-19 0 -37.5 -7t-31 -22.5t-17 -34.5t-4.5 -38v-132z" />
    <glyph glyph-name="uni0200" unicode="&#x200;" 
d="M352 761l-158 153l82 70l143 -166zM182 761l-158 153l82 70l143 -166zM42 0l140 735h136l140 -735h-118l-30 159h-120l-30 -159h-118zM210 265h80l-16 83q-17 91 -24 146q-7 -55 -24 -146z" />
    <glyph glyph-name="uni0201" unicode="&#x201;" 
d="M352 556l-158 153l82 70l143 -166zM182 556l-158 153l82 70l143 -166zM189 -8q-31 0 -61 11t-50 35.5t-28 55.5t-8 62q0 33 10.5 64.5t34.5 54.5t54.5 36t63 18t65.5 5h62v26q0 21 -11 39.5t-31 25.5t-41 7q-19 0 -38 -5.5t-31.5 -21.5t-12.5 -36h-118q0 37 15.5 71.5
t45.5 57.5t66 31.5t73 8.5q30 0 60.5 -5.5t57.5 -20t47 -38.5t28 -54t8 -60v-360h-118v74q-42 -82 -143 -82zM237 98q17 0 34.5 4t32.5 15t21.5 28t6.5 35v48h-62q-18 0 -36.5 -2.5t-35.5 -10.5t-27.5 -23.5t-10.5 -34t11 -34t29 -20.5t37 -5z" />
    <glyph glyph-name="uni0202" unicode="&#x202;" 
d="M42 0l140 735h136l140 -735h-118l-30 159h-120l-30 -159h-118zM210 265h80l-16 83q-17 91 -24 146q-7 -55 -24 -146zM421 789h-102q0 18 -8 35t-25.5 24.5t-35.5 7.5t-35.5 -7.5t-25.5 -24.5t-8 -35h-102q0 34 10.5 66t36.5 54.5t58.5 31t65.5 8.5t65.5 -8.5t58.5 -31
t36.5 -54.5t10.5 -66z" />
    <glyph glyph-name="uni0203" unicode="&#x203;" 
d="M421 584h-102q0 18 -8 35t-25.5 24.5t-35.5 7.5t-35.5 -7.5t-25.5 -24.5t-8 -35h-102q0 34 10.5 66t36.5 54.5t58.5 31t65.5 8.5t65.5 -8.5t58.5 -31t36.5 -54.5t10.5 -66zM189 -8q-31 0 -61 11t-50 35.5t-28 55.5t-8 62q0 33 10.5 64.5t34.5 54.5t54.5 36t63 18t65.5 5
h62v26q0 21 -11 39.5t-31 25.5t-41 7q-19 0 -38 -5.5t-31.5 -21.5t-12.5 -36h-118q0 37 15.5 71.5t45.5 57.5t66 31.5t73 8.5q30 0 60.5 -5.5t57.5 -20t47 -38.5t28 -54t8 -60v-360h-118v74q-42 -82 -143 -82zM237 98q17 0 34.5 4t32.5 15t21.5 28t6.5 35v48h-62
q-18 0 -36.5 -2.5t-35.5 -10.5t-27.5 -23.5t-10.5 -34t11 -34t29 -20.5t37 -5z" />
    <glyph glyph-name="uni0204" unicode="&#x204;" 
d="M352 761l-158 153l82 70l143 -166zM182 761l-158 153l82 70l143 -166zM75 0v735h375v-106h-257v-179h197v-106h-197v-238h257v-106h-375z" />
    <glyph glyph-name="uni0205" unicode="&#x205;" 
d="M352 556l-158 153l82 70l143 -166zM182 556l-158 153l82 70l143 -166zM252 -8q-33 0 -66.5 7t-62 26t-47.5 47t-26.5 61t-7.5 67v130q0 42 12 82.5t42.5 71t71 42.5t82.5 12t82.5 -12t71 -42.5t42.5 -71t12 -82.5v-118h-298v-12q0 -20 4.5 -39t17.5 -34.5t32 -22t38 -6.5
t37.5 4.5t33 19t15.5 32.5h118q-2 -36 -19 -69t-47 -55t-65.5 -30t-72.5 -8zM160 318h180v12q0 19 -4.5 38t-17 34.5t-31 22.5t-37.5 7t-37.5 -7t-31 -22.5t-17 -34.5t-4.5 -38v-12z" />
    <glyph glyph-name="uni0206" unicode="&#x206;" 
d="M75 0v735h375v-106h-257v-179h197v-106h-197v-238h257v-106h-375zM421 789h-102q0 18 -8 35t-25.5 24.5t-35.5 7.5t-35.5 -7.5t-25.5 -24.5t-8 -35h-102q0 34 10.5 66t36.5 54.5t58.5 31t65.5 8.5t65.5 -8.5t58.5 -31t36.5 -54.5t10.5 -66z" />
    <glyph glyph-name="uni0207" unicode="&#x207;" 
d="M421 584h-102q0 18 -8 35t-25.5 24.5t-35.5 7.5t-35.5 -7.5t-25.5 -24.5t-8 -35h-102q0 34 10.5 66t36.5 54.5t58.5 31t65.5 8.5t65.5 -8.5t58.5 -31t36.5 -54.5t10.5 -66zM252 -8q-33 0 -66.5 7t-62 26t-47.5 47t-26.5 61t-7.5 67v130q0 42 12 82.5t42.5 71t71 42.5
t82.5 12t82.5 -12t71 -42.5t42.5 -71t12 -82.5v-118h-298v-12q0 -20 4.5 -39t17.5 -34.5t32 -22t38 -6.5t37.5 4.5t33 19t15.5 32.5h118q-2 -36 -19 -69t-47 -55t-65.5 -30t-72.5 -8zM160 318h180v12q0 19 -4.5 38t-17 34.5t-31 22.5t-37.5 7t-37.5 -7t-31 -22.5t-17 -34.5
t-4.5 -38v-12z" />
    <glyph glyph-name="uni0208" unicode="&#x208;" 
d="M352 761l-158 153l82 70l143 -166zM182 761l-158 153l82 70l143 -166zM75 0v106h116v523h-116v106h350v-106h-116v-523h116v-106h-350z" />
    <glyph glyph-name="uni0209" unicode="&#x209;" 
d="M352 556l-158 153l82 70l143 -166zM182 556l-158 153l82 70l143 -166zM75 0v106h123v318h-109v106h227v-424h109v-106h-350z" />
    <glyph glyph-name="uni020A" unicode="&#x20a;" 
d="M421 789h-102q0 18 -8 35t-25.5 24.5t-35.5 7.5t-35.5 -7.5t-25.5 -24.5t-8 -35h-102q0 34 10.5 66t36.5 54.5t58.5 31t65.5 8.5t65.5 -8.5t58.5 -31t36.5 -54.5t10.5 -66zM75 0v106h116v523h-116v106h350v-106h-116v-523h116v-106h-350z" />
    <glyph glyph-name="uni020B" unicode="&#x20b;" 
d="M75 0v106h123v318h-109v106h227v-424h109v-106h-350zM421 584h-102q0 18 -8 35t-25.5 24.5t-35.5 7.5t-35.5 -7.5t-25.5 -24.5t-8 -35h-102q0 34 10.5 66t36.5 54.5t58.5 31t65.5 8.5t65.5 -8.5t58.5 -31t36.5 -54.5t10.5 -66z" />
    <glyph glyph-name="uni020C" unicode="&#x20c;" 
d="M352 761l-158 153l82 70l143 -166zM182 761l-158 153l82 70l143 -166zM250 -8q-42 0 -83.5 13t-71 44.5t-41.5 73t-12 83.5v323q0 42 12 83.5t41.5 73t71 44.5t83.5 13t83.5 -13t71 -44.5t41.5 -73t12 -83.5v-323q0 -42 -12 -83.5t-41.5 -73t-71 -44.5t-83.5 -13zM250 98
q20 0 39 8t31 24.5t16 36t4 39.5v323q0 20 -4 39.5t-16 36t-31 24.5t-39 8t-39 -8t-31 -24.5t-16 -36t-4 -39.5v-323q0 -20 4 -39.5t16 -36t31 -24.5t39 -8z" />
    <glyph glyph-name="uni020D" unicode="&#x20d;" 
d="M352 556l-158 153l82 70l143 -166zM182 556l-158 153l82 70l143 -166zM250 -8q-42 0 -82.5 12t-71 42.5t-42.5 71t-12 82.5v130q0 42 12 82.5t42.5 71t71 42.5t82.5 12t82.5 -12t71 -42.5t42.5 -71t12 -82.5v-130q0 -42 -12 -82.5t-42.5 -71t-71 -42.5t-82.5 -12zM250 98
q19 0 37.5 7t31 22.5t17 34.5t4.5 38v130q0 19 -4.5 38t-17 34.5t-31 22.5t-37.5 7t-37.5 -7t-31 -22.5t-17 -34.5t-4.5 -38v-130q0 -19 4.5 -38t17 -34.5t31 -22.5t37.5 -7z" />
    <glyph glyph-name="uni020E" unicode="&#x20e;" 
d="M421 789h-102q0 18 -8 35t-25.5 24.5t-35.5 7.5t-35.5 -7.5t-25.5 -24.5t-8 -35h-102q0 34 10.5 66t36.5 54.5t58.5 31t65.5 8.5t65.5 -8.5t58.5 -31t36.5 -54.5t10.5 -66zM250 -8q-42 0 -83.5 13t-71 44.5t-41.5 73t-12 83.5v323q0 42 12 83.5t41.5 73t71 44.5t83.5 13
t83.5 -13t71 -44.5t41.5 -73t12 -83.5v-323q0 -42 -12 -83.5t-41.5 -73t-71 -44.5t-83.5 -13zM250 98q20 0 39 8t31 24.5t16 36t4 39.5v323q0 20 -4 39.5t-16 36t-31 24.5t-39 8t-39 -8t-31 -24.5t-16 -36t-4 -39.5v-323q0 -20 4 -39.5t16 -36t31 -24.5t39 -8z" />
    <glyph glyph-name="uni020F" unicode="&#x20f;" 
d="M421 584h-102q0 18 -8 35t-25.5 24.5t-35.5 7.5t-35.5 -7.5t-25.5 -24.5t-8 -35h-102q0 34 10.5 66t36.5 54.5t58.5 31t65.5 8.5t65.5 -8.5t58.5 -31t36.5 -54.5t10.5 -66zM250 -8q-42 0 -82.5 12t-71 42.5t-42.5 71t-12 82.5v130q0 42 12 82.5t42.5 71t71 42.5t82.5 12
t82.5 -12t71 -42.5t42.5 -71t12 -82.5v-130q0 -42 -12 -82.5t-42.5 -71t-71 -42.5t-82.5 -12zM250 98q19 0 37.5 7t31 22.5t17 34.5t4.5 38v130q0 19 -4.5 38t-17 34.5t-31 22.5t-37.5 7t-37.5 -7t-31 -22.5t-17 -34.5t-4.5 -38v-130q0 -19 4.5 -38t17 -34.5t31 -22.5
t37.5 -7z" />
    <glyph glyph-name="uni0210" unicode="&#x210;" 
d="M352 761l-158 153l82 70l143 -166zM182 761l-158 153l82 70l143 -166zM50 0v735h190q36 0 71.5 -9t65 -31t48.5 -53.5t26 -67.5t7 -73q0 -44 -11.5 -88t-42 -78.5t-71.5 -51.5l145 -283h-126l-138 268h-46v-268h-118zM168 374h72q23 0 44 10t34 29.5t17.5 42t4.5 45.5
t-4.5 46t-17.5 42.5t-34 29.5t-44 10h-72v-255z" />
    <glyph glyph-name="uni0211" unicode="&#x211;" 
d="M352 556l-158 153l82 70l143 -166zM182 556l-158 153l82 70l143 -166zM102 0v530h118v-113q35 121 130 121q28 0 54.5 -11.5t42.5 -36t21 -52.5t5 -56h-118q0 50 -51 50q-68 0 -82 -105q-2 -19 -2 -46v-281h-118z" />
    <glyph glyph-name="uni0212" unicode="&#x212;" 
d="M421 789h-102q0 18 -8 35t-25.5 24.5t-35.5 7.5t-35.5 -7.5t-25.5 -24.5t-8 -35h-102q0 34 10.5 66t36.5 54.5t58.5 31t65.5 8.5t65.5 -8.5t58.5 -31t36.5 -54.5t10.5 -66zM50 0v735h190q36 0 71.5 -9t65 -31t48.5 -53.5t26 -67.5t7 -73q0 -44 -11.5 -88t-42 -78.5
t-71.5 -51.5l145 -283h-126l-138 268h-46v-268h-118zM168 374h72q23 0 44 10t34 29.5t17.5 42t4.5 45.5t-4.5 46t-17.5 42.5t-34 29.5t-44 10h-72v-255z" />
    <glyph glyph-name="uni0213" unicode="&#x213;" 
d="M421 584h-102q0 18 -8 35t-25.5 24.5t-35.5 7.5t-35.5 -7.5t-25.5 -24.5t-8 -35h-102q0 34 10.5 66t36.5 54.5t58.5 31t65.5 8.5t65.5 -8.5t58.5 -31t36.5 -54.5t10.5 -66zM102 0v530h118v-113q35 121 130 121q28 0 54.5 -11.5t42.5 -36t21 -52.5t5 -56h-118q0 50 -51 50
q-68 0 -82 -105q-2 -19 -2 -46v-281h-118z" />
    <glyph glyph-name="uni0214" unicode="&#x214;" 
d="M352 761l-158 153l82 70l143 -166zM182 761l-158 153l82 70l143 -166zM250 -8q-42 0 -82 13.5t-68 45.5t-39 72.5t-11 82.5v529h118v-529q0 -19 3.5 -38t14 -36t28 -25.5t36.5 -8.5t36.5 8.5t28 25.5t14 36t3.5 38v529h118v-529q0 -42 -11 -82.5t-39 -72.5t-68 -45.5
t-82 -13.5z" />
    <glyph glyph-name="uni0215" unicode="&#x215;" 
d="M352 556l-158 153l82 70l143 -166zM182 556l-158 153l82 70l143 -166zM202 -8q-29 0 -56.5 10.5t-47 33t-30 50t-14.5 56.5t-4 58v330h118v-330q0 -19 3.5 -37t14.5 -34t28 -23.5t36 -7.5t36 7.5t28 23.5t14.5 34t3.5 37v330h118v-530h-118v78q-38 -86 -130 -86z" />
    <glyph glyph-name="uni0216" unicode="&#x216;" 
d="M421 789h-102q0 18 -8 35t-25.5 24.5t-35.5 7.5t-35.5 -7.5t-25.5 -24.5t-8 -35h-102q0 34 10.5 66t36.5 54.5t58.5 31t65.5 8.5t65.5 -8.5t58.5 -31t36.5 -54.5t10.5 -66zM250 -8q-42 0 -82 13.5t-68 45.5t-39 72.5t-11 82.5v529h118v-529q0 -19 3.5 -38t14 -36
t28 -25.5t36.5 -8.5t36.5 8.5t28 25.5t14 36t3.5 38v529h118v-529q0 -42 -11 -82.5t-39 -72.5t-68 -45.5t-82 -13.5z" />
    <glyph glyph-name="uni0217" unicode="&#x217;" 
d="M421 584h-102q0 18 -8 35t-25.5 24.5t-35.5 7.5t-35.5 -7.5t-25.5 -24.5t-8 -35h-102q0 34 10.5 66t36.5 54.5t58.5 31t65.5 8.5t65.5 -8.5t58.5 -31t36.5 -54.5t10.5 -66zM202 -8q-29 0 -56.5 10.5t-47 33t-30 50t-14.5 56.5t-4 58v330h118v-330q0 -19 3.5 -37t14.5 -34
t28 -23.5t36 -7.5t36 7.5t28 23.5t14.5 34t3.5 37v330h118v-530h-118v78q-38 -86 -130 -86z" />
    <glyph glyph-name="uni0218" unicode="&#x218;" 
d="M238 -254l-45 41q30 32 43 78q-44 7 -44 57q0 16 6.5 30.5t21 21t30.5 6.5t30.5 -6.5t21 -21t6.5 -30.5q0 -108 -70 -176zM248 -8q-39 0 -77 11.5t-66.5 39t-42.5 65t-14 76.5h118q0 -22 9.5 -43t30 -32t42.5 -11q18 0 35 7t28.5 21.5t16.5 32t5 35.5q0 39 -28 70
t-63.5 48t-70 37t-62.5 48t-44 65t-16 77t14 79t42 69.5t67 43t80 12.5q39 0 77 -11.5t66.5 -39t42.5 -65t14 -76.5h-118q0 22 -9.5 43t-30 32t-42.5 11q-18 0 -35 -7t-28.5 -21.5t-16.5 -32t-5 -35.5q0 -39 28 -70t63.5 -48t70 -37t62.5 -48t44 -65t16 -77t-14 -79
t-42 -69.5t-67 -43t-80 -12.5z" />
    <glyph glyph-name="uni0219" unicode="&#x219;" 
d="M238 -254l-45 41q30 32 43 78q-44 7 -44 57q0 16 6.5 30.5t21 21t30.5 6.5t30.5 -6.5t21 -21t6.5 -30.5q0 -108 -70 -176zM249 -8q-36 0 -71 8t-64.5 29.5t-46 54.5t-17.5 69h118q0 -18 13.5 -32t31.5 -18.5t36 -4.5q19 0 37 3.5t33.5 16.5t15.5 32q0 33 -36 47t-68 18.5
t-64 14.5t-59.5 29.5t-43 50t-15.5 63.5q0 37 16.5 71t46.5 56t66 30t73 8q36 0 71 -8t64.5 -29.5t46 -54.5t17.5 -69h-118q0 18 -13.5 32t-31.5 18.5t-36 4.5q-19 0 -37 -3.5t-33.5 -16.5t-15.5 -32q0 -33 36 -47t68 -18.5t64 -14.5t59.5 -29.5t43 -50t15.5 -63.5
q0 -37 -16.5 -71t-46.5 -56t-66 -30t-73 -8z" />
    <glyph glyph-name="uni021A" unicode="&#x21a;" 
d="M238 -254l-45 41q30 32 43 78q-44 7 -44 57q0 16 6.5 30.5t21 21t30.5 6.5t30.5 -6.5t21 -21t6.5 -30.5q0 -108 -70 -176zM191 0v629h-153v106h424v-106h-153v-629h-118z" />
    <glyph glyph-name="uni021B" unicode="&#x21b;" 
d="M296 -254l-45 41q30 32 43 78q-44 7 -44 57q0 16 6.5 30.5t21 21t30.5 6.5t30.5 -6.5t21 -21t6.5 -30.5q0 -108 -70 -176zM318 -8q-32 0 -63 9.5t-54 32t-36.5 52t-18.5 61t-5 63.5v214h-92v106h92v205h118v-205h140v-106h-140v-214q0 -24 3.5 -47t17.5 -44t38 -21
q19 0 33.5 14t19 33t4.5 38v5h118v-11q0 -36 -11 -71t-35 -62.5t-58.5 -39.5t-70.5 -12z" />
    <glyph glyph-name="uni021C" unicode="&#x21c;" 
d="M50 -8l-11 106q47 3 92.5 15t88.5 31t78.5 54.5t35.5 82.5q0 35 -21 62q-87 -49 -196 -84l-36 101q40 13 79 27t78 30t67 49.5t28 75.5q0 24 -9.5 47t-30.5 35.5t-45 12.5q-22 0 -42.5 -10t-30 -31t-9.5 -43h-118q0 39 14 76t43 64.5t66.5 38.5t76.5 11q40 0 79 -12
t67.5 -41.5t42 -68t13.5 -78.5q0 -73 -47 -130q50 -54 50 -129q0 -68 -42 -125.5t-102.5 -89.5t-125.5 -51t-133 -26z" />
    <glyph glyph-name="uni021D" unicode="&#x21d;" 
d="M50 -213l-11 106q47 3 92.5 15t88.5 31t78.5 54.5t35.5 82.5q0 35 -21 62q-87 -49 -196 -84l-36 101q40 13 79 27t78 30t67 49.5t28 75.5q0 24 -9.5 47t-30.5 35.5t-45 12.5q-22 0 -42.5 -10t-30 -31t-9.5 -43h-118q0 39 14 76t43 64.5t66.5 38.5t76.5 11q40 0 79 -12
t67.5 -41.5t42 -68t13.5 -78.5q0 -73 -47 -130q50 -54 50 -129q0 -68 -42 -125.5t-102.5 -89.5t-125.5 -51t-133 -26z" />
    <glyph glyph-name="uni021E" unicode="&#x21e;" 
d="M194 769l-138 147l86 66l108 -140l108 140l86 -66l-138 -147h-112zM50 0v735h118v-307h164v307h118v-735h-118v322h-164v-322h-118z" />
    <glyph glyph-name="uni021F" unicode="&#x21f;" 
d="M194 769l-138 147l86 66l108 -140l108 140l86 -66l-138 -147h-112zM50 0v735h118v-283q38 86 130 86q29 0 56.5 -10.5t47 -33t30 -50t14.5 -56.5t4 -58v-330h-118v330q0 19 -3.5 37t-14.5 34t-28 23.5t-36 7.5t-36 -7.5t-28 -23.5t-14.5 -34t-3.5 -37v-330h-118z" />
    <glyph glyph-name="uni0220" unicode="&#x220;" 
d="M332 -205v740q0 19 -3.5 37t-14.5 34t-28 23.5t-36 7.5t-36 -7.5t-28 -23.5t-14.5 -34t-3.5 -37v-535h-118v735h118v-78q38 86 130 86q29 0 56.5 -10.5t47 -33t30 -50t14.5 -56.5t4 -58v-740h-118z" />
    <glyph glyph-name="uni0221" unicode="&#x221;" 
d="M208 -119l-86 16q10 48 29 95q-43 3 -69 41.5t-33 81t-7 85.5v130q0 27 2.5 53.5t9 52t19.5 49t36 38.5t50 15q59 0 88 -70v267h118v-510l4 1q17 3 34 3q31 0 60 -14t41.5 -43.5t12.5 -61t-14 -61.5t-44 -43.5t-62 -13.5q-34 0 -68 12.5t-55 39.5l-1 2l-2 -3
q-46 -76 -63 -162zM206 98q18 27 37 49q4 22 4 53v130q0 102 -40 102q-21 0 -31.5 -20.5t-13 -40.5t-2.5 -41v-130q0 -20 2.5 -40t13 -41t30.5 -21zM398 70q32 0 32 40.5t-35 40.5q-14 0 -30 -8v-12v-12q0 -49 33 -49z" />
    <glyph glyph-name="uni0222" unicode="&#x222;" 
d="M250 -8q-42 0 -83.5 13t-71 44.5t-41.5 73t-12 83.5v16q0 116 71 173q-63 47 -63 141v199h118v-199q0 -19 4 -37t14.5 -33t28 -22.5t35.5 -7.5t35.5 7.5t28 22.5t14.5 33t4 37v199h118v-199q0 -94 -63 -141q71 -57 71 -173v-16q0 -42 -12 -83.5t-41.5 -73t-71 -44.5
t-83.5 -13zM250 98q20 0 39 8t31 24.5t16 36t4 39.5v16q0 20 -4 39.5t-16 36t-31 24.5t-39 8t-39 -8t-31 -24.5t-16 -36t-4 -39.5v-16q0 -20 4 -39.5t16 -36t31 -24.5t39 -8z" />
    <glyph glyph-name="uni0223" unicode="&#x223;" 
d="M250 -8q-42 0 -82.5 12t-71 42.5t-42.5 71t-12 82.5v129q0 112 71 167q-63 48 -63 141v98h118v-98q0 -19 4 -37t14.5 -33t28 -22.5t35.5 -7.5t35.5 7.5t28 22.5t14.5 33t4 37v98h118v-98q0 -93 -63 -141q71 -55 71 -167v-129q0 -42 -12 -82.5t-42.5 -71t-71 -42.5
t-82.5 -12zM250 98q19 0 37.5 7t31 22.5t17 34.5t4.5 38v129q0 19 -4.5 38t-17 34.5t-31 22.5t-37.5 7t-37.5 -7t-31 -22.5t-17 -34.5t-4.5 -38v-129q0 -19 4.5 -38t17 -34.5t31 -22.5t37.5 -7z" />
    <glyph glyph-name="uni0224" unicode="&#x224;" 
d="M450 -155h-118q0 22 -1.5 44t-5 43t-13.5 44.5t-32 23.5h-230v106l265 523h-265v106h400v-106l-265 -523h95q35 0 67 -15.5t52.5 -44.5t31.5 -62.5t15 -68.5t4 -70z" />
    <glyph glyph-name="uni0225" unicode="&#x225;" 
d="M450 -155h-118q0 22 -1.5 44t-5 43t-13.5 44.5t-32 23.5h-230v106l259 318h-259v106h400v-106l-259 -318h89q35 0 67 -15.5t52.5 -44.5t31.5 -62.5t15 -68.5t4 -70z" />
    <glyph glyph-name="uni0226" unicode="&#x226;" 
d="M42 0l140 735h136l140 -735h-118l-30 159h-120l-30 -159h-118zM210 265h80l-16 83q-17 91 -24 146q-7 -55 -24 -146zM250 812q-21 0 -41 8.5t-29 28.5t-9 41t9 41t29 29t41 9t41 -9t28.5 -29t8.5 -41t-8.5 -41t-28.5 -28.5t-41 -8.5z" />
    <glyph glyph-name="uni0227" unicode="&#x227;" 
d="M250 607q-21 0 -41 8.5t-29 28.5t-9 41t9 41t29 29t41 9t41 -9t28.5 -29t8.5 -41t-8.5 -41t-28.5 -28.5t-41 -8.5zM189 -8q-31 0 -61 11t-50 35.5t-28 55.5t-8 62q0 33 10.5 64.5t34.5 54.5t54.5 36t63 18t65.5 5h62v26q0 21 -11 39.5t-31 25.5t-41 7q-19 0 -38 -5.5
t-31.5 -21.5t-12.5 -36h-118q0 37 15.5 71.5t45.5 57.5t66 31.5t73 8.5q30 0 60.5 -5.5t57.5 -20t47 -38.5t28 -54t8 -60v-360h-118v74q-42 -82 -143 -82zM237 98q17 0 34.5 4t32.5 15t21.5 28t6.5 35v48h-62q-18 0 -36.5 -2.5t-35.5 -10.5t-27.5 -23.5t-10.5 -34t11 -34
t29 -20.5t37 -5z" />
    <glyph glyph-name="uni0228" unicode="&#x228;" 
d="M150 -214v80h100q19 0 19 17t-19 17h-44v100h88v-26q64 -20 64 -91q0 -21 -7 -40.5t-23.5 -33t-36.5 -18.5t-41 -5h-100zM75 0v735h375v-106h-257v-179h197v-106h-197v-238h257v-106h-375z" />
    <glyph glyph-name="uni0229" unicode="&#x229;" 
d="M150 -214v80h100q19 0 19 17t-19 17h-44v100h88v-26q64 -20 64 -91q0 -21 -7 -40.5t-23.5 -33t-36.5 -18.5t-41 -5h-100zM252 -8q-33 0 -66.5 7t-62 26t-47.5 47t-26.5 61t-7.5 67v130q0 42 12 82.5t42.5 71t71 42.5t82.5 12t82.5 -12t71 -42.5t42.5 -71t12 -82.5v-118
h-298v-12q0 -20 4.5 -39t17.5 -34.5t32 -22t38 -6.5t37.5 4.5t33 19t15.5 32.5h118q-2 -36 -19 -69t-47 -55t-65.5 -30t-72.5 -8zM160 318h180v12q0 19 -4.5 38t-17 34.5t-31 22.5t-37.5 7t-37.5 -7t-31 -22.5t-17 -34.5t-4.5 -38v-12z" />
    <glyph glyph-name="uni022A" unicode="&#x22a;" 
d="M350 815q-20 0 -39 8.5t-27.5 27.5t-8.5 39t8.5 39t27.5 27.5t39 8.5t39 -8.5t27.5 -27.5t8.5 -39t-8.5 -39t-27.5 -27.5t-39 -8.5zM150 815q-20 0 -39 8.5t-27.5 27.5t-8.5 39t8.5 39t27.5 27.5t39 8.5t39 -8.5t27.5 -27.5t8.5 -39t-8.5 -39t-27.5 -27.5t-39 -8.5z
M250 -8q-42 0 -83.5 13t-71 44.5t-41.5 73t-12 83.5v323q0 42 12 83.5t41.5 73t71 44.5t83.5 13t83.5 -13t71 -44.5t41.5 -73t12 -83.5v-323q0 -42 -12 -83.5t-41.5 -73t-71 -44.5t-83.5 -13zM250 98q20 0 39 8t31 24.5t16 36t4 39.5v323q0 20 -4 39.5t-16 36t-31 24.5
t-39 8t-39 -8t-31 -24.5t-16 -36t-4 -39.5v-323q0 -20 4 -39.5t16 -36t31 -24.5t39 -8zM100 1057v92h300v-92h-300z" />
    <glyph glyph-name="uni022B" unicode="&#x22b;" 
d="M350 610q-20 0 -39 8.5t-27.5 27.5t-8.5 39t8.5 39t27.5 27.5t39 8.5t39 -8.5t27.5 -27.5t8.5 -39t-8.5 -39t-27.5 -27.5t-39 -8.5zM150 610q-20 0 -39 8.5t-27.5 27.5t-8.5 39t8.5 39t27.5 27.5t39 8.5t39 -8.5t27.5 -27.5t8.5 -39t-8.5 -39t-27.5 -27.5t-39 -8.5z
M250 -8q-42 0 -82.5 12t-71 42.5t-42.5 71t-12 82.5v130q0 42 12 82.5t42.5 71t71 42.5t82.5 12t82.5 -12t71 -42.5t42.5 -71t12 -82.5v-130q0 -42 -12 -82.5t-42.5 -71t-71 -42.5t-82.5 -12zM250 98q19 0 37.5 7t31 22.5t17 34.5t4.5 38v130q0 19 -4.5 38t-17 34.5
t-31 22.5t-37.5 7t-37.5 -7t-31 -22.5t-17 -34.5t-4.5 -38v-130q0 -19 4.5 -38t17 -34.5t31 -22.5t37.5 -7zM100 852v92h300v-92h-300z" />
    <glyph glyph-name="uni022C" unicode="&#x22c;" 
d="M307 786q-25 0 -47 13.5t-37 34.5t-30 39q-20 -25 -46 -82l-94 38q16 34 33 64t44.5 55t62.5 25q25 0 47 -13.5t37 -34.5t30 -39q20 25 46 82l94 -38q-16 -34 -33 -64t-44.5 -55t-62.5 -25zM250 -8q-42 0 -83.5 13t-71 44.5t-41.5 73t-12 83.5v323q0 42 12 83.5t41.5 73
t71 44.5t83.5 13t83.5 -13t71 -44.5t41.5 -73t12 -83.5v-323q0 -42 -12 -83.5t-41.5 -73t-71 -44.5t-83.5 -13zM250 98q20 0 39 8t31 24.5t16 36t4 39.5v323q0 20 -4 39.5t-16 36t-31 24.5t-39 8t-39 -8t-31 -24.5t-16 -36t-4 -39.5v-323q0 -20 4 -39.5t16 -36t31 -24.5
t39 -8zM100 1057v92h300v-92h-300z" />
    <glyph glyph-name="uni022D" unicode="&#x22d;" 
d="M307 581q-25 0 -47 13.5t-37 34.5t-30 39q-20 -25 -46 -82l-94 38q16 34 33 64t44.5 55t62.5 25q25 0 47 -13.5t37 -34.5t30 -39q20 25 46 82l94 -38q-16 -34 -33 -64t-44.5 -55t-62.5 -25zM250 -8q-42 0 -82.5 12t-71 42.5t-42.5 71t-12 82.5v130q0 42 12 82.5t42.5 71
t71 42.5t82.5 12t82.5 -12t71 -42.5t42.5 -71t12 -82.5v-130q0 -42 -12 -82.5t-42.5 -71t-71 -42.5t-82.5 -12zM250 98q19 0 37.5 7t31 22.5t17 34.5t4.5 38v130q0 19 -4.5 38t-17 34.5t-31 22.5t-37.5 7t-37.5 -7t-31 -22.5t-17 -34.5t-4.5 -38v-130q0 -19 4.5 -38
t17 -34.5t31 -22.5t37.5 -7zM100 852v92h300v-92h-300z" />
    <glyph glyph-name="uni022E" unicode="&#x22e;" 
d="M250 812q-21 0 -41 8.5t-29 28.5t-9 41t9 41t29 29t41 9t41 -9t28.5 -29t8.5 -41t-8.5 -41t-28.5 -28.5t-41 -8.5zM250 -8q-42 0 -83.5 13t-71 44.5t-41.5 73t-12 83.5v323q0 42 12 83.5t41.5 73t71 44.5t83.5 13t83.5 -13t71 -44.5t41.5 -73t12 -83.5v-323
q0 -42 -12 -83.5t-41.5 -73t-71 -44.5t-83.5 -13zM250 98q20 0 39 8t31 24.5t16 36t4 39.5v323q0 20 -4 39.5t-16 36t-31 24.5t-39 8t-39 -8t-31 -24.5t-16 -36t-4 -39.5v-323q0 -20 4 -39.5t16 -36t31 -24.5t39 -8z" />
    <glyph glyph-name="uni022F" unicode="&#x22f;" 
d="M250 607q-21 0 -41 8.5t-29 28.5t-9 41t9 41t29 29t41 9t41 -9t28.5 -29t8.5 -41t-8.5 -41t-28.5 -28.5t-41 -8.5zM250 -8q-42 0 -82.5 12t-71 42.5t-42.5 71t-12 82.5v130q0 42 12 82.5t42.5 71t71 42.5t82.5 12t82.5 -12t71 -42.5t42.5 -71t12 -82.5v-130
q0 -42 -12 -82.5t-42.5 -71t-71 -42.5t-82.5 -12zM250 98q19 0 37.5 7t31 22.5t17 34.5t4.5 38v130q0 19 -4.5 38t-17 34.5t-31 22.5t-37.5 7t-37.5 -7t-31 -22.5t-17 -34.5t-4.5 -38v-130q0 -19 4.5 -38t17 -34.5t31 -22.5t37.5 -7z" />
    <glyph glyph-name="uni0230" unicode="&#x230;" 
d="M250 812q-21 0 -41 8.5t-29 28.5t-9 41t9 41t29 29t41 9t41 -9t28.5 -29t8.5 -41t-8.5 -41t-28.5 -28.5t-41 -8.5zM250 -8q-42 0 -83.5 13t-71 44.5t-41.5 73t-12 83.5v323q0 42 12 83.5t41.5 73t71 44.5t83.5 13t83.5 -13t71 -44.5t41.5 -73t12 -83.5v-323
q0 -42 -12 -83.5t-41.5 -73t-71 -44.5t-83.5 -13zM250 98q20 0 39 8t31 24.5t16 36t4 39.5v323q0 20 -4 39.5t-16 36t-31 24.5t-39 8t-39 -8t-31 -24.5t-16 -36t-4 -39.5v-323q0 -20 4 -39.5t16 -36t31 -24.5t39 -8zM100 1057v92h300v-92h-300z" />
    <glyph glyph-name="uni0231" unicode="&#x231;" 
d="M250 607q-21 0 -41 8.5t-29 28.5t-9 41t9 41t29 29t41 9t41 -9t28.5 -29t8.5 -41t-8.5 -41t-28.5 -28.5t-41 -8.5zM250 -8q-42 0 -82.5 12t-71 42.5t-42.5 71t-12 82.5v130q0 42 12 82.5t42.5 71t71 42.5t82.5 12t82.5 -12t71 -42.5t42.5 -71t12 -82.5v-130
q0 -42 -12 -82.5t-42.5 -71t-71 -42.5t-82.5 -12zM250 98q19 0 37.5 7t31 22.5t17 34.5t4.5 38v130q0 19 -4.5 38t-17 34.5t-31 22.5t-37.5 7t-37.5 -7t-31 -22.5t-17 -34.5t-4.5 -38v-130q0 -19 4.5 -38t17 -34.5t31 -22.5t37.5 -7zM100 852v92h300v-92h-300z" />
    <glyph glyph-name="uni0232" unicode="&#x232;" 
d="M100 844v92h300v-92h-300zM191 0v311l-161 424h119l101 -291l101 291h119l-161 -424v-311h-118z" />
    <glyph glyph-name="uni0233" unicode="&#x233;" 
d="M100 639v92h300v-92h-300zM121 -205q25 64 55 163l14 47l-163 525h126l99 -369l95 369h126l-185 -603l-24 -80l-16 -52h-127z" />
    <glyph glyph-name="uni0234" unicode="&#x234;" 
d="M115 -89l-96 23q22 79 65.5 150.5t106.5 124.5v420h-116v106h234v-468q24 5 47 5q37 0 72 -16t50.5 -51.5t15.5 -73t-16.5 -73t-52 -51t-73.5 -15.5q-31 0 -61 10.5t-53.5 32.5t-34.5 51q-63 -79 -88 -175zM352 81q12 0 23.5 7t15.5 19t4 25q0 51 -47 51q-16 0 -35 -7
l-4 -2v-4v-12.5v-12.5q0 -64 43 -64z" />
    <glyph glyph-name="uni0235" unicode="&#x235;" 
d="M208 -78l-85 19q8 30 20 59h-93v530h116v-62q29 70 88 70q27 0 49 -15.5t33.5 -39.5t18 -49.5t8.5 -51.5t2 -52v-105l2 1q17 3 34 3q32 0 61 -14t42 -43.5t13 -61t-14 -61.5t-44 -43.5t-62 -13.5q-37 0 -73 15.5t-56 47.5q-43 -61 -60 -133zM166 50q35 64 83 112v168
q0 20 -2 40t-10.5 42t-28.5 22q-21 0 -29.5 -22t-10.5 -42t-2 -40v-280zM398 70q32 0 32 40.5t-36 40.5q-13 0 -29 -6v-2v-12v-12q0 -49 33 -49z" />
    <glyph glyph-name="uni0236" unicode="&#x236;" 
d="M86 -89l-96 20q18 76 56.5 146t94.5 124v223h-92v106h92v205h118v-205h140v-106h-140v-157l4 1q22 4 44 4q37 0 71.5 -16.5t50 -51.5t15.5 -72.5t-16.5 -73t-52 -51t-73.5 -15.5q-29 0 -57 9t-51 28t-36 45q-51 -75 -72 -163zM302 81q12 0 23.5 7t15.5 19t4 25
q0 51 -46 51q-18 0 -38 -10h-2v-3v-12.5v-12.5q0 -64 43 -64z" />
    <glyph glyph-name="uni0237" unicode="&#x237;" 
d="M184 -213q-36 0 -71.5 11.5t-61 38.5t-38 62t-13.5 71h118q0 -19 7 -37.5t23.5 -29t35.5 -10.5q18 0 33.5 10.5t23.5 27t10.5 34.5t2.5 36v423h-116v106h234v-529q0 -32 -5.5 -64t-21 -61t-40.5 -50t-56.5 -30t-64.5 -9z" />
    <glyph glyph-name="uni0238" unicode="&#x238;" 
d="M338 96q31 0 31 24v290q0 24 -31 24q-30 0 -30 -24v-290q0 -24 30 -24zM162 96q30 0 30 24v290q0 24 -30 24q-31 0 -31 -24v-290q0 -24 31 -24zM162 -8q-28 0 -55 6.5t-49.5 24t-32.5 43.5t-10 54v290q0 28 10 54t32.5 43.5t49.5 24t55 6.5q20 0 36 -2v199h104v-199
q16 2 36 2q28 0 55 -6.5t49.5 -24t32.5 -43.5t10 -54v-290q0 -28 -10 -54t-32.5 -43.5t-49.5 -24t-55 -6.5q-53 0 -88 20q-35 -20 -88 -20z" />
    <glyph glyph-name="uni0239" unicode="&#x239;" 
d="M338 96q31 0 31 24v290q0 24 -31 24q-30 0 -30 -24v-290q0 -24 30 -24zM162 96q30 0 30 24v290q0 24 -30 24q-31 0 -31 -24v-290q0 -24 31 -24zM198 -205v199q-16 -2 -36 -2q-28 0 -55 6.5t-49.5 24t-32.5 43.5t-10 54v290q0 28 10 54t32.5 43.5t49.5 24t55 6.5
q53 0 88 -20q35 20 88 20q28 0 55 -6.5t49.5 -24t32.5 -43.5t10 -54v-290q0 -28 -10 -54t-32.5 -43.5t-49.5 -24t-55 -6.5q-20 0 -36 2v-199h-104z" />
    <glyph glyph-name="uni023A" unicode="&#x23a;" 
d="M42 0l140 735h136l140 -735h-118l-30 159h-120l-30 -159h-118zM210 265h80l-16 83q-17 91 -24 146q-7 -55 -24 -146zM138 -84l-66 20l290 882l66 -20z" />
    <glyph glyph-name="uni023B" unicode="&#x23b;" 
d="M138 -84l-66 20l290 882l66 -20zM248 -8q-34 0 -67 8t-61 28t-46 49t-25 62t-7 67v323q0 34 7 67t25 62t46 49t61 28t67 8q39 0 77.5 -10.5t68 -37.5t44 -64.5t14.5 -76.5h-118q0 22 -10.5 43t-32 30.5t-43.5 9.5q-20 0 -38.5 -8t-30 -24.5t-15.5 -36t-4 -39.5v-323
q0 -20 4 -39.5t15.5 -36t30 -24.5t38.5 -8q22 0 43.5 9.5t32 30.5t10.5 43h118q0 -37 -13 -72.5t-39.5 -62.5t-62 -39.5t-72.5 -14.5h-17z" />
    <glyph glyph-name="uni023C" unicode="&#x23c;" 
d="M137 -66l-63 26l289 636l63 -26zM248 -8q-34 0 -66.5 7.5t-60.5 26.5t-46.5 47t-25.5 61t-7 66v130q0 33 7 66t25.5 61t46.5 47t60.5 26.5t66.5 7.5q39 0 77 -10.5t67.5 -36.5t44.5 -63t15 -76h-118q0 22 -11 42t-32 29t-43 9q-19 0 -37.5 -7t-30 -22.5t-16 -34.5
t-4.5 -38v-130q0 -19 4.5 -38t16 -34.5t30 -22.5t37.5 -7q22 0 43 9t32 29t11 42h118q0 -49 -24 -94t-69 -67.5t-94 -24.5h-17z" />
    <glyph glyph-name="uni023D" unicode="&#x23d;" 
d="M75 0v341h-60v83h60v311h118v-311h66v-83h-66v-235h265v-106h-383z" />
    <glyph glyph-name="uni023E" unicode="&#x23e;" 
d="M138 -84l-66 20l290 882l66 -20zM191 0v629h-153v106h424v-106h-153v-629h-118z" />
    <glyph glyph-name="uni023F" unicode="&#x23f;" 
d="M449 -205q-59 0 -118 8t-112 36.5t-91 74.5t-58.5 103t-20.5 116q0 10 1 20h118q0 -18 13.5 -32t31.5 -18.5t36 -4.5q19 0 37 3.5t33.5 16.5t15.5 32q0 33 -36 47t-68 18.5t-64 14.5t-59.5 29.5t-43 50t-15.5 63.5q0 37 16.5 71t46.5 56t66 30t73 8q36 0 71 -8
t64.5 -29.5t46 -54.5t17.5 -69h-118q0 18 -13.5 32t-31.5 18.5t-36 4.5q-19 0 -37 -3.5t-33.5 -16.5t-15.5 -32q0 -33 36 -47t68 -18.5t64 -14.5t59.5 -29.5t43 -50t15.5 -63.5q0 -37 -16.5 -71t-46.5 -56t-66 -30t-73 -8q-59 0 -101 17q30 -47 81 -72.5t106.5 -30.5
t111.5 -5h2h1v-106h-1z" />
    <glyph glyph-name="uni0240" unicode="&#x240;" 
d="M449 -205q-46 0 -92 7t-87.5 28t-78 49t-71.5 58.5t-68 62.5h-2l273 424h-273v106h400v-106l-258 -401q28 -24 56 -47.5t60 -42.5t68 -25.5t73 -6.5h1v-106h-1z" />
    <glyph glyph-name="uni0241" unicode="&#x241;" 
d="M191 0v159q0 41 7 81t27.5 75t45.5 67t43 69t18 78q0 19 -4 38t-14.5 35.5t-28.5 25.5t-37 9q-23 0 -43.5 -11.5t-29.5 -33.5t-9 -45h-118q1 40 14.5 77.5t41.5 66t66 40.5t78 12q41 0 81 -14t68 -45.5t40.5 -71.5t12.5 -82q0 -34 -8.5 -67t-24 -63t-35.5 -57t-39.5 -55
t-26.5 -61.5t-7 -67.5v-159h-118z" />
    <glyph glyph-name="uni0242" unicode="&#x242;" 
d="M191 0v80q0 27 3.5 55t15.5 53.5t30 46.5t37.5 40.5t37 43t17.5 51.5q0 19 -12.5 35t-32 21.5t-38.5 5.5q-20 0 -40 -7t-31.5 -25t-11.5 -38v-2h-118v6q0 37 15.5 72t45 58.5t66.5 32.5t74 9t73 -8.5t66 -31t46 -56.5t16 -71q0 -28 -9 -55t-24.5 -50t-35.5 -42.5
t-39 -40.5t-26 -48.5t-7 -54.5v-80h-118z" />
    <glyph glyph-name="uni0243" unicode="&#x243;" 
d="M50 0v179h-35v83h35v473h192q41 0 79.5 -12t67.5 -41.5t40.5 -68.5t11.5 -79q0 -103 -75 -149l2 -1q98 -48 98 -168q0 -45 -14 -87.5t-47 -73.5t-75.5 -43t-87.5 -12h-192zM168 435h74q18 0 35 7t27.5 22t14.5 33t4 35.5t-4 35.5t-14.5 32.5t-27.5 21.5t-35 7h-74v-194z
M168 106h74q22 0 43 7t36 23.5t21 37.5t6 43t-5.5 43.5t-20.5 38t-36.5 23.5t-43.5 7h-74v-67h82v-83h-82v-73z" />
    <glyph glyph-name="uni0244" unicode="&#x244;" 
d="M25 340v84h450v-84h-450zM250 -8q-42 0 -82 13.5t-68 45.5t-39 72.5t-11 82.5v529h118v-529q0 -19 3.5 -38t14 -36t28 -25.5t36.5 -8.5t36.5 8.5t28 25.5t14 36t3.5 38v529h118v-529q0 -42 -11 -82.5t-39 -72.5t-68 -45.5t-82 -13.5z" />
    <glyph glyph-name="uni0245" unicode="&#x245;" 
d="M42 0l140 735h136l140 -735h-118l-66 348q-17 91 -24 146q-7 -55 -24 -146l-66 -348h-118z" />
    <glyph glyph-name="uni0246" unicode="&#x246;" 
d="M75 0v735h375v-106h-257v-179h197v-106h-197v-238h257v-106h-375zM138 -84l-66 20l290 882l66 -20z" />
    <glyph glyph-name="uni0247" unicode="&#x247;" 
d="M137 -66l-63 26l289 636l63 -26zM252 -8q-33 0 -66.5 7t-62 26t-47.5 47t-26.5 61t-7.5 67v130q0 42 12 82.5t42.5 71t71 42.5t82.5 12t82.5 -12t71 -42.5t42.5 -71t12 -82.5v-118h-298v-12q0 -20 4.5 -39t17.5 -34.5t32 -22t38 -6.5t37.5 4.5t33 19t15.5 32.5h118
q-2 -36 -19 -69t-47 -55t-65.5 -30t-72.5 -8zM160 318h180v12q0 19 -4.5 38t-17 34.5t-31 22.5t-37.5 7t-37.5 -7t-31 -22.5t-17 -34.5t-4.5 -38v-12z" />
    <glyph glyph-name="uni0248" unicode="&#x248;" 
d="M197 340v84h262v-84h-262zM225 -8q-38 0 -74.5 12t-63 40t-39 64.5t-12.5 74.5h117q0 -21 7.5 -41t25.5 -32t39 -12q19 0 35 10t24.5 26.5t11.5 35t3 36.5v423h-116v106h234v-529q0 -33 -6 -65t-22 -61t-41.5 -50t-57.5 -29.5t-65 -8.5z" />
    <glyph glyph-name="uni0249" unicode="&#x249;" 
d="M293 607q-21 0 -41 8.5t-29 28.5t-9 41t9 41t29 29t41 9t41 -9t28.5 -29t8.5 -41t-8.5 -41t-28.5 -28.5t-41 -8.5zM184 -213q-36 0 -71.5 11.5t-61 38.5t-38 62t-13.5 71h118q0 -19 7 -37.5t23.5 -29t35.5 -10.5q18 0 33.5 10.5t23.5 27t10.5 34.5t2.5 36v423h-116v106
h234v-529q0 -32 -5.5 -64t-21 -61t-40.5 -50t-56.5 -30t-64.5 -9zM162 223v84h262v-84h-262z" />
    <glyph glyph-name="uni024A" unicode="&#x24a;" 
d="M561 -208q-36 0 -72 3.5t-69 20t-54.5 46.5t-27.5 66t-6 72v78q-38 -86 -131 -86q-29 0 -57.5 10t-49 32t-32 49.5t-16 57t-4.5 59.5v335q0 30 4.5 59.5t16 57t32 49.5t49 32t57.5 10q93 0 131 -86v78h118v-735q0 -22 5 -43.5t22.5 -36.5t39.5 -18.5t44 -3.5v-106z
M249 98q19 0 36.5 7.5t28 23.5t14.5 34t4 37v335q0 19 -4 37t-14.5 34t-28 23.5t-36.5 7.5t-37.5 -7t-30.5 -22.5t-16.5 -34.5t-4.5 -38v-335q0 -19 4.5 -38t16.5 -34.5t30.5 -22.5t37.5 -7z" />
    <glyph glyph-name="uni024B" unicode="&#x24b;" 
d="M561 -208q-36 0 -72 3.5t-69 20t-54.5 46.5t-27.5 66t-6 72v78q-38 -86 -131 -86q-29 0 -57.5 10t-49 32t-32 49.5t-16 57t-4.5 59.5v130q0 30 4.5 59.5t16 57t32 49.5t49 32t57.5 10q93 0 131 -86v78h118v-530q0 -22 5 -43.5t22.5 -36.5t39.5 -18.5t44 -3.5v-106z
M249 98q19 0 36.5 7.5t28 23.5t14.5 34t4 37v130q0 19 -4 37t-14.5 34t-28 23.5t-36.5 7.5t-37.5 -7t-30.5 -22.5t-16.5 -34.5t-4.5 -38v-130q0 -19 4.5 -38t16.5 -34.5t30.5 -22.5t37.5 -7z" />
    <glyph glyph-name="uni024C" unicode="&#x24c;" 
d="M36 279v84h262v-84h-262zM50 0v735h190q36 0 71.5 -9t65 -31t48.5 -53.5t26 -67.5t7 -73q0 -44 -11.5 -88t-42 -78.5t-71.5 -51.5l145 -283h-126l-138 268h-46v-268h-118zM168 374h72q23 0 44 10t34 29.5t17.5 42t4.5 45.5t-4.5 46t-17.5 42.5t-34 29.5t-44 10h-72v-255z
" />
    <glyph glyph-name="uni024D" unicode="&#x24d;" 
d="M62 223v84h262v-84h-262zM102 0v530h118v-113q35 121 130 121q28 0 54.5 -11.5t42.5 -36t21 -52.5t5 -56h-118q0 50 -51 50q-68 0 -82 -105q-2 -19 -2 -46v-281h-118z" />
    <glyph glyph-name="uni024E" unicode="&#x24e;" 
d="M25 252v84h450v-84h-450zM191 0v311l-161 424h119l101 -291l101 291h119l-161 -424v-311h-118z" />
    <glyph glyph-name="uni024F" unicode="&#x24f;" 
d="M25 223v84h450v-84h-450zM121 -205q25 64 55 163l14 47l-163 525h126l99 -369l95 369h126l-185 -603l-24 -80l-16 -52h-127z" />
    <glyph glyph-name="uni0250" unicode="&#x250;" 
d="M251 -8q-30 0 -60.5 5.5t-57.5 20t-47 38.5t-28 54t-8 60v360h118v-74q42 82 143 82q31 0 61 -11t50 -35.5t28 -55.5t8 -62q0 -33 -10.5 -64.5t-34.5 -54.5t-54.5 -36t-63 -18t-65.5 -5h-62v-26q0 -21 11 -39.5t31 -25.5t41 -7q19 0 38 5.5t31.5 21.5t12.5 36h118
q0 -37 -15.5 -71.5t-45.5 -57.5t-66 -31.5t-73 -8.5zM168 302h62q18 0 36.5 2.5t35.5 10.5t27.5 23.5t10.5 34t-11 34t-29 20.5t-37 5q-17 0 -34.5 -4t-32.5 -15t-21.5 -28t-6.5 -35v-48z" />
    <glyph glyph-name="uni0251" unicode="&#x251;" 
d="M201 -8q-29 0 -57.5 10t-49 32t-32 49.5t-16 57t-4.5 59.5v130q0 30 4.5 59.5t16 57t32 49.5t49 32t57.5 10q93 0 131 -86v25l118 61v-538h-118v78q-38 -86 -131 -86zM249 98q19 0 36.5 7.5t28 23.5t14.5 34t4 37v130q0 19 -4 37t-14.5 34t-28 23.5t-36.5 7.5t-37.5 -7
t-30.5 -22.5t-16.5 -34.5t-4.5 -38v-130q0 -19 4.5 -38t16.5 -34.5t30.5 -22.5t37.5 -7z" />
    <glyph glyph-name="uni0252" unicode="&#x252;" 
d="M299 -8q-93 0 -131 86v-25l-118 -61v538h118v-78q38 86 131 86q29 0 57.5 -10t49 -32t32 -49.5t16 -57t4.5 -59.5v-130q0 -30 -4.5 -59.5t-16 -57t-32 -49.5t-49 -32t-57.5 -10zM251 98q19 0 37.5 7t30.5 22.5t16.5 34.5t4.5 38v130q0 19 -4.5 38t-16.5 34.5t-30.5 22.5
t-37.5 7t-36.5 -7.5t-28 -23.5t-14.5 -34t-4 -37v-130q0 -19 4 -37t14.5 -34t28 -23.5t36.5 -7.5z" />
    <glyph glyph-name="uni0253" unicode="&#x253;" 
d="M299 -8q-93 0 -131 86v-78h-118v535q0 33 7 65.5t24.5 60.5t45 47.5t60 27t65.5 7.5q38 0 76 -10.5t67 -37t43 -63.5t14 -76h-118q0 22 -10 42t-30.5 29.5t-41.5 9.5q-19 0 -36.5 -7.5t-28.5 -23t-15 -34t-4 -37.5v-83q38 86 131 86q29 0 57.5 -10t49 -32t32 -49.5
t16 -57t4.5 -59.5v-130q0 -30 -4.5 -59.5t-16 -57t-32 -49.5t-49 -32t-57.5 -10zM251 98q19 0 37.5 7t30.5 22.5t16.5 34.5t4.5 38v130q0 19 -4.5 38t-16.5 34.5t-30.5 22.5t-37.5 7t-36.5 -7.5t-28 -23.5t-14.5 -34t-4 -37v-130q0 -19 4 -37t14.5 -34t28 -23.5t36.5 -7.5z
" />
    <glyph glyph-name="uni0254" unicode="&#x254;" 
d="M252 -8q-39 0 -77 10.5t-67.5 36.5t-44.5 63t-15 76h118q0 -22 11 -42t32 -29t43 -9q19 0 37.5 7t30 22.5t16 34.5t4.5 38v130q0 19 -4.5 38t-16 34.5t-30 22.5t-37.5 7q-22 0 -43 -9t-32 -29t-11 -42h-118q0 39 15 76t44.5 63t67.5 36.5t77 10.5q34 0 66.5 -7.5
t60.5 -26.5t46.5 -47t25.5 -61t7 -66v-130q0 -39 -10.5 -77.5t-37 -69t-64 -45t-76.5 -16.5h-18z" />
    <glyph glyph-name="uni0255" unicode="&#x255;" 
d="M82 -27l-111 29q23 83 74 153q-3 17 -3 45v130q0 33 7.5 65t26.5 59t47 44.5t60 24.5t65 7q38 0 75.5 -9.5t67.5 -34.5t45.5 -61.5t15.5 -74.5h-118q0 21 -12 40t-32.5 26.5t-41.5 7.5q-19 0 -36.5 -6t-30 -20t-17 -32t-4.5 -36v-65q58 34 129 34q43 0 84 -17t65 -55
t24 -82q0 -34 -14 -65.5t-41.5 -52.5t-60.5 -28t-67 -7q-108 0 -170 51q-17 -34 -27 -70zM279 96q15 0 30.5 4t26 17t10.5 28t-9 27.5t-23 17.5t-29 5q-56 0 -108 -56l2 -3q31 -40 100 -40z" />
    <glyph glyph-name="uni0256" unicode="&#x256;" 
d="M561 -208q-36 0 -72 3.5t-69 20t-54.5 46.5t-27.5 66t-6 72v78q-38 -86 -131 -86q-29 0 -57.5 10t-49 32t-32 49.5t-16 57t-4.5 59.5v130q0 30 4.5 59.5t16 57t32 49.5t49 32t57.5 10q93 0 131 -86v283h118v-735q0 -22 5 -43.5t22.5 -36.5t39.5 -18.5t44 -3.5v-106z
M249 98q19 0 36.5 7.5t28 23.5t14.5 34t4 37v130q0 19 -4 37t-14.5 34t-28 23.5t-36.5 7.5t-37.5 -7t-30.5 -22.5t-16.5 -34.5t-4.5 -38v-130q0 -19 4.5 -38t16.5 -34.5t30.5 -22.5t37.5 -7z" />
    <glyph glyph-name="uni0257" unicode="&#x257;" 
d="M201 -8q-29 0 -57.5 10t-49 32t-32 49.5t-16 57t-4.5 59.5v130q0 30 4.5 59.5t16 57t32 49.5t49 32t57.5 10q93 0 131 -86v78q0 35 9 69.5t31.5 62.5t53 45.5t65.5 24t70 6.5v-106q-21 0 -42 -5.5t-38 -19.5t-24 -35t-7 -42v-424h30v-106h-148v78q-38 -86 -131 -86z
M249 98q19 0 36.5 7.5t28 23.5t14.5 34t4 37v130q0 19 -4 37t-14.5 34t-28 23.5t-36.5 7.5t-37.5 -7t-30.5 -22.5t-16.5 -34.5t-4.5 -38v-130q0 -19 4.5 -38t16.5 -34.5t30.5 -22.5t37.5 -7z" />
    <glyph glyph-name="uni0258" unicode="&#x258;" 
d="M247 -8q-38 0 -75 9t-67.5 33t-47 59t-17.5 73h118q0 -21 13.5 -38.5t34 -23.5t41.5 -6q20 0 39 6.5t31.5 22t17.5 34.5t5 39v12h-298v118q0 42 12 82.5t42.5 71t71 42.5t82.5 12t82.5 -12t71 -42.5t42.5 -71t12 -82.5v-130q0 -34 -7.5 -67t-27 -61t-48 -47t-61.5 -26
t-67 -7zM160 318h180v12q0 19 -4.5 38t-17 34.5t-31 22.5t-37.5 7t-37.5 -7t-31 -22.5t-17 -34.5t-4.5 -38v-12z" />
    <glyph glyph-name="uni0259" unicode="&#x259;" 
d="M250 -8q-42 0 -82.5 12t-71 42.5t-42.5 71t-12 82.5v118h298v12q0 20 -4.5 39t-17.5 34.5t-32 22t-38 6.5t-37.5 -4.5t-33 -19t-15.5 -32.5h-118q2 36 19 69t47 55t65.5 30t72.5 8q33 0 66.5 -7t62 -26t47.5 -47t26.5 -61t7.5 -67v-130q0 -42 -12 -82.5t-42.5 -71
t-71 -42.5t-82.5 -12zM250 98q19 0 37.5 7t31 22.5t17 34.5t4.5 38v12h-180v-12q0 -19 4.5 -38t17 -34.5t31 -22.5t37.5 -7z" />
    <glyph glyph-name="uni025A" unicode="&#x25a;" 
d="M213 -8q-31 0 -60.5 9.5t-52 30.5t-35.5 49t-18 58t-5 61v118h223v12q0 21 -3 42.5t-16.5 40.5t-35.5 19q-14 0 -26 -9t-17 -23t-5 -29h-118q2 33 13 64.5t34 56t54.5 35.5t64.5 11q31 0 60.5 -9t52.5 -30.5t36.5 -49.5t18.5 -58t5 -61v-10h26v-1q0 -26 8 -52t30.5 -41.5
t48.5 -15.5h4v-83h-7q-66 0 -112 35q-3 -33 -14.5 -65t-34 -57t-54.5 -36.5t-65 -11.5zM213 98q21 0 33.5 19.5t15.5 40.5t3 42v12h-105v-12q0 -21 3 -42t15.5 -40.5t34.5 -19.5z" />
    <glyph glyph-name="uni025B" unicode="&#x25b;" 
d="M248 -8q-38 0 -76 7.5t-71 29t-50 57t-17 73.5q0 81 79 118q-63 35 -63 105q0 35 15.5 68.5t46 53.5t65.5 27t71 7q35 0 70 -8t64.5 -29t45.5 -53.5t16 -68.5h-118q0 18 -13 31.5t-30.5 17.5t-34.5 4q-18 0 -35.5 -3.5t-31 -17t-13.5 -31.5t14 -31t32 -16.5t36 -3.5h60
v-106h-60q-22 0 -43.5 -4.5t-38 -20.5t-16.5 -38q0 -16 9 -30t24 -20.5t31 -9t32 -2.5q21 0 41 4t36.5 19t16.5 35h118q-1 -38 -19 -72t-49.5 -55t-68.5 -29t-75 -8z" />
    <glyph glyph-name="uni025C" unicode="&#x25c;" 
d="M252 -8q-38 0 -75 8t-68.5 29t-49.5 55t-19 72h118q0 -20 16.5 -35t36.5 -19t41 -4q16 0 32 2.5t31 9t24 20.5t9 30q0 22 -16.5 38t-38 20.5t-43.5 4.5h-60v106h60q18 0 36 3.5t32 16.5t14 31t-13.5 31.5t-31 17t-35.5 3.5q-17 0 -34.5 -4t-30.5 -17.5t-13 -31.5h-118
q0 36 16 68.5t45.5 53.5t64.5 29t70 8q36 0 71 -7t65.5 -27t46 -53.5t15.5 -68.5q0 -70 -63 -105q79 -37 79 -118q0 -38 -17 -73.5t-50 -57t-71 -29t-76 -7.5z" />
    <glyph glyph-name="uni025D" unicode="&#x25d;" 
d="M214 -8q-33 0 -65 8.5t-57.5 30.5t-38 53.5t-13.5 64.5h118q0 -15 7.5 -27.5t21 -18t27.5 -5.5q17 0 32 7.5t21 23t6 32t-6.5 32t-22 23t-31.5 7.5h-49v106h49q44 0 44 51.5t-42 51.5q-12 0 -22.5 -7t-14.5 -18.5t-4 -23.5h-118q0 32 11 62t33.5 52t53 31.5t61.5 9.5
q32 0 63 -9t54 -31.5t33 -53.5t10 -62q0 -37 -13 -62h47v-1q0 -26 8 -52t30.5 -41.5t48.5 -15.5h4v-83h-7q-59 0 -102 28q-1 -34 -12.5 -66.5t-37.5 -55.5t-59 -32t-68 -9z" />
    <glyph glyph-name="uni025E" unicode="&#x25e;" 
d="M253 -8q-34 0 -67.5 7t-62 25.5t-47.5 47t-26.5 61.5t-7.5 67v130q0 34 7.5 67t26.5 61t47.5 47t61.5 26t67 7q35 0 70.5 -7.5t65.5 -27.5t46 -53t16 -69q0 -80 -92 -110q108 -29 108 -117q0 -37 -17.5 -71.5t-50.5 -55t-70.5 -28t-74.5 -7.5zM253 98q21 0 41.5 4t37 18
t16.5 35q0 49 -98 49h-60v133h60q82 0 82 43q0 18 -13.5 31t-31 17t-35.5 4q-19 0 -38 -6.5t-32 -22t-17.5 -34.5t-4.5 -39v-130q0 -20 5 -39t18 -34.5t32 -22t38 -6.5z" />
    <glyph glyph-name="uni025F" unicode="&#x25f;" 
d="M181 -229q-30 0 -60 8.5t-52.5 30t-33 51t-10.5 60.5v8h118v-3q0 -11 3.5 -22.5t13 -19t21.5 -7.5q41 0 41 67v77h-152v106h152v403h117v-403h111v-106h-111v-77q0 -34 -8 -66.5t-30 -58.5t-54 -37t-66 -11z" />
    <glyph glyph-name="uni0260" unicode="&#x260;" 
d="M246 -213q-36 0 -71.5 8.5t-64 31t-44.5 56t-18 69.5h118q1 -19 13.5 -33.5t30.5 -20t36 -5.5q19 0 37 7.5t29.5 23t15.5 34t4 37.5v83q-38 -86 -131 -86q-29 0 -57.5 10t-49 32t-32 49.5t-16 57t-4.5 59.5v130q0 30 4.5 59.5t16 57t32 49.5t49 32t57.5 10q93 0 131 -86
v78q0 35 9 69.5t31.5 62.5t53 45.5t65.5 24t70 6.5v-106q-21 0 -42 -5.5t-38 -19.5t-24 -35t-7 -42v-535q0 -33 -7 -65.5t-25 -61t-46 -47.5t-60.5 -26.5t-65.5 -7.5zM249 98q19 0 36.5 7.5t28 23.5t14.5 34t4 37v130q0 19 -4 37t-14.5 34t-28 23.5t-36.5 7.5t-37.5 -7
t-30.5 -22.5t-16.5 -34.5t-4.5 -38v-130q0 -19 4.5 -38t16.5 -34.5t30.5 -22.5t37.5 -7z" />
    <glyph glyph-name="uni0261" unicode="&#x261;" 
d="M246 -213q-36 0 -71.5 8.5t-64 31t-44.5 56t-18 69.5h118q1 -19 13.5 -33.5t30.5 -20t36 -5.5q19 0 37 7.5t29.5 23t15.5 34t4 37.5v83q-38 -86 -131 -86q-29 0 -57.5 10t-49 32t-32 49.5t-16 57t-4.5 59.5v130q0 30 4.5 59.5t16 57t32 49.5t49 32t57.5 10q93 0 131 -86
v78h118v-535q0 -33 -7 -65.5t-25 -61t-46 -47.5t-60.5 -26.5t-65.5 -7.5zM249 98q19 0 36.5 7.5t28 23.5t14.5 34t4 37v130q0 19 -4 37t-14.5 34t-28 23.5t-36.5 7.5t-37.5 -7t-30.5 -22.5t-16.5 -34.5t-4.5 -38v-130q0 -19 4.5 -38t16.5 -34.5t30.5 -22.5t37.5 -7z" />
    <glyph glyph-name="uni0262" unicode="&#x262;" 
d="M202 -8q-30 0 -59 10.5t-49.5 33.5t-32 51.5t-15.5 58.5t-4 60v118q0 34 7 67t25 62t46 49t61 28t67 8q39 0 77.5 -10.5t68 -37.5t44 -64.5t14.5 -76.5h-118q0 22 -10.5 43t-32 30.5t-43.5 9.5q-20 0 -38.5 -8t-30 -24.5t-15.5 -36t-4 -39.5v-118q0 -20 4 -39.5t16 -36
t31 -24.5t39 -8q18 0 34.5 7.5t27 22.5t15 32.5t5.5 35.5h-82v106h200v-302h-107v112q-25 -91 -95 -114q-20 -6 -46 -6z" />
    <glyph glyph-name="uni0263" unicode="&#x263;" 
d="M250 -205q-21 0 -42 6t-37 21t-22 35.5t-6 42.5q0 102 59 282q-57 149 -160 348h118q51 -116 90 -215q39 99 90 215h118q-103 -199 -160 -348q59 -180 59 -282q0 -22 -6 -42.5t-22 -35.5t-37 -21t-42 -6zM250 -127q21 0 21 27q0 55 -21 135l-1 -3q-20 -78 -20 -132
q0 -27 21 -27z" />
    <glyph glyph-name="uni0264" unicode="&#x264;" 
d="M250 0q-21 0 -41.5 5.5t-36.5 20.5t-22.5 35t-6.5 41q0 71 59 193q-57 100 -160 235h118q51 -78 90 -145q39 67 90 145h118q-103 -135 -160 -235q59 -122 59 -193q0 -21 -6.5 -41t-22.5 -35t-36.5 -20.5t-41.5 -5.5zM250 78q21 0 21 26q0 38 -21 91q-21 -53 -21 -91
q0 -26 21 -26z" />
    <glyph glyph-name="uni0265" unicode="&#x265;" 
d="M332 -205v283q-38 -86 -130 -86q-29 0 -56.5 10.5t-47 33t-30 50t-14.5 56.5t-4 58v330h118v-330q0 -19 3.5 -37t14.5 -34t28 -23.5t36 -7.5t36 7.5t28 23.5t14.5 34t3.5 37v330h118v-735h-118z" />
    <glyph glyph-name="uni0266" unicode="&#x266;" 
d="M50 0v535q0 33 7 65.5t24.5 60.5t45 47.5t60 27t65.5 7.5q38 0 76 -10.5t67 -37t43 -63.5t14 -76h-118q0 22 -10 42t-30.5 29.5t-41.5 9.5q-19 0 -36.5 -7.5t-28.5 -23t-15 -34t-4 -37.5v-83q38 86 130 86q29 0 56.5 -10.5t47 -33t30 -50t14.5 -56.5t4 -58v-330h-118v330
q0 19 -3.5 37t-14.5 34t-28 23.5t-36 7.5t-36 -7.5t-28 -23.5t-14.5 -34t-3.5 -37v-330h-118z" />
    <glyph glyph-name="uni0267" unicode="&#x267;" 
d="M221 -208v106q22 0 43 5.5t37.5 19.5t23.5 35t7 42v330q0 19 -3.5 37t-14.5 34t-28 23.5t-36 7.5t-36 -7.5t-28 -23.5t-14.5 -34t-3.5 -37v-330h-118v535q0 33 7 65.5t24.5 60.5t45 47.5t60 27t65.5 7.5q38 0 76 -10.5t67 -37t43 -63.5t14 -76h-118q0 22 -10 42
t-30.5 29.5t-41.5 9.5q-19 0 -36.5 -7.5t-28.5 -23t-15 -34t-4 -37.5v-83q38 86 130 86q29 0 56.5 -10.5t47 -33t30 -50t14.5 -56.5t4 -58v-330q0 -35 -9 -69.5t-31 -62.5t-53 -45.5t-66 -24t-70 -6.5z" />
    <glyph glyph-name="uni0268" unicode="&#x268;" 
d="M75 0v106h123v318h-109v106h227v-424h109v-106h-350zM250 607q-21 0 -41 8.5t-29 28.5t-9 41t9 41t29 29t41 9t41 -9t28.5 -29t8.5 -41t-8.5 -41t-28.5 -28.5t-41 -8.5zM119 233v84h262v-84h-262z" />
    <glyph glyph-name="uni0269" unicode="&#x269;" 
d="M352 0q-32 0 -63 8.5t-54.5 31t-33.5 53t-10 62.5v269h-116v106h234v-375q0 -49 43 -49h82v-106h-82z" />
    <glyph glyph-name="uni026A" unicode="&#x26a;" 
d="M75 0v106h116v318h-116v106h350v-106h-116v-318h116v-106h-350z" />
    <glyph glyph-name="uni026B" unicode="&#x26b;" 
d="M307 303q-25 0 -47 13.5t-37 34.5t-30 39q-20 -25 -46 -82l-94 38q16 34 33 64t44.5 55t62.5 25q25 0 47 -13.5t37 -34.5t30 -39q20 25 46 82l94 -38q-16 -34 -33 -64t-44.5 -55t-62.5 -25zM75 0v106h123v523h-109v106h227v-629h109v-106h-350z" />
    <glyph glyph-name="uni026C" unicode="&#x26c;" 
d="M75 0v106h123v166h-41q-20 0 -39.5 5t-35 18.5t-22 32.5t-6.5 39.5t6.5 39.5t22 32.5t35 18.5t39.5 5h41v166h-109v106h227v-394h96v-69h-96v-166h109v-106h-350zM157 341h41v53h-41q-26 0 -26 -26.5t26 -26.5z" />
    <glyph glyph-name="uni026D" unicode="&#x26d;" 
d="M444 -208q-36 0 -72 3.5t-68.5 20t-54.5 46.5t-27.5 66t-5.5 72v629h-116v106h233v-735q0 -22 5.5 -44t23 -36.5t39.5 -18t44 -3.5z" />
    <glyph glyph-name="uni026E" unicode="&#x26e;" 
d="M252 -205q-39 0 -77.5 11t-67.5 38t-43.5 64t-15.5 76h118q0 -23 11 -43.5t31.5 -30t43.5 -9.5q20 0 39 9t30 27t15 38.5t4 41t-4 40.5t-15.5 38t-30.5 26.5t-40 8.5h-40v106l69 188h-111v-371h-118v682h118v-205h252v-106l-69 -188v-20q36 -17 61.5 -49t35.5 -71t10 -79
q0 -43 -11 -85.5t-40 -75.5t-70.5 -47t-84.5 -14z" />
    <glyph glyph-name="uni026F" unicode="&#x26f;" 
d="M124 -8q-24 0 -45 14.5t-31 37.5t-13.5 47.5t-3.5 48.5v390h104v-390q0 -54 32 -54q31 0 31 54v390h104v-390q0 -54 31 -54q32 0 32 54v390h104v-530h-104v43q-24 -51 -74 -51q-63 0 -84 75q-22 -75 -83 -75z" />
    <glyph glyph-name="uni0270" unicode="&#x270;" 
d="M365 -205v248q-24 -51 -74 -51q-63 0 -84 75q-22 -75 -83 -75q-24 0 -45 14.5t-31 37.5t-13.5 47.5t-3.5 48.5v390h104v-390q0 -54 32 -54q31 0 31 54v390h104v-390q0 -54 31 -54q32 0 32 54v390h104v-735h-104z" />
    <glyph glyph-name="uni0271" unicode="&#x271;" 
d="M247 -202v94q22 0 44.5 5.5t40 21t25.5 37t8 44.5v390q0 54 -32 54q-31 0 -31 -54v-390h-104v390q0 54 -31 54q-32 0 -32 -54v-390h-104v530h104v-43q24 51 74 51q63 0 84 -75q22 75 83 75q24 0 45 -14.5t31 -37.5t13.5 -47.5t3.5 -48.5v-390q0 -34 -9 -67.5t-30.5 -60.5
t-51.5 -44t-63.5 -23.5t-67.5 -6.5z" />
    <glyph glyph-name="uni0272" unicode="&#x272;" 
d="M-61 -208v106q21 0 42 5.5t38 19.5t24 35t7 42v530h118v-78q38 86 130 86q29 0 56.5 -10.5t47 -33t30 -50t14.5 -56.5t4 -58v-330h-118v330q0 19 -3.5 37t-14.5 34t-28 23.5t-36 7.5t-36 -7.5t-28 -23.5t-14.5 -34t-3.5 -37v-330q0 -35 -9 -69.5t-31.5 -62.5t-53 -45.5
t-65.5 -24t-70 -6.5z" />
    <glyph glyph-name="uni0273" unicode="&#x273;" 
d="M561 -208q-36 0 -72 3.5t-69 20t-54.5 46.5t-27.5 66t-6 72v330q0 19 -3.5 37t-14.5 34t-28 23.5t-36 7.5t-36 -7.5t-28 -23.5t-14.5 -34t-3.5 -37v-330h-118v530h118v-78q38 86 130 86q29 0 56.5 -10.5t47 -33t30 -50t14.5 -56.5t4 -58v-330q0 -22 5 -43.5t22.5 -36.5
t39.5 -18.5t44 -3.5v-106z" />
    <glyph glyph-name="uni0274" unicode="&#x274;" 
d="M50 0v530h144l149 -374q-9 89 -9 162v212h116v-530h-144l-149 374q9 -89 9 -162v-212h-116z" />
    <glyph glyph-name="uni0275" unicode="&#x275;" 
d="M250 -8q-42 0 -82.5 12t-71 42.5t-42.5 71t-12 82.5v130q0 42 12 82.5t42.5 71t71 42.5t82.5 12t82.5 -12t71 -42.5t42.5 -71t12 -82.5v-130q0 -42 -12 -82.5t-42.5 -71t-71 -42.5t-82.5 -12zM250 98q19 0 37.5 7t31 22.5t17 34.5t4.5 38v23h-180v-23q0 -19 4.5 -38
t17 -34.5t31 -22.5t37.5 -7zM160 307h180v23q0 19 -4.5 38t-17 34.5t-31 22.5t-37.5 7t-37.5 -7t-31 -22.5t-17 -34.5t-4.5 -38v-23z" />
    <glyph glyph-name="uni0276" unicode="&#x276;" 
d="M250 0q-34 0 -68 7t-63.5 24.5t-50 45.5t-29 61.5t-8.5 67.5v118q0 39 11 76t37.5 66t62.5 44.5t74 18.5q13 1 34 1h219v-106h-115v-85h91v-106h-91v-127h115v-106h-219zM250 94v342q-23 0 -45 -6t-39 -22.5t-24 -38.5t-7 -45v-118q0 -23 7 -45t24 -38.5t39 -22.5t45 -6z
" />
    <glyph glyph-name="uni0277" unicode="&#x277;" 
d="M161 -8q-31 0 -58 17.5t-42 45t-23.5 58t-11.5 61.5t-3 62q0 43 6 85.5t22 82t45.5 72t70 47.5t83.5 15t83.5 -15t70 -47.5t45.5 -72t22 -82t6 -85.5q0 -31 -3 -62t-11.5 -61.5t-23.5 -58t-42 -45t-58 -17.5q-59 0 -89 80q-30 -80 -89 -80zM163 88q34 0 34 177v80h106
v-80q0 -177 34 -177q13 0 17.5 15t7 27.5t4 25.5t2.5 26t1.5 26t0.5 26q0 27 -2 53.5t-9.5 52.5t-21 50t-37 38t-50.5 14t-50.5 -14t-37 -38t-21 -50t-9.5 -52.5t-2 -53.5q0 -13 0.5 -26t1.5 -26t2.5 -26t4 -25.5t7 -27.5t17.5 -15z" />
    <glyph glyph-name="uni0278" unicode="&#x278;" 
d="M191 -205v201q-36 7 -69 24.5t-56.5 47t-33 65.5t-9.5 73v118q0 37 9.5 73t33 65.5t56.5 47t69 24.5v201h118v-201q36 -7 69 -24.5t56.5 -47t33 -65.5t9.5 -73v-118q0 -37 -9.5 -73t-33 -65.5t-56.5 -47t-69 -24.5v-201h-118zM198 93v344q-71 -26 -71 -113v-118
q0 -87 71 -113zM302 93q71 26 71 113v118q0 87 -71 113v-344z" />
    <glyph glyph-name="uni0279" unicode="&#x279;" 
d="M150 -8q-28 0 -54.5 11.5t-42.5 36t-21 52.5t-5 56h118q0 -50 51 -50q24 0 43 16.5t27 39.5t11 47t3 48v281h118v-530h-118v113q-31 -107 -107 -119q-11 -2 -23 -2z" />
    <glyph glyph-name="uni027A" unicode="&#x27a;" 
d="M150 -8q-28 0 -54.5 11.5t-42.5 36t-21 52.5t-5 56h118q0 -50 51 -50q68 0 82 105q2 19 2 46v486h118v-735h-118v113q-35 -121 -130 -121z" />
    <glyph glyph-name="uni027B" unicode="&#x27b;" 
d="M509 -208q-36 0 -72 3.5t-69 20t-54.5 46.5t-27.5 66t-6 72v113q-35 -121 -130 -121q-28 0 -54.5 11.5t-42.5 36t-21 52.5t-5 56h118q0 -50 51 -50q24 0 43 16.5t27 39.5t11 47t3 48v281h118v-530q0 -22 5.5 -44t22.5 -36.5t39 -18t44 -3.5v-106z" />
    <glyph glyph-name="uni027C" unicode="&#x27c;" 
d="M102 -205v735h118v-113q35 121 130 121q28 0 54.5 -11.5t42.5 -36t21 -52.5t5 -56h-118q0 50 -51 50q-24 0 -43 -16.5t-27 -39.5t-11 -47t-3 -48v-486h-118z" />
    <glyph glyph-name="uni027D" unicode="&#x27d;" 
d="M331 -208q-36 0 -72.5 3.5t-69 20t-54.5 46.5t-27.5 66t-5.5 72v530h118v-113q35 121 130 121q28 0 54.5 -11.5t42.5 -36t21 -52.5t5 -56h-118q0 50 -51 50q-68 0 -82 -105q-2 -19 -2 -46v-281q0 -22 5 -43.5t22.5 -36.5t39.5 -18.5t44 -3.5v-106z" />
    <glyph glyph-name="uni027E" unicode="&#x27e;" 
d="M102 0v330q0 32 6 63.5t22 60t42 48.5t57 28t64 8t66 -8.5t59 -30.5t40.5 -53t16.5 -64h-118q-1 15 -10.5 27.5t-24 17.5t-29.5 5q-18 0 -34 -9t-24.5 -24.5t-11.5 -33t-3 -35.5v-330h-118z" />
    <glyph glyph-name="uni027F" unicode="&#x27f;" 
d="M198 -205v580q0 22 -22 33t-43.5 13.5t-43.5 2.5v106q31 0 62 -4t60 -14t54 -29t38 -48t13 -60v-580h-118z" />
    <glyph glyph-name="uni0280" unicode="&#x280;" 
d="M50 0v530h235q36 0 70.5 -11.5t59 -39t34 -62.5t9.5 -71t-10 -71.5t-36 -62.5t-60 -39l-2 -1l132 -172h-134l-125 163h-55v-163h-118zM168 269h117q18 0 32.5 12t18.5 30t4 36t-4 35.5t-18.5 29.5t-32.5 12h-117v-155z" />
    <glyph glyph-name="uni0281" unicode="&#x281;" 
d="M63 0v530h117v-163h43l125 163h134l-132 -172l2 -1q34 -12 60 -39t36 -62.5t10 -71.5t-9.5 -71t-34 -62.5t-59 -39t-70.5 -11.5h-222zM180 106h105q18 0 32.5 12t18.5 29.5t4 35.5t-4 36t-18.5 30t-32.5 12h-105v-155z" />
    <glyph glyph-name="uni0282" unicode="&#x282;" 
d="M279 -208q-36 0 -72.5 3.5t-69 20t-54.5 46.5t-27.5 66t-5.5 72v153h118q0 -18 13.5 -32t31.5 -18.5t36 -4.5q19 0 37 3.5t33.5 16.5t15.5 32q0 33 -36 47t-68 18.5t-64 14.5t-59.5 29.5t-43 50t-15.5 63.5q0 37 16.5 71t46.5 56t66 30t73 8q36 0 71 -8t64.5 -29.5
t46 -54.5t17.5 -69h-118q0 18 -13.5 32t-31.5 18.5t-36 4.5q-19 0 -37 -3.5t-33.5 -16.5t-15.5 -32q0 -33 36 -47t68 -18.5t64 -14.5t59.5 -29.5t43 -50t15.5 -63.5q0 -37 -16.5 -71t-46.5 -56t-66 -30t-73 -8q-47 0 -81 10v-2q0 -22 5 -44t22.5 -36.5t39.5 -18t44 -3.5
v-106z" />
    <glyph glyph-name="uni0283" unicode="&#x283;" 
d="M80 -195v106h4q20 0 40.5 2.5t37.5 14.5t23 32t6 40v580q0 35 6.5 70t29 62.5t55 42t67.5 17.5t70 3h1v-106h-4q-20 0 -40.5 -2.5t-37.5 -14.5t-23 -32t-6 -40v-580q0 -35 -6.5 -70t-29 -62.5t-55 -42t-67.5 -17.5t-70 -3h-1z" />
    <glyph glyph-name="uni0284" unicode="&#x284;" 
d="M80 -195v106h4q20 0 40.5 2.5t37.5 14.5t23 32t6 40v91h-46v83h46v406q0 35 6.5 70t29 62.5t55 42t67.5 17.5t70 3h1v-106h-4q-20 0 -40.5 -2.5t-37.5 -14.5t-23 -32t-6 -40v-406h46v-83h-46v-91q0 -35 -6.5 -70t-29 -62.5t-55 -42t-67.5 -17.5t-70 -3h-1z" />
    <glyph glyph-name="uni0285" unicode="&#x285;" 
d="M425 -208q-40 0 -80 8.5t-74 31.5t-54.5 59.5t-24.5 76.5q-1 12 -1 32v322q0 22 -8 43t-25.5 35t-39 19t-43.5 5v106q36 0 71 -6.5t66.5 -23.5t54.5 -45t32.5 -62.5t9.5 -70.5v-322q0 -22 8 -43t25.5 -35t39 -19t43.5 -5v-106z" />
    <glyph glyph-name="uni0286" unicode="&#x286;" 
d="M142 -213q-38 0 -73.5 15.5t-52 51t-16.5 73.5t16 74t52 51t74 15q21 0 43 -4v552q0 32 12.5 61.5t37.5 49t55 30.5t61 15t63 4v-106q-23 0 -45.5 -3t-44 -15.5t-21.5 -35.5v-597q114 -71 171 -194l-90 -37q-31 68 -86 118q-7 -34 -30 -62.5t-56.5 -42t-69.5 -13.5z
M142 -124q43 0 43 64v15.5v14.5v2q-21 6 -37 6q-49 0 -49 -51q0 -13 4 -25t15.5 -19t23.5 -7z" />
    </font>
</defs>
</svg>
